<svg width="103" height="15" viewBox="0 0 103 15" fill="none" xmlns="http://www.w3.org/2000/svg">
<path fill-rule="evenodd" clip-rule="evenodd" d="M4.90325 0.00915527H0.334961L5.58407 7.3733L0.334961 14.7627H4.90325L10.1542 7.3733L4.90325 0.00915527Z" fill="#F78F1E"/>
<path d="M10.7079 3.30957H12.901L14.5873 6.0567L16.3322 3.30957H18.4022L15.6477 7.41395L18.6429 11.9097H16.3912L14.5147 8.93391L12.5994 11.9097H10.4789L13.4799 7.4026L10.7079 3.30957Z" fill="black"/>
<path d="M21.1023 4.73021L20.7656 6.64738L20.7909 6.67083C21.0258 6.43814 21.2742 6.26959 21.5384 6.16992C21.8026 6.06768 22.1038 6.01931 22.4402 6.01931C22.859 6.01931 23.2284 6.09553 23.5494 6.24797C23.87 6.40077 24.1422 6.60414 24.3632 6.86027C24.5842 7.11641 24.7527 7.41761 24.8696 7.76829C24.9872 8.11676 25.0459 8.48612 25.0459 8.8793C25.0459 9.31572 24.9598 9.7166 24.7916 10.0867C24.6237 10.4604 24.3944 10.7847 24.1107 11.057C23.8231 11.3307 23.4926 11.5381 23.117 11.6865C22.7377 11.8357 22.3383 11.906 21.9118 11.898C21.501 11.898 21.1097 11.8434 20.7363 11.7342C20.3644 11.6264 20.0338 11.4597 19.7444 11.2369C19.4545 11.0101 19.224 10.7327 19.0518 10.3996C18.8796 10.0673 18.7894 9.67959 18.7817 9.23767H20.4919C20.5311 9.62315 20.6755 9.93022 20.9261 10.1567C21.1727 10.3861 21.4897 10.5015 21.8751 10.5015C22.1001 10.5015 22.3035 10.4561 22.4816 10.3644C22.6633 10.2721 22.8161 10.153 22.9411 10.0042C23.0642 9.85584 23.1602 9.68362 23.2287 9.48794C23.2991 9.29044 23.3324 9.08853 23.3324 8.8815C23.3324 8.66641 23.2991 8.46121 23.2342 8.26956C23.1719 8.07938 23.0741 7.91156 22.947 7.76682C22.8176 7.62171 22.667 7.50849 22.4871 7.43044C22.3112 7.34982 22.1078 7.31281 21.8748 7.31281C21.5695 7.31281 21.3211 7.36375 21.1295 7.47331C20.9338 7.58287 20.7539 7.75143 20.5857 7.98595H19.0459L19.8774 3.32166H24.5886V4.73058H21.1023" fill="black"/>
<path d="M30.5457 3.30957C30.8975 3.30957 31.2324 3.35098 31.5512 3.44112C31.8659 3.5287 32.1437 3.66171 32.3808 3.84566C32.6175 4.02594 32.8055 4.25826 32.9462 4.54224C33.0851 4.82769 33.1576 5.16444 33.1576 5.55176C33.1576 6.09737 33.0169 6.573 32.7351 6.97167C32.453 7.37328 32.0382 7.62905 31.483 7.74264V7.76829C31.7648 7.80897 31.9975 7.88189 32.1833 7.98962C32.3672 8.09881 32.5197 8.23586 32.6373 8.40442C32.7527 8.57664 32.8366 8.76828 32.8894 8.99144C32.9421 9.21056 32.9755 9.44911 32.9931 9.70524C33.0008 9.84998 33.0088 10.0262 33.0165 10.2355C33.0242 10.4451 33.0396 10.6543 33.0653 10.8679C33.0865 11.0808 33.1276 11.2824 33.1807 11.4681C33.2316 11.6598 33.302 11.8045 33.3899 11.9104H32.4819C32.4332 11.8283 32.3958 11.7305 32.3665 11.6151C32.339 11.4997 32.3196 11.378 32.3079 11.2534C32.2961 11.1299 32.2844 11.0068 32.2767 10.8855C32.2686 10.7639 32.261 10.6624 32.2511 10.5722C32.2353 10.2692 32.2119 9.96577 32.1748 9.66457C32.1375 9.3652 32.0612 9.09734 31.944 8.86026C31.8286 8.62171 31.6604 8.4341 31.4394 8.28899C31.2199 8.14205 30.9169 8.07939 30.5318 8.09515H27.4325V11.9101H26.6069V3.30994H30.5457M30.483 7.39087C30.7315 7.39087 30.97 7.35349 31.1932 7.27728C31.4182 7.20106 31.6157 7.0893 31.7839 6.94639C31.9521 6.80348 32.0854 6.6254 32.1869 6.42386C32.2848 6.22086 32.3339 5.98598 32.3339 5.71995C32.3339 5.19009 32.1829 4.77309 31.878 4.46786C31.5746 4.16262 31.1111 4.01165 30.483 4.01165H27.4329V7.3905H30.483V7.39087Z" fill="black"/>
<path d="M40.3334 3.30957V4.01202H35.2177V7.10872H40.0087V7.81336H35.2177V11.2054H40.3939V11.9097H34.3954V3.30957H40.3334Z" fill="black"/>
<path d="M47.658 3.30957V4.01202H44.6591V11.9097H43.8391V4.01202H40.8519V3.30957H47.658Z" fill="black"/>
<path d="M50.6901 3.30957L54.0591 11.9097H53.1826L52.1339 9.23328H48.2207L47.1859 11.9097H46.3193L49.7744 3.30957H50.6901M51.8583 8.52973L50.1958 4.12195L48.4758 8.52973H51.8583Z" fill="black"/>
<path d="M55.7221 3.30591H54.9001V11.9097H55.7221V3.30591Z" fill="black"/>
<path d="M58.3361 3.30957V11.2054H63.1524V11.9097H57.5138V3.30957H58.3361Z" fill="black"/>
<path d="M68.0076 12.2355C67.3341 12.2355 66.7317 12.1157 66.2037 11.8662C65.6834 11.621 65.2429 11.2905 64.893 10.8669C64.5441 10.4492 64.2818 9.95523 64.1051 9.39605C63.9274 8.83725 63.8402 8.23997 63.8402 7.61117C63.8402 6.96919 63.9362 6.37081 64.1246 5.80614C64.3169 5.24147 64.5918 4.74752 64.9483 4.33126C65.3063 3.90876 65.7453 3.57641 66.2594 3.3364C66.776 3.09565 67.3634 2.97473 68.0153 2.97473C68.51 2.97473 68.9688 3.04582 69.3909 3.18616C69.8116 3.32797 70.1835 3.53171 70.5059 3.79297C70.8258 4.0579 71.0908 4.3734 71.2938 4.73946C71.5015 5.10772 71.6397 5.52325 71.7163 5.9747L71.7437 6.13593H71.5799H71.2212L71.2007 6.02123C71.1329 5.63758 71.0079 5.2935 70.8288 4.97947C70.647 4.66764 70.4235 4.40381 70.1501 4.18395C69.8779 3.96226 69.5635 3.79224 69.204 3.67168C68.8482 3.55149 68.4506 3.49286 68.0146 3.49286C67.4294 3.49286 66.9149 3.60059 66.4668 3.81532C66.0131 4.03225 65.6328 4.32576 65.3217 4.69476C65.0084 5.06632 64.7687 5.50017 64.6053 6.00181C64.4415 6.50309 64.3602 7.04137 64.3602 7.61154C64.3602 8.18537 64.4397 8.72512 64.5969 9.22896C64.7504 9.72877 64.982 10.1663 65.2913 10.5346C65.5961 10.901 65.982 11.1941 66.4404 11.4129C66.8966 11.6258 67.4298 11.7364 68.0465 11.7364C68.5067 11.7364 68.9321 11.6573 69.329 11.499C69.7317 11.3403 70.0827 11.1197 70.3755 10.8409C70.6708 10.5628 70.9006 10.2293 71.0717 9.84017C71.2395 9.45102 71.3238 9.03182 71.3238 8.57635V8.26855H67.9908V8.13077V7.89149V7.75335H71.846V12.0442H71.7078H71.3234L71.3275 10.4034C71.0754 10.8878 70.7196 11.2872 70.2663 11.5972C69.6375 12.0245 68.8834 12.2355 68.0135 12.2355C68.0127 12.2355 68.0106 12.2355 68.0076 12.2355Z" fill="black"/>
<path d="M72.684 12.0475H72.5463V3.1748H76.2109C77.1303 3.1759 77.8236 3.35142 78.2827 3.74387C78.74 4.13302 78.965 4.7347 78.9848 5.5141C78.9863 5.54158 78.9863 5.56869 78.9863 5.59618C78.9863 6.16488 78.8203 6.65296 78.4901 7.04321C78.2399 7.34002 77.9104 7.56574 77.5103 7.72074C77.6701 7.76727 77.8133 7.82444 77.9405 7.89333C78.1842 8.02744 78.3773 8.20699 78.5095 8.43198C78.6389 8.64964 78.7265 8.90504 78.7697 9.19525C78.8078 9.47704 78.8276 9.78777 78.8276 10.1417C78.8276 10.2531 78.8353 10.4056 78.8415 10.5855C78.8492 10.7643 78.8624 10.9409 78.8767 11.1142C78.8947 11.2883 78.913 11.4444 78.9357 11.5873C78.9566 11.7225 78.9899 11.8086 79.0079 11.8295L79.1677 12.0486H78.8958H78.5444L78.5073 11.971C78.4546 11.8632 78.4205 11.735 78.3927 11.5745C78.3692 11.4242 78.3494 11.2594 78.3388 11.0871C78.3282 10.9171 78.3164 10.7471 78.3135 10.5719C78.3095 10.3964 78.3062 10.2429 78.3062 10.1029C78.3062 9.75662 78.282 9.44882 78.23 9.18096C78.1812 8.92483 78.0856 8.7167 77.9445 8.5474C77.8023 8.38214 77.5942 8.24803 77.3201 8.15423C77.0416 8.06152 76.6583 8.01058 76.171 8.01058H73.0695V12.0483H72.9306H72.684V12.0475ZM76.149 7.49868C76.4594 7.49868 76.7522 7.45911 77.0365 7.37959C77.3117 7.30631 77.5561 7.18722 77.7639 7.02086C77.9742 6.85743 78.1398 6.65479 78.2699 6.39902C78.3941 6.15388 78.4586 5.85488 78.4586 5.49431C78.4495 4.90985 78.2783 4.48186 77.9485 4.166C77.6272 3.86186 77.0724 3.69404 76.2721 3.69477L73.0695 3.69404V7.49905H76.149V7.49868Z" fill="black"/>
<path d="M81.7349 11.8657C81.2245 11.6194 80.7932 11.2849 80.4484 10.8598C80.1054 10.4348 79.843 9.94229 79.665 9.37945C79.4891 8.82174 79.3971 8.22959 79.3971 7.60629C79.3971 6.9819 79.4891 6.38828 79.665 5.83131C79.8427 5.26774 80.1054 4.77599 80.4484 4.35166C80.7928 3.9255 81.2245 3.58802 81.7338 3.34178C82.2501 3.08894 82.8397 2.96362 83.4974 2.96362C84.1581 2.96362 84.7473 3.08894 85.2607 3.34178C85.7711 3.58802 86.2039 3.92587 86.5491 4.35166C86.8928 4.77599 87.1552 5.26774 87.3332 5.83021C87.5095 6.38828 87.5982 6.9819 87.5982 7.60629C87.5982 8.22886 87.5099 8.82028 87.3332 9.37945C87.1555 9.94229 86.8928 10.4348 86.5491 10.8598C86.2043 11.2849 85.7711 11.6194 85.2607 11.8657C84.7466 12.1149 84.1581 12.2361 83.4974 12.2361C82.8404 12.2361 82.2512 12.1149 81.7349 11.8657ZM80.8932 10.5839C81.1974 10.9456 81.5678 11.2292 82.0072 11.4351C82.4425 11.6374 82.9372 11.7393 83.4971 11.7393C84.0596 11.7393 84.5546 11.6378 84.9914 11.4362C85.4304 11.2292 85.7997 10.9456 86.1042 10.585C86.4047 10.2233 86.6432 9.78949 86.8103 9.28455C86.9782 8.77301 87.0665 8.2208 87.0742 7.61692C87.0665 7.01341 86.9782 6.45864 86.8103 5.9504C86.6432 5.44509 86.4051 5.00904 86.1042 4.64627C85.7997 4.2868 85.4304 4.00502 84.9914 3.79798C84.5546 3.59388 84.0596 3.49202 83.4971 3.49202C82.9372 3.49202 82.4425 3.59388 82.0079 3.79798C81.5667 4.00502 81.1974 4.28497 80.8932 4.64627C80.5902 5.00904 80.3538 5.44509 80.1845 5.9504C80.0189 6.45754 79.9313 7.01341 79.9237 7.61362C79.9313 8.22043 80.0189 8.77264 80.1845 9.28381V9.28345C80.3538 9.78949 80.5902 10.2233 80.8932 10.5839Z" fill="black"/>
<path d="M94.7872 3.17078H94.9257V8.70204C94.9257 9.87682 94.6512 10.7713 94.0789 11.3601C93.5102 11.9486 92.6846 12.2363 91.6355 12.2363C91.6333 12.2363 91.6311 12.2363 91.63 12.2363C90.5769 12.2374 89.7517 11.9497 89.1823 11.3601C88.6077 10.7713 88.3354 9.87682 88.3354 8.70204V3.17078H88.4743H88.8576V8.70204C88.8587 9.71852 89.0896 10.466 89.5318 10.9695C89.9716 11.4668 90.6582 11.7269 91.63 11.7284C92.6011 11.7269 93.2867 11.4668 93.7267 10.9695C94.1679 10.4653 94.4028 9.71815 94.4028 8.70204V3.17078H94.541H94.7872Z" fill="black"/>
<path d="M95.8385 12.0475H95.6996V3.17847H99.3258C100.173 3.17847 100.851 3.38184 101.343 3.80396C101.834 4.22866 102.081 4.85965 102.08 5.66543C102.08 6.06007 102.006 6.41514 101.862 6.72881C101.717 7.03954 101.515 7.30227 101.256 7.5137C101.001 7.72184 100.695 7.87903 100.348 7.98273C100 8.08937 99.6164 8.1392 99.2049 8.1392H96.2225V12.0479H96.0843H95.8385V12.0475ZM99.3228 7.61594C99.6464 7.61594 99.9454 7.57343 100.219 7.48512C100.494 7.39828 100.726 7.27186 100.926 7.10294C101.122 6.93694 101.275 6.73247 101.388 6.49393C101.499 6.25721 101.556 5.98129 101.556 5.66103C101.555 5.00476 101.372 4.52656 101.014 4.19714C100.662 3.87029 100.106 3.69477 99.3232 3.69477L96.2221 3.69403V7.6163H99.3228V7.61594Z" fill="black"/>
</svg>
