<svg width="94" height="33" viewBox="0 0 94 33" fill="none" xmlns="http://www.w3.org/2000/svg">
<g clip-path="url(#clip0_1925_1163)">
<path d="M10.8696 7.25451e-05C13.1029 7.25451e-05 13.8047 1.59456 14.3934 3.18655C14.6408 3.86258 20.4443 19.6825 20.6188 20.1574C20.6653 20.2898 20.6339 20.5073 20.4293 20.586C20.2234 20.6635 17.208 21.8306 17.041 21.8931C16.8741 21.9568 16.687 21.8643 16.6268 21.6981C16.564 21.5344 15.3124 18.0855 15.1718 17.7007H6.56995C6.43437 18.0855 5.1677 21.5419 5.11121 21.6981C5.05346 21.8568 4.87394 21.9643 4.69568 21.8931C4.51741 21.8231 1.49071 20.656 1.30993 20.586C1.13669 20.5185 1.0576 20.3223 1.11786 20.1574C1.33127 19.5651 7.04699 3.99879 7.33824 3.18655C7.90567 1.6183 8.63128 7.25451e-05 10.8696 7.25451e-05ZM0.658394 28.3073C0.47762 28.3073 0.333252 28.4572 0.333252 28.6397V32.3372C0.333252 32.5197 0.47762 32.6671 0.658394 32.6671H21.072C21.2566 32.6671 21.4009 32.5197 21.4009 32.3372V28.6397C21.4009 28.4572 21.2566 28.3073 21.072 28.3073H0.658394ZM10.8495 5.16592L7.94208 13.8569H13.8047L10.8872 5.16592H10.8495V5.16592ZM54.4775 19.4164C54.0495 19.5601 53.767 19.595 53.4306 19.595C52.7351 19.595 52.3497 19.3214 52.3497 18.6116C52.3497 17.8719 52.8393 17.6244 53.8009 17.6244C54.0357 17.6244 54.2666 17.6582 54.3746 17.6957V18.2255C54.3746 18.7966 54.406 19.1714 54.4775 19.4164V19.4164ZM56.9494 20.2636C56.4359 19.4876 56.3016 19.0302 56.3016 18.0518V16.0649C56.3016 14.9953 56.1761 14.6091 55.8923 14.2193C55.4969 13.6669 54.8378 13.427 53.6264 13.427C52.769 13.427 51.9367 13.5195 51.1307 13.7244L51.422 15.1365C51.9668 15.0603 52.538 14.9953 52.941 14.9953C54.2277 14.9953 54.3746 15.1802 54.3746 16.1412V16.4998C54.0884 16.4236 53.767 16.3686 53.3942 16.3686C51.4571 16.3686 50.434 17.312 50.434 18.874C50.434 20.3386 51.5274 21.1371 52.8594 21.1371C53.3565 21.1371 53.8762 21.0458 54.288 20.8784C54.5365 20.7709 54.6445 20.7072 54.9659 20.4998C55.1592 20.7797 55.5471 21.0658 55.7053 21.1196L56.9494 20.2636V20.2636ZM76.1102 19.4164C75.6796 19.5601 75.4021 19.595 75.0632 19.595C74.3652 19.595 73.9748 19.3214 73.9748 18.6116C73.9748 17.8719 74.4706 17.6244 75.4348 17.6244C75.6695 17.6244 75.9018 17.6582 76.0072 17.6957V18.2255C76.0072 18.7966 76.0373 19.1714 76.1102 19.4164V19.4164ZM78.5845 20.2636C78.0673 19.4876 77.9355 19.0302 77.9355 18.0518V16.0649C77.9355 14.9953 77.8074 14.6091 77.5212 14.2193C77.1308 13.6669 76.4704 13.427 75.2552 13.427C74.3991 13.427 73.5617 13.5195 72.7558 13.7244L73.0433 15.1365C73.5894 15.0603 74.1618 14.9953 74.5761 14.9953C75.8553 14.9953 76.0072 15.1802 76.0072 16.1412V16.4998C75.721 16.4236 75.4021 16.3686 75.0218 16.3686C73.0822 16.3686 72.0553 17.312 72.0553 18.874C72.0553 20.3386 73.1512 21.1371 74.4895 21.1371C74.9929 21.1371 75.5076 21.0458 75.9156 20.8784C76.1679 20.7709 76.2721 20.7072 76.5935 20.4998C76.7893 20.7797 77.1772 21.0658 77.3367 21.1196L78.5845 20.2636V20.2636ZM93.6666 20.9709C93.6666 20.9709 92.6045 18.7178 92.3447 18.2055C92.0522 17.6282 91.781 17.2296 91.1834 17.0859V17.0534C91.5839 16.9771 91.9028 16.736 92.2518 15.9987C92.5819 15.2802 92.6798 15.1252 92.8744 14.954C93.0652 14.7841 93.3264 14.8453 93.3264 14.8453L93.4243 13.517C93.1468 13.4795 92.8393 13.4783 92.5217 13.4958C91.9944 13.527 91.722 13.6782 91.4621 13.9381C91.2588 14.1368 91.1207 14.4342 90.9499 14.7753C90.7692 15.1477 90.6261 15.4476 90.4377 15.8263C90.2507 16.2149 90.1628 16.3898 89.6594 16.3898H89.3318V10.5055H87.3922V20.9709H89.3318V17.9618L89.5966 17.9568C90.1528 17.9568 90.2507 18.0955 90.5445 18.6791C90.8884 19.3751 91.5475 20.9709 91.5475 20.9709H93.6666V20.9709ZM39.0277 20.9709H41.266L37.8802 10.6804C37.5237 10.5617 37.0831 10.488 36.6123 10.488C36.0989 10.488 35.9156 10.5554 35.5139 10.6804L31.931 20.9709H34.079C34.079 20.9709 34.369 20.0686 34.7104 18.9503H38.4213C38.7527 20.0674 39.0277 20.9709 39.0277 20.9709ZM35.2553 17.2246C35.2553 17.2246 35.8754 15.159 35.9721 14.8378C36.2181 14.0056 36.5922 12.6835 36.5922 12.6835H36.6537C36.6537 12.6835 37.0002 14.0531 37.2262 14.8228C37.3116 15.129 37.9041 17.2246 37.9041 17.2246H35.2553ZM60.2535 16.0474C59.5693 16.0474 59.0132 16.6035 59.0132 17.2845C59.0132 17.9706 59.5693 18.5229 60.2535 18.5229C60.939 18.5229 61.4926 17.9706 61.4926 17.2845C61.4926 16.6035 60.939 16.0474 60.2535 16.0474ZM43.9236 10.5055H41.979V20.9696H43.9236V10.5055V10.5055ZM82.5578 15.0902C83.6324 15.1127 83.7654 15.3339 83.7654 16.2311V20.9709H85.6924V16.0649C85.6924 14.9953 85.5669 14.6091 85.2807 14.2193C84.8852 13.6669 84.1081 13.427 82.7938 13.427C81.4932 13.427 80.6647 13.5645 79.5988 13.8806V20.9709H81.5459V15.1802C82.0569 15.1065 82.1473 15.0902 82.5578 15.0902V15.0902ZM48.733 10.3193C47.5178 10.3193 46.8562 10.5592 46.467 11.1103C46.1808 11.5014 46.054 11.8963 46.054 12.9684V13.8806H45.0886V15.4451H46.054V20.9709H47.9822L47.9772 15.4451H49.8992V13.8806H47.9772L47.9822 13.0421C47.9822 12.0825 48.1291 11.8963 49.4171 11.8963C49.5565 11.8963 49.7134 11.9038 49.8804 11.9163L50.1842 10.413C49.7084 10.3505 49.2213 10.3193 48.733 10.3193V10.3193ZM64.2042 10.4167C64.8658 10.378 66.3446 10.323 67.2723 10.323C67.4418 10.323 67.6175 10.3243 67.7933 10.333C69.6174 10.333 70.6631 11.6551 70.6631 13.2071C70.6631 14.263 70.1773 14.964 69.0386 15.3814C70.3781 15.6763 71.0799 16.7172 71.0799 17.9906C71.0799 18.9253 70.815 19.6675 70.3292 20.1736C69.699 20.7909 68.7449 21.1371 67.4744 21.1371C66.3446 21.1371 64.926 21.1021 64.2042 21.0596V10.4167V10.4167ZM67.2723 12.1312C66.9509 12.1312 66.553 12.1374 66.1588 12.1512V14.6641H67.2736C67.7155 14.6641 68.0707 14.5417 68.313 14.3055C68.544 14.0831 68.6645 13.7682 68.6645 13.3945C68.6645 12.591 68.2277 12.1362 67.4154 12.1312H67.2723V12.1312ZM67.3125 19.3326H67.3966C68.4097 19.3326 69.0298 18.7966 69.0374 17.7169C69.0273 17.3295 68.8779 16.9721 68.6106 16.7135C68.318 16.4211 67.9038 16.2686 67.4179 16.2686H66.1588V19.3214C66.5141 19.3289 66.9057 19.3301 67.3125 19.3326" fill="#EE2A23"/>
</g>
<defs>
<clipPath id="clip0_1925_1163">
<rect width="93.3333" height="32.6667" fill="white" transform="translate(0.333252)"/>
</clipPath>
</defs>
</svg>
