<svg width="88" height="24" viewBox="0 0 88 24" fill="none" xmlns="http://www.w3.org/2000/svg">
<path d="M23.7165 0.922607H0.66687V23.9596H23.7165V0.922607Z" fill="#ED1A3A"/>
<path d="M19.9937 3.21732C19.464 3.21732 19.0629 3.56855 18.863 3.99064L15.9608 8.76607C15.7596 9.20772 15.6127 9.70389 15.6127 10.0323C15.6127 10.3258 15.6529 10.5851 15.7606 10.8241L18.9 18.32H6.7088C6.26994 18.32 5.90776 17.8795 5.90776 17.4728V4.56061C5.81551 2.79541 3.2771 2.79636 3.22119 4.61606L3.27665 18.32C3.27665 19.8099 4.42907 21.0035 5.90776 21.0035H22.5293L18.4779 10.6424C18.3661 10.2566 18.3163 9.90677 18.5888 9.44695L21.2692 5.09053C21.307 4.99968 21.3617 4.61556 21.3617 4.50515C21.3086 3.71409 20.6884 3.18238 19.9937 3.21732ZM13.4129 3.22349C12.7609 3.22785 12.1097 3.67801 12.1097 4.56061V13.8003C12.1097 15.142 10.3042 15.0316 10.3042 13.8003V4.56061C10.3042 2.79541 7.69161 2.79541 7.69161 4.56061V13.8742C7.69161 16.0042 9.28293 17.4204 11.1823 17.4204C13.1334 17.4204 14.7192 16.0042 14.7192 13.8742V4.56061C14.7192 3.66054 14.0649 3.21912 13.4129 3.22349Z" fill="white"/>
<path d="M28.2323 3.62927V9.72431C28.2323 11.2477 28.0772 12.0947 26.8361 12.0947C26.6041 12.0947 26.4489 12.0947 26.2169 12.0108V14.6342C26.6809 14.8047 26.9912 14.8047 27.3797 14.8047C30.8682 14.8047 31.0233 12.1799 31.0233 10.6551V6.25401H33.0387V14.6342H35.8284V3.62927H28.2323Z" fill="black"/>
<path d="M36.7594 3.62927L40.5581 11.5873L39.1633 14.6342H42.1864L46.6825 3.62927H43.6595L42.0312 8.28476L40.0927 3.62927H36.7594Z" fill="black"/>
<path d="M47.5348 14.6342H50.3258V9.89342L53.1938 14.6342H56.7591L52.8066 8.9626L56.6822 3.62927H53.3489L50.3258 8.28476V3.62927H47.5348V14.6342Z" fill="black"/>
<path d="M61.3336 14.9745C65.054 14.9745 66.7591 12.0954 66.7591 9.13242C66.7591 6.25471 65.054 3.37561 61.3336 3.37561C57.69 3.37561 55.9849 6.25471 55.9849 9.13242C55.9849 12.0954 57.69 14.9745 61.3336 14.9745ZM61.3336 12.3497C60.0925 12.3497 58.8528 11.2484 58.8528 9.13242C58.8528 7.01642 60.0925 6.00035 61.3336 6.00035C62.6515 6.00035 63.8912 7.01642 63.8912 9.13242C63.8912 11.2484 62.6515 12.3497 61.3336 12.3497Z" fill="black"/>
<path d="M68.1554 3.62959V14.6345H70.8682L74.7438 8.0321V14.6345H77.458V3.62959H74.7438L70.8682 10.2334V3.62959H68.1554ZM72.8836 3.03699C74.0464 3.03699 75.2092 2.61352 75.7529 1.34308L74.1246 0.666626C73.8912 1.51359 73.1938 1.59744 72.8836 1.59744C72.6516 1.59744 71.8759 1.51359 71.7207 0.666626L70.0939 1.34308C70.5579 2.61352 71.799 3.03699 72.8836 3.03699Z" fill="black"/>
<path d="M80.4035 3.62927V9.72431C80.4035 11.2477 80.247 12.0947 79.0073 12.0947C78.7753 12.0947 78.6201 12.0947 78.3867 12.0108V14.6342C78.8521 14.8047 79.1624 14.8047 79.5495 14.8047C83.038 14.8047 83.1931 12.1799 83.1931 10.6551V6.25401H85.2085V14.6342H87.9996V3.62927H80.4035Z" fill="black"/>
<path d="M26.239 20.811H26.6317V18.7691H28.9252V20.811H29.318V16.8082H28.9252V18.4476H26.6317V16.8082H26.239V20.811Z" fill="black"/>
<path d="M30.3176 20.811H32.4686V20.4896H30.7104V18.73H32.3987V18.4085H30.7104V17.1311H32.4686V16.8082H30.3176V20.811Z" fill="black"/>
<path d="M35.0566 20.8106H35.4452V20.26H35.6087C36.9029 20.26 37.4382 19.4941 37.4382 18.6918C37.4382 17.7526 36.7435 17.1307 35.6087 17.1307H35.4452V16.6499H35.0566V17.1307H34.8987C33.7568 17.1307 33.0636 17.7526 33.0636 18.6918C33.0636 19.4941 33.5989 20.26 34.8987 20.26H35.0566V20.8106ZM35.4452 17.4521C36.7435 17.4689 37.0287 18.0755 37.0287 18.6918C37.0287 19.6534 36.3899 19.9036 35.4452 19.9371V17.4521ZM35.0566 19.9371C34.1118 19.9036 33.4731 19.6534 33.4731 18.6918C33.4731 18.0755 33.7568 17.4689 35.0566 17.4521V19.9371Z" fill="black"/>
<path d="M38.8572 20.811H39.2345V17.1311H40.2995V16.8082H37.7936V17.1311H38.8572V20.811Z" fill="black"/>
<path d="M40.7635 20.811H41.2052L42.2702 19.0528H42.6084V20.811H43.0025V16.8082H42.0787C40.867 16.8082 40.6923 17.6119 40.6923 17.9669C40.6923 18.6433 41.222 19.0528 41.8453 19.0304L40.7635 20.811ZM42.6084 18.73H42.041C41.7195 18.73 41.0808 18.6922 41.0808 17.9277C41.0808 17.1856 41.7572 17.1311 42.0787 17.1311H42.6084V18.73Z" fill="black"/>
<path d="M44.0074 20.811H44.4002V18.7691H46.6937V20.811H47.0864V16.8082H46.6937V18.4476H44.4002V16.8082H44.0074V20.811Z" fill="black"/>
<path d="M47.6591 20.8106H48.0532L48.6039 19.5108H50.2908L50.8428 20.8106H51.2356L49.4396 16.7043L47.6591 20.8106ZM48.7464 19.1949L49.4396 17.5569L50.1496 19.1949H48.7464Z" fill="black"/>
<path d="M51.6901 20.811H52.1317L53.1967 19.0528H53.5349V20.811H53.9277V16.8082H53.0052C51.7935 16.8082 51.6188 17.6119 51.6188 17.9669C51.6188 18.6433 52.1485 19.0528 52.7704 19.0304L51.6901 20.811ZM53.5349 18.73H52.9675C52.6446 18.73 52.0059 18.6922 52.0059 17.9277C52.0059 17.1856 52.6838 17.1311 53.0052 17.1311H53.5349V18.73Z" fill="black"/>
<path d="M56.26 20.811H56.6527V18.8725L58.4487 20.811H58.9616L57.0231 18.7467L58.9295 16.8082H58.4487L56.6527 18.6755V16.8082H56.26V20.811Z" fill="black"/>
<path d="M61.4954 20.9363C62.6862 20.9363 63.6631 20.0796 63.6631 18.8176C63.6631 17.5569 62.6862 16.7043 61.4954 16.7043C60.3214 16.7043 59.3445 17.5569 59.3445 18.8176C59.3445 20.0796 60.3214 20.9363 61.4954 20.9363ZM61.4954 20.5981C60.5185 20.5981 59.754 19.8658 59.754 18.8176C59.754 17.7693 60.5185 17.0216 61.4954 17.0216C62.4738 17.0216 63.2536 17.7693 63.2536 18.8176C63.2536 19.8658 62.4738 20.5981 61.4954 20.5981Z" fill="black"/>
<path d="M64.2041 20.8106H64.5815L64.9518 17.8561L66.4263 20.9909L67.884 17.8561L68.2782 20.8106H68.6318L68.0811 16.6499L66.4263 20.2264L64.7548 16.6499L64.2041 20.8106Z" fill="black"/>
<path d="M69.3699 16.8082V20.811H69.7626V17.1311H72.0561V20.811H72.4488V16.8082H69.3699Z" fill="black"/>
<path d="M73.0231 20.8106H73.4158L73.9665 19.5108H75.6548L76.2055 20.8106H76.5982L74.8022 16.7043L73.0231 20.8106ZM74.109 19.1949L74.8022 17.5569L75.5122 19.1949H74.109Z" fill="black"/>
<path d="M77.156 20.811H77.5487V18.7691H79.8422V20.811H80.2364V16.8082H79.8422V18.4476H77.5487V16.8082H77.156V20.811Z" fill="black"/>
<path d="M81.2341 16.8078V20.9909L83.9763 17.6436V20.8106H84.3634V16.6499L81.6283 19.9748V16.8078H81.2341Z" fill="black"/>
<path d="M85.2479 20.811H85.6896L86.7546 19.0528H87.0928V20.811H87.4869V16.8082H86.5645C85.3513 16.8082 85.1766 17.6119 85.1766 17.9669C85.1766 18.6433 85.7063 19.0528 86.3297 19.0304L85.2479 20.811ZM87.0928 18.73H86.5253C86.2039 18.73 85.5652 18.6922 85.5652 17.9277C85.5652 17.1856 86.2416 17.1311 86.5645 17.1311H87.0928V18.73Z" fill="black"/>
</svg>
