<svg width="41" height="41" viewBox="0 0 41 41" fill="none" xmlns="http://www.w3.org/2000/svg">
<g clip-path="url(#clip0_2_2085)">
<path d="M40.6707 32.167C40.53 31.7371 40.1592 31.4243 39.712 31.3594L36.1661 30.8554L34.6147 27.7142C34.2161 26.9031 32.886 26.9031 32.4874 27.7142L30.936 30.8554L27.4692 31.3594C27.3023 31.3836 27.1632 31.4721 27.0255 31.5587C26.8878 31.4721 26.7487 31.3836 26.5817 31.3594L23.115 30.8554L21.5636 27.7142C21.165 26.9031 19.8349 26.9031 19.4362 27.7142L17.8848 30.8554L14.418 31.3594C14.2511 31.3836 14.112 31.4721 13.9743 31.5587C13.8366 31.4721 13.6975 31.3836 13.5305 31.3594L10.0638 30.8554L8.5124 27.7142C8.1138 26.9031 6.78371 26.9031 6.38504 27.7142L4.83362 30.8554L1.28773 31.3594C0.840494 31.4243 0.469666 31.7371 0.329498 32.167C0.190437 32.5958 0.306321 33.0674 0.629609 33.3824L3.13934 35.8284L2.54727 39.3615C2.47078 39.8064 2.6539 40.256 3.01887 40.5213C3.38622 40.7889 3.87056 40.8249 4.26907 40.6117L7.4488 38.9815L10.5494 40.6117C10.9483 40.8217 11.432 40.7884 11.7996 40.5213C12.1646 40.256 12.3477 39.8063 12.2712 39.3615L11.6791 35.8284L13.9745 33.5913L16.2699 35.8284L15.6778 39.3615C15.6013 39.8064 15.7844 40.256 16.1494 40.5213C16.5168 40.7889 17.0011 40.8249 17.3996 40.6117L20.5 38.9816L23.6006 40.6118C23.9995 40.8218 24.4832 40.7885 24.8508 40.5213C25.2158 40.256 25.3989 39.8064 25.3224 39.3616L24.7304 35.8285L27.0257 33.5914L29.3211 35.8285L28.729 39.3616C28.6525 39.8065 28.8356 40.2561 29.2006 40.5213C29.568 40.789 30.0523 40.8249 30.4508 40.6118L33.5514 38.9816L36.7312 40.6118C37.1301 40.8218 37.6137 40.7885 37.9814 40.5213C38.3463 40.256 38.5295 39.8064 38.453 39.3616L37.8609 35.8285L40.3706 33.3825C40.6939 33.0674 40.8098 32.5958 40.6707 32.167Z" fill="#1F50FE"/>
<path fill-rule="evenodd" clip-rule="evenodd" d="M20.5 25.5625C27.4899 25.5625 33.1562 19.8961 33.1562 12.9062C33.1562 5.9164 27.4899 0.25 20.5 0.25C13.5101 0.25 7.84375 5.9164 7.84375 12.9062C7.84375 19.8961 13.5101 25.5625 20.5 25.5625ZM29.2141 12.922C29.2141 16.5217 27.5147 18.7697 24.7106 18.7697C21.9065 18.7697 20.1994 16.5372 20.1994 12.9297C20.1994 9.32999 21.922 7.12071 24.7106 7.12071C27.4993 7.12071 29.2141 9.32227 29.2141 12.922ZM22.5709 12.9297C22.5709 15.4635 23.382 16.9003 24.7106 16.9003C26.0393 16.9003 26.8426 15.4712 26.8426 12.9297C26.8426 10.4115 26.0315 8.9901 24.7106 8.9901C23.3974 8.9901 22.5709 10.4192 22.5709 12.9297ZM17.8433 18.5225H15.5336V9.51539H15.4872L12.6445 11.4775V9.37634L15.5259 7.37563H17.8433V18.5225Z" fill="#1F50FE"/>
</g>
<defs>
<clipPath id="clip0_2_2085">
<rect width="40.5" height="40.5" fill="white" transform="translate(0.25 0.25)"/>
</clipPath>
</defs>
</svg>
