<svg width="39" height="41" viewBox="0 0 39 41" fill="none" xmlns="http://www.w3.org/2000/svg">
<path d="M36.8322 38.0258H25.8445V36.3722C22.1416 32.915 16.7638 27.0041 16.7638 21.9529C16.7638 16.3274 20.6294 11.5882 25.8445 10.2524V1.61211C25.8445 0.860224 25.2343 0.25 24.4824 0.25H1.96221C1.21032 0.25 0.600098 0.860224 0.600098 1.61211V40.75H36.8322C37.5844 40.75 38.1943 40.1401 38.1943 39.3879C38.1943 38.6356 37.5844 38.0258 36.8322 38.0258ZM16.4914 3.15583H18.6707C19.4226 3.15583 20.0328 3.76605 20.0328 4.51794C20.0328 5.26982 19.4226 5.88004 18.6707 5.88004H16.4914C15.7395 5.88004 15.1292 5.26982 15.1292 4.51794C15.1292 3.76605 15.7395 3.15583 16.4914 3.15583ZM9.95324 29.1267H7.77386C7.02198 29.1267 6.41176 28.5165 6.41176 27.7646C6.41176 27.0127 7.02198 26.4025 7.77386 26.4025H9.95324C10.7051 26.4025 11.3153 27.0127 11.3153 27.7646C11.3153 28.5165 10.7051 29.1267 9.95324 29.1267ZM9.95324 23.315H7.77386C7.02198 23.315 6.41176 22.7048 6.41176 21.9529C6.41176 21.201 7.02198 20.5908 7.77386 20.5908H9.95324C10.7051 20.5908 11.3153 21.201 11.3153 21.9529C11.3153 22.7048 10.7051 23.315 9.95324 23.315ZM9.95324 17.5034H7.77386C7.02198 17.5034 6.41176 16.8931 6.41176 16.1413C6.41176 15.3894 7.02198 14.7791 7.77386 14.7791H9.95324C10.7051 14.7791 11.3153 15.3894 11.3153 16.1413C11.3153 16.8931 10.7051 17.5034 9.95324 17.5034ZM9.95324 11.6917H7.77386C7.02198 11.6917 6.41176 11.0815 6.41176 10.3296C6.41176 9.57771 7.02198 8.96749 7.77386 8.96749H9.95324C10.7051 8.96749 11.3153 9.57771 11.3153 10.3296C11.3153 11.0815 10.7051 11.6917 9.95324 11.6917ZM9.95324 5.88004H7.77386C7.02198 5.88004 6.41176 5.26982 6.41176 4.51794C6.41176 3.76605 7.02198 3.15583 7.77386 3.15583H9.95324C10.7051 3.15583 11.3153 3.76605 11.3153 4.51794C11.3153 5.26982 10.7051 5.88004 9.95324 5.88004ZM15.1292 10.3296C15.1292 9.57771 15.7395 8.96749 16.4914 8.96749H18.6707C19.4226 8.96749 20.0328 9.57771 20.0328 10.3296C20.0328 11.0815 19.4226 11.6917 18.6707 11.6917H16.4914C15.7395 11.6917 15.1292 11.0815 15.1292 10.3296Z" fill="#1F50FE"/>
<path fill-rule="evenodd" clip-rule="evenodd" d="M19.4706 21.9726C19.4706 16.8157 23.6668 12.6195 28.8237 12.6195C33.9807 12.6195 38.1769 16.8157 38.1769 21.9726C38.1769 26.0789 32.6621 31.9651 29.7363 34.6076C29.216 35.0752 28.4305 35.0743 27.9111 34.6076C25.0516 32.025 19.4706 26.1026 19.4706 21.9726ZM29.4238 28.6912C29.4238 28.8569 29.5581 28.9912 29.7238 28.9912H30.9343C31.1 28.9912 31.2343 28.8569 31.2343 28.6912V26.8365C31.2343 26.6708 31.3686 26.5365 31.5343 26.5365H32.3765C32.5422 26.5365 32.6765 26.4021 32.6765 26.2365V25.4633C32.6765 25.2976 32.5422 25.1633 32.3765 25.1633H31.5343C31.3686 25.1633 31.2343 25.029 31.2343 24.8633V18.8892C31.2343 18.7235 31.1 18.5892 30.9343 18.5892H29.6467C29.5501 18.5892 29.4594 18.6357 29.4031 18.7142L24.954 24.9085C24.9173 24.9595 24.8976 25.0207 24.8976 25.0835V26.2365C24.8976 26.4021 25.0319 26.5365 25.1976 26.5365H29.1238C29.2895 26.5365 29.4238 26.6708 29.4238 26.8365V28.6912ZM27.3257 25.1633C27.0824 25.1633 26.9403 24.8889 27.0807 24.6902L28.8788 22.1452C29.0477 21.9062 29.4238 22.0257 29.4238 22.3183V24.8633C29.4238 25.029 29.2895 25.1633 29.1238 25.1633H27.3257Z" fill="#1F50FE"/>
</svg>
