<svg width="41" height="41" viewBox="0 0 41 41" fill="none" xmlns="http://www.w3.org/2000/svg">
<g clip-path="url(#clip0_2_2112)">
<path d="M39.0625 37.0375H1.9375C1.006 37.0375 0.25 37.7918 0.25 38.725C0.25 39.6582 1.006 40.4125 1.9375 40.4125H39.0625C39.994 40.4125 40.75 39.6582 40.75 38.725C40.75 37.7918 39.994 37.0375 39.0625 37.0375Z" fill="#1F50FE"/>
<path d="M7 16.7875H12.0963C12.0625 17.0406 12.0625 17.2769 12.0625 17.53V20.1625H7V37.0375H3.625V20.1625C3.625 18.3062 5.14375 16.7875 7 16.7875Z" fill="#1F50FE"/>
<path d="M37.3751 20.1625V37.0375H34.0001V20.1625H28.9376V17.53C28.9376 17.2769 28.9376 17.0406 28.9038 16.7875H34.0001C35.8563 16.7875 37.3751 18.3062 37.3751 20.1625Z" fill="#1F50FE"/>
<path d="M26.575 17.8H14.425C14.0524 17.8 13.75 17.4973 13.75 17.1244V15.5422C13.75 14.6396 14.101 13.791 14.7382 13.1532L16.45 11.4399V7.59983C16.45 5.96893 16.9967 4.35966 17.9903 3.06792L19.9654 0.499296C20.2206 0.166901 20.7808 0.166901 21.036 0.499296L23.011 3.06927C24.0032 4.35966 24.55 5.96893 24.55 7.59983V11.4399L26.2618 13.1532C26.899 13.791 27.25 14.6396 27.25 15.5422V17.1244C27.25 17.4987 26.9476 17.8 26.575 17.8Z" fill="#1F50FE"/>
<path d="M23.875 20.5C23.1285 20.5 22.525 19.8952 22.525 19.15V17.125C22.525 16.3798 23.1285 15.775 23.875 15.775C24.6216 15.775 25.225 16.3798 25.225 17.125V19.15C25.225 19.8966 24.6216 20.5 23.875 20.5Z" fill="#1F50FE"/>
<path d="M17.125 20.5C16.3785 20.5 15.775 19.8952 15.775 19.15V17.125C15.775 16.3798 16.3785 15.775 17.125 15.775C17.8716 15.775 18.475 16.3798 18.475 17.125V19.15C18.475 19.8966 17.8716 20.5 17.125 20.5Z" fill="#1F50FE"/>
<path d="M12.8366 32.8882C14.7543 32.8882 16.0637 31.6831 16.0637 29.9103C16.0637 28.2823 14.9165 27.1062 13.3175 27.1062C12.4659 27.1062 11.7996 27.4596 11.4578 28.0216H11.423L11.6142 25.7331H15.5596V24.3427H10.2411L9.82979 29.1513H11.394C11.6837 28.6705 12.2283 28.3808 12.8598 28.3808C13.7636 28.3808 14.3951 29.0297 14.3951 29.9566C14.3951 30.8662 13.7636 31.5035 12.8482 31.5035C12.0371 31.5035 11.4114 31.0169 11.3129 30.3101H9.69653C9.74868 31.8222 11.0406 32.8882 12.8366 32.8882Z" fill="#1F50FE"/>
<path d="M20.3104 32.8882C22.4134 32.8882 23.688 31.2023 23.688 28.5025C23.688 25.8027 22.4018 24.1515 20.3104 24.1515C18.2189 24.1515 16.9269 25.8085 16.9269 28.5083C16.9269 31.2139 18.2073 32.8882 20.3104 32.8882ZM20.3104 31.4862C19.3139 31.4862 18.7055 30.4085 18.7055 28.5083C18.7055 26.6253 19.3254 25.5535 20.3104 25.5535C21.3011 25.5535 21.9094 26.6196 21.9094 28.5083C21.9094 30.4143 21.3069 31.4862 20.3104 31.4862Z" fill="#1F50FE"/>
<path d="M28.039 32.8882C30.142 32.8882 31.4166 31.2023 31.4166 28.5025C31.4166 25.8027 30.1305 24.1515 28.039 24.1515C25.9475 24.1515 24.6555 25.8085 24.6555 28.5083C24.6555 31.2139 25.9359 32.8882 28.039 32.8882ZM28.039 31.4862C27.0425 31.4862 26.4342 30.4085 26.4342 28.5083C26.4342 26.6253 27.0541 25.5535 28.039 25.5535C29.0297 25.5535 29.638 26.6196 29.638 28.5083C29.638 30.4143 29.0355 31.4862 28.039 31.4862Z" fill="#1F50FE"/>
</g>
<defs>
<clipPath id="clip0_2_2112">
<rect width="40.5" height="40.5" fill="white" transform="translate(0.25 0.25)"/>
</clipPath>
</defs>
</svg>
