<svg width="31" height="11" viewBox="0 0 31 11" fill="none" xmlns="http://www.w3.org/2000/svg">
<g filter="url(#filter0_b_2_2535)">
<path d="M2.29608 4.07935C2.72037 3.50169 3.39515 3.13363 4.15172 3.13363L4.32552 3.13875H4.32041C5.73642 3.13875 6.84061 4.13047 6.84061 5.77652V10.4386H4.57601V6.57399C4.57601 5.73562 4.14149 5.27043 3.45138 5.27043C2.82261 5.27043 2.29608 5.70495 2.29608 6.61999V10.4386H0.0263672V0H2.29608V4.07935ZM15.5054 10.4437H13.3277V9.67184C12.8778 10.2597 12.1775 10.6329 11.3902 10.6329H11.2778H11.2829C9.38636 10.6329 7.98057 8.98172 7.98057 6.8807C7.98057 4.77969 9.38636 3.14386 11.2931 3.14386H11.3902C12.1775 3.14386 12.8829 3.51703 13.3277 4.0998L13.3328 4.10491V3.33811H15.5105V10.4437H15.5054ZM10.281 6.88582C10.281 7.72929 10.9608 8.40918 11.8043 8.40918C12.6478 8.40918 13.3277 7.72929 13.3277 6.88582C13.3277 6.04234 12.6478 5.36245 11.8043 5.36245C10.9608 5.36245 10.281 6.04234 10.281 6.88582ZM24.5842 6.8807C24.5842 8.97661 23.1733 10.6329 21.2768 10.6329L21.1643 10.638C20.3822 10.638 19.687 10.2699 19.2473 9.69228L19.2422 9.68717V10.4489H17.0645V0H19.3291V4.018C19.7739 3.48125 20.4435 3.14386 21.1848 3.14386H21.2921H21.287C23.1733 3.14386 24.5842 4.7848 24.5842 6.8807ZM19.2218 6.8807C19.2218 7.72418 19.9017 8.40407 20.7451 8.40407C21.5886 8.40407 22.2685 7.72418 22.2685 6.8807C22.2685 6.03723 21.5886 5.35734 20.7451 5.35734C19.9017 5.35734 19.2218 6.03723 19.2218 6.8807ZM30.6777 3.25121L30.4834 5.5107C30.146 5.39823 29.7575 5.32667 29.3486 5.32155H29.3434C29.2923 5.31644 29.2361 5.31133 29.1799 5.31133C28.546 5.31133 28.0297 5.82764 28.0297 6.46152C28.0297 6.51264 28.0348 6.55865 28.0399 6.60977V6.60466V10.4489H25.7702V3.34322H27.9479V4.16114C28.3211 3.5477 28.9856 3.14386 29.7473 3.14386L29.8955 3.14897H29.8904H29.8955C30.1767 3.14897 30.4425 3.18986 30.6981 3.26143L30.6777 3.25121Z" fill="white" fill-opacity="0.4"/>
</g>
<defs>
<filter id="filter0_b_2_2535" x="-7.97363" y="-8" width="46.6718" height="26.6379" filterUnits="userSpaceOnUse" color-interpolation-filters="sRGB">
<feFlood flood-opacity="0" result="BackgroundImageFix"/>
<feGaussianBlur in="BackgroundImageFix" stdDeviation="4"/>
<feComposite in2="SourceAlpha" operator="in" result="effect1_backgroundBlur_2_2535"/>
<feBlend mode="normal" in="SourceGraphic" in2="effect1_backgroundBlur_2_2535" result="shape"/>
</filter>
</defs>
</svg>
