<svg width="35" height="34" viewBox="0 0 35 34" fill="none" xmlns="http://www.w3.org/2000/svg">
<g clip-path="url(#clip0_2_2522)" filter="url(#filter0_b_2_2522)">
<path d="M25.6935 0H9.02895C4.4466 0 0.696655 3.74994 0.696655 8.3323V24.9977C0.696655 29.5788 4.4466 33.33 9.02895 33.33H25.6935C30.2759 33.33 34.0258 29.5788 34.0258 24.9977V8.3323C34.0258 3.74994 30.2759 0 25.6935 0ZM31.2483 24.9977C31.2483 28.0598 28.7574 30.5524 25.6935 30.5524H9.02895C5.96643 30.5524 3.47422 28.0598 3.47422 24.9977V8.3323C3.47422 5.26936 5.96643 2.77757 9.02895 2.77757H25.6935C28.7574 2.77757 31.2483 5.26936 31.2483 8.3323V24.9977Z" fill="white" fill-opacity="0.4"/>
<path d="M26.3893 9.72084C27.5398 9.72084 28.4724 8.78821 28.4724 7.63776C28.4724 6.48731 27.5398 5.55469 26.3893 5.55469C25.2389 5.55469 24.3063 6.48731 24.3063 7.63776C24.3063 8.78821 25.2389 9.72084 26.3893 9.72084Z" fill="white" fill-opacity="0.4"/>
<path d="M17.3614 8.33228C12.7586 8.33228 9.02905 12.0622 9.02905 16.6646C9.02905 21.2652 12.7586 24.9977 17.3614 24.9977C21.9628 24.9977 25.6936 21.2652 25.6936 16.6646C25.6936 12.0622 21.9628 8.33228 17.3614 8.33228ZM17.3614 22.2201C14.2938 22.2201 11.8066 19.733 11.8066 16.6646C11.8066 13.5962 14.2938 11.1098 17.3614 11.1098C20.4289 11.1098 22.9161 13.5962 22.9161 16.6646C22.9161 19.733 20.4289 22.2201 17.3614 22.2201Z" fill="white" fill-opacity="0.4"/>
</g>
<defs>
<filter id="filter0_b_2_2522" x="-7.30371" y="-8" width="49.33" height="49.3301" filterUnits="userSpaceOnUse" color-interpolation-filters="sRGB">
<feFlood flood-opacity="0" result="BackgroundImageFix"/>
<feGaussianBlur in="BackgroundImageFix" stdDeviation="4"/>
<feComposite in2="SourceAlpha" operator="in" result="effect1_backgroundBlur_2_2522"/>
<feBlend mode="normal" in="SourceGraphic" in2="effect1_backgroundBlur_2_2522" result="shape"/>
</filter>
<clipPath id="clip0_2_2522">
<rect width="33.33" height="33.33" fill="white" transform="translate(0.696289)"/>
</clipPath>
</defs>
</svg>
