<svg width="213" height="57" viewBox="0 0 213 57" fill="none" xmlns="http://www.w3.org/2000/svg">
<mask id="path-1-inside-1_2_2450" fill="white">
<path fill-rule="evenodd" clip-rule="evenodd" d="M11.4566 30.6495C9.30028 30.6495 7.34551 30.1851 5.59226 29.2563C3.85916 28.3074 2.48881 27.0051 1.48119 25.3494C0.493731 23.6736 0 21.7857 0 19.6858C0 17.586 0.493731 15.7082 1.48119 14.0526C2.48881 12.3767 3.85916 11.0744 5.59226 10.1456C7.34551 9.19666 9.31035 8.72217 11.4868 8.72217C13.3207 8.72217 14.9731 9.04522 16.4443 9.69133C17.9355 10.3374 19.185 11.2662 20.1926 12.4777L17.0488 15.3852C15.618 13.7295 13.8446 12.9017 11.7286 12.9017C10.4187 12.9017 9.2499 13.1945 8.22213 13.78C7.19436 14.3453 6.38827 15.1429 5.80386 16.1726C5.23959 17.2024 4.95746 18.3734 4.95746 19.6858C4.95746 20.9983 5.23959 22.1693 5.80386 23.1991C6.38827 24.2288 7.19436 25.0364 8.22213 25.622C9.2499 26.1873 10.4187 26.47 11.7286 26.47C13.8446 26.47 15.618 25.6321 17.0488 23.9562L20.1926 26.8637C19.185 28.0954 17.9355 29.0343 16.4443 29.6804C14.953 30.3265 13.2904 30.6495 11.4566 30.6495ZM41.0925 26.3489V30.2861H24.7087V9.0856H40.6995V13.0228H29.5754V17.6264H39.3997V21.4425H29.5754V26.3489H41.0925ZM61.5843 30.2861H65.6046V9.0856H60.7681V21.9573L50.2486 9.0856H46.198V30.2861H51.0345V17.4144L61.5843 30.2861ZM76.2032 13.0834H69.4321V9.0856H87.8714V13.0834H81.1002V23.9763H76.2032V13.0834ZM96.6124 9.0856H91.7154V30.2861H96.6124V9.0856ZM112.97 30.6495C110.813 30.6495 108.859 30.1851 107.105 29.2563C105.372 28.3074 104.002 27.0051 102.994 25.3494C102.007 23.6736 101.513 21.7857 101.513 19.6858C101.513 17.586 102.007 15.7082 102.994 14.0526C104.002 12.3767 105.372 11.0744 107.105 10.1456C108.859 9.19666 110.824 8.72217 113 8.72217C114.834 8.72217 116.486 9.04522 117.957 9.69133C119.449 10.3374 120.698 11.2662 121.706 12.4777L118.562 15.3852C117.131 13.7295 115.358 12.9017 113.242 12.9017C111.932 12.9017 110.763 13.1945 109.735 13.78C108.708 14.3453 107.901 15.1429 107.317 16.1726C106.753 17.2024 106.471 18.3734 106.471 19.6858C106.471 20.9983 106.753 22.1693 107.317 23.1991C107.901 24.2288 108.708 25.0364 109.735 25.622C110.763 26.1873 111.932 26.47 113.242 26.47C115.358 26.47 117.131 25.6321 118.562 23.9562L121.706 26.8637C120.698 28.0954 119.449 29.0343 117.957 29.6804C116.466 30.3265 114.804 30.6495 112.97 30.6495ZM186.218 30.2866L182.137 24.3807H181.895H177.633V30.2866H172.736V9.08612H181.895C183.769 9.08612 185.391 9.39907 186.762 10.025C188.152 10.6509 189.22 11.5393 189.966 12.6902C190.712 13.8411 191.084 15.204 191.084 16.7789C191.084 18.3538 190.701 19.7166 189.936 20.8675C189.19 21.9982 188.122 22.8664 186.731 23.4722L191.477 30.2866H186.218ZM186.127 16.7789C186.127 15.5876 185.744 14.679 184.978 14.0531C184.212 13.407 183.094 13.0839 181.623 13.0839H177.633V20.4738H181.623C183.094 20.4738 184.212 20.1507 184.978 19.5046C185.744 18.8585 186.127 17.9499 186.127 16.7789ZM212.557 26.3494V30.2866H196.173V9.08612H212.164V13.0233H201.04V17.6269H210.864V21.443H201.04V26.3494H212.557ZM81.2391 25.2379H76.201V30.2856H81.2391V25.2379Z"/>
</mask>
<path fill-rule="evenodd" clip-rule="evenodd" d="M11.4566 30.6495C9.30028 30.6495 7.34551 30.1851 5.59226 29.2563C3.85916 28.3074 2.48881 27.0051 1.48119 25.3494C0.493731 23.6736 0 21.7857 0 19.6858C0 17.586 0.493731 15.7082 1.48119 14.0526C2.48881 12.3767 3.85916 11.0744 5.59226 10.1456C7.34551 9.19666 9.31035 8.72217 11.4868 8.72217C13.3207 8.72217 14.9731 9.04522 16.4443 9.69133C17.9355 10.3374 19.185 11.2662 20.1926 12.4777L17.0488 15.3852C15.618 13.7295 13.8446 12.9017 11.7286 12.9017C10.4187 12.9017 9.2499 13.1945 8.22213 13.78C7.19436 14.3453 6.38827 15.1429 5.80386 16.1726C5.23959 17.2024 4.95746 18.3734 4.95746 19.6858C4.95746 20.9983 5.23959 22.1693 5.80386 23.1991C6.38827 24.2288 7.19436 25.0364 8.22213 25.622C9.2499 26.1873 10.4187 26.47 11.7286 26.47C13.8446 26.47 15.618 25.6321 17.0488 23.9562L20.1926 26.8637C19.185 28.0954 17.9355 29.0343 16.4443 29.6804C14.953 30.3265 13.2904 30.6495 11.4566 30.6495ZM41.0925 26.3489V30.2861H24.7087V9.0856H40.6995V13.0228H29.5754V17.6264H39.3997V21.4425H29.5754V26.3489H41.0925ZM61.5843 30.2861H65.6046V9.0856H60.7681V21.9573L50.2486 9.0856H46.198V30.2861H51.0345V17.4144L61.5843 30.2861ZM76.2032 13.0834H69.4321V9.0856H87.8714V13.0834H81.1002V23.9763H76.2032V13.0834ZM96.6124 9.0856H91.7154V30.2861H96.6124V9.0856ZM112.97 30.6495C110.813 30.6495 108.859 30.1851 107.105 29.2563C105.372 28.3074 104.002 27.0051 102.994 25.3494C102.007 23.6736 101.513 21.7857 101.513 19.6858C101.513 17.586 102.007 15.7082 102.994 14.0526C104.002 12.3767 105.372 11.0744 107.105 10.1456C108.859 9.19666 110.824 8.72217 113 8.72217C114.834 8.72217 116.486 9.04522 117.957 9.69133C119.449 10.3374 120.698 11.2662 121.706 12.4777L118.562 15.3852C117.131 13.7295 115.358 12.9017 113.242 12.9017C111.932 12.9017 110.763 13.1945 109.735 13.78C108.708 14.3453 107.901 15.1429 107.317 16.1726C106.753 17.2024 106.471 18.3734 106.471 19.6858C106.471 20.9983 106.753 22.1693 107.317 23.1991C107.901 24.2288 108.708 25.0364 109.735 25.622C110.763 26.1873 111.932 26.47 113.242 26.47C115.358 26.47 117.131 25.6321 118.562 23.9562L121.706 26.8637C120.698 28.0954 119.449 29.0343 117.957 29.6804C116.466 30.3265 114.804 30.6495 112.97 30.6495ZM186.218 30.2866L182.137 24.3807H181.895H177.633V30.2866H172.736V9.08612H181.895C183.769 9.08612 185.391 9.39907 186.762 10.025C188.152 10.6509 189.22 11.5393 189.966 12.6902C190.712 13.8411 191.084 15.204 191.084 16.7789C191.084 18.3538 190.701 19.7166 189.936 20.8675C189.19 21.9982 188.122 22.8664 186.731 23.4722L191.477 30.2866H186.218ZM186.127 16.7789C186.127 15.5876 185.744 14.679 184.978 14.0531C184.212 13.407 183.094 13.0839 181.623 13.0839H177.633V20.4738H181.623C183.094 20.4738 184.212 20.1507 184.978 19.5046C185.744 18.8585 186.127 17.9499 186.127 16.7789ZM212.557 26.3494V30.2866H196.173V9.08612H212.164V13.0233H201.04V17.6269H210.864V21.443H201.04V26.3494H212.557ZM81.2391 25.2379H76.201V30.2856H81.2391V25.2379Z" fill="white" stroke="black" stroke-width="2" mask="url(#path-1-inside-1_2_2450)"/>
<path d="M127.546 21.4712C127.804 13.1213 134.513 6.40084 142.844 6.1414V10.7783C137.065 11.033 132.426 15.6823 132.172 21.4712H132.161H127.546ZM142.395 31.7123C137.194 31.4832 133.4 27.6835 133.172 22.4712H137.802C137.9 23.7659 138.378 24.873 139.187 25.6836C139.996 26.4941 141.102 26.9735 142.395 27.071V31.7123ZM143.395 32.7134C149.174 32.4586 153.813 27.8094 154.067 22.0205H158.693C158.435 30.3704 151.726 37.0908 143.395 37.3502V32.7232V32.7134ZM143.844 5.13363V0.505853C155.033 0.768071 164.057 9.80788 164.318 21.0205H159.701H159.693C159.435 12.3688 152.482 5.40093 143.844 5.14114V5.13363Z" fill="#1F50FE" stroke="black"/>
<mask id="path-3-outside-2_2_2450" maskUnits="userSpaceOnUse" x="46.7486" y="44.4067" width="85" height="13" fill="black">
<rect fill="white" x="46.7486" y="44.4067" width="85" height="13"/>
<path d="M52.8102 56C52.0771 56 51.4013 55.8852 50.7829 55.6555C50.1734 55.417 49.639 55.0813 49.1796 54.6485C48.7291 54.2156 48.3758 53.7077 48.1196 53.1247C47.8723 52.5417 47.7486 51.9012 47.7486 51.2034C47.7486 50.5055 47.8723 49.8651 48.1196 49.2821C48.3758 48.6991 48.7335 48.1911 49.1929 47.7583C49.6522 47.3254 50.1911 46.9942 50.8094 46.7645C51.4278 46.526 52.108 46.4067 52.85 46.4067C53.6715 46.4067 54.4091 46.5437 55.0628 46.8175C55.7253 47.0913 56.2818 47.4889 56.7324 48.01L55.3543 49.2821C55.0186 48.9287 54.652 48.6681 54.2545 48.5003C53.857 48.3236 53.4242 48.2353 52.956 48.2353C52.5055 48.2353 52.0947 48.306 51.7237 48.4473C51.3527 48.5886 51.0303 48.7918 50.7564 49.0568C50.4914 49.3218 50.2838 49.6354 50.1337 49.9976C49.9923 50.3598 49.9217 50.7617 49.9217 51.2034C49.9217 51.6362 49.9923 52.0337 50.1337 52.3959C50.2838 52.7581 50.4914 53.0761 50.7564 53.3499C51.0303 53.6149 51.3483 53.8181 51.7105 53.9595C52.0815 54.1008 52.4878 54.1715 52.9295 54.1715C53.3535 54.1715 53.7643 54.1052 54.1618 53.9727C54.5681 53.8314 54.9612 53.5973 55.3411 53.2704L56.5601 54.8207C56.0566 55.2006 55.4691 55.4921 54.7978 55.6953C54.1353 55.8984 53.4728 56 52.8102 56ZM54.599 54.5425V51.0576H56.5601V54.8207L54.599 54.5425Z"/>
<path d="M66.5043 55.841V46.5657H70.5192C71.3495 46.5657 72.065 46.7027 72.6657 46.9765C73.2664 47.2415 73.7302 47.6258 74.057 48.1293C74.3839 48.6328 74.5473 49.2335 74.5473 49.9313C74.5473 50.6204 74.3839 51.2166 74.057 51.7201C73.7302 52.2148 73.2664 52.5947 72.6657 52.8597C72.065 53.1247 71.3495 53.2572 70.5192 53.2572H67.6968L68.6509 52.3164V55.841H66.5043ZM72.4007 55.841L70.0819 52.4754H72.3742L74.7195 55.841H72.4007ZM68.6509 52.5549L67.6968 51.5479H70.3999C71.0624 51.5479 71.5571 51.4065 71.8839 51.1239C72.2108 50.8324 72.3742 50.4349 72.3742 49.9313C72.3742 49.419 72.2108 49.0215 71.8839 48.7388C71.5571 48.4561 71.0624 48.3148 70.3999 48.3148H67.6968L68.6509 47.2945V52.5549Z"/>
<path d="M88.7033 56C87.9701 56 87.29 55.8808 86.6628 55.6423C86.0444 55.4037 85.5056 55.0681 85.0462 54.6352C84.5957 54.2024 84.2424 53.6944 83.9862 53.1114C83.7389 52.5284 83.6152 51.8924 83.6152 51.2034C83.6152 50.5144 83.7389 49.8783 83.9862 49.2953C84.2424 48.7123 84.6001 48.2044 85.0595 47.7715C85.5188 47.3387 86.0577 47.003 86.676 46.7645C87.2944 46.526 87.9657 46.4067 88.6901 46.4067C89.4233 46.4067 90.0946 46.526 90.7041 46.7645C91.3225 47.003 91.8569 47.3387 92.3074 47.7715C92.7668 48.2044 93.1245 48.7123 93.3807 49.2953C93.6369 49.8695 93.765 50.5055 93.765 51.2034C93.765 51.8924 93.6369 52.5328 93.3807 53.1247C93.1245 53.7077 92.7668 54.2156 92.3074 54.6485C91.8569 55.0725 91.3225 55.4037 90.7041 55.6423C90.0946 55.8808 89.4277 56 88.7033 56ZM88.6901 54.1715C89.1053 54.1715 89.4851 54.1008 89.8296 53.9595C90.183 53.8181 90.4921 53.6149 90.7571 53.3499C91.0222 53.0849 91.2253 52.7713 91.3667 52.4092C91.5168 52.047 91.5919 51.6451 91.5919 51.2034C91.5919 50.7617 91.5168 50.3598 91.3667 49.9976C91.2253 49.6354 91.0222 49.3218 90.7571 49.0568C90.501 48.7918 90.1962 48.5886 89.8429 48.4473C89.4895 48.306 89.1053 48.2353 88.6901 48.2353C88.2749 48.2353 87.8906 48.306 87.5373 48.4473C87.1928 48.5886 86.888 48.7918 86.623 49.0568C86.358 49.3218 86.1504 49.6354 86.0003 49.9976C85.8589 50.3598 85.7883 50.7617 85.7883 51.2034C85.7883 51.6362 85.8589 52.0381 86.0003 52.4092C86.1504 52.7713 86.3536 53.0849 86.6098 53.3499C86.8748 53.6149 87.184 53.8181 87.5373 53.9595C87.8906 54.1008 88.2749 54.1715 88.6901 54.1715Z"/>
<path d="M107.449 56C106.133 56 105.104 55.6334 104.362 54.9002C103.62 54.167 103.249 53.1203 103.249 51.7599V46.5657H105.395V51.6804C105.395 52.5637 105.577 53.1998 105.939 53.5884C106.301 53.9771 106.809 54.1715 107.463 54.1715C108.116 54.1715 108.624 53.9771 108.986 53.5884C109.349 53.1998 109.53 52.5637 109.53 51.6804V46.5657H111.65V51.7599C111.65 53.1203 111.279 54.167 110.537 54.9002C109.795 55.6334 108.766 56 107.449 56Z"/>
<path d="M121.721 55.841V46.5657H125.736C126.566 46.5657 127.282 46.7027 127.883 46.9765C128.483 47.2415 128.947 47.6258 129.274 48.1293C129.601 48.6328 129.764 49.2335 129.764 49.9313C129.764 50.6204 129.601 51.2166 129.274 51.7201C128.947 52.2237 128.483 52.6123 127.883 52.8862C127.282 53.1512 126.566 53.2837 125.736 53.2837H122.914L123.868 52.3164V55.841H121.721ZM123.868 52.5549L122.914 51.5346H125.617C126.279 51.5346 126.774 51.3933 127.101 51.1106C127.428 50.8279 127.591 50.4349 127.591 49.9313C127.591 49.419 127.428 49.0215 127.101 48.7388C126.774 48.4561 126.279 48.3148 125.617 48.3148H122.914L123.868 47.2945V52.5549Z"/>
</mask>
<path d="M52.8102 56C52.0771 56 51.4013 55.8852 50.7829 55.6555C50.1734 55.417 49.639 55.0813 49.1796 54.6485C48.7291 54.2156 48.3758 53.7077 48.1196 53.1247C47.8723 52.5417 47.7486 51.9012 47.7486 51.2034C47.7486 50.5055 47.8723 49.8651 48.1196 49.2821C48.3758 48.6991 48.7335 48.1911 49.1929 47.7583C49.6522 47.3254 50.1911 46.9942 50.8094 46.7645C51.4278 46.526 52.108 46.4067 52.85 46.4067C53.6715 46.4067 54.4091 46.5437 55.0628 46.8175C55.7253 47.0913 56.2818 47.4889 56.7324 48.01L55.3543 49.2821C55.0186 48.9287 54.652 48.6681 54.2545 48.5003C53.857 48.3236 53.4242 48.2353 52.956 48.2353C52.5055 48.2353 52.0947 48.306 51.7237 48.4473C51.3527 48.5886 51.0303 48.7918 50.7564 49.0568C50.4914 49.3218 50.2838 49.6354 50.1337 49.9976C49.9923 50.3598 49.9217 50.7617 49.9217 51.2034C49.9217 51.6362 49.9923 52.0337 50.1337 52.3959C50.2838 52.7581 50.4914 53.0761 50.7564 53.3499C51.0303 53.6149 51.3483 53.8181 51.7105 53.9595C52.0815 54.1008 52.4878 54.1715 52.9295 54.1715C53.3535 54.1715 53.7643 54.1052 54.1618 53.9727C54.5681 53.8314 54.9612 53.5973 55.3411 53.2704L56.5601 54.8207C56.0566 55.2006 55.4691 55.4921 54.7978 55.6953C54.1353 55.8984 53.4728 56 52.8102 56ZM54.599 54.5425V51.0576H56.5601V54.8207L54.599 54.5425Z" fill="#1F50FE"/>
<path d="M66.5043 55.841V46.5657H70.5192C71.3495 46.5657 72.065 46.7027 72.6657 46.9765C73.2664 47.2415 73.7302 47.6258 74.057 48.1293C74.3839 48.6328 74.5473 49.2335 74.5473 49.9313C74.5473 50.6204 74.3839 51.2166 74.057 51.7201C73.7302 52.2148 73.2664 52.5947 72.6657 52.8597C72.065 53.1247 71.3495 53.2572 70.5192 53.2572H67.6968L68.6509 52.3164V55.841H66.5043ZM72.4007 55.841L70.0819 52.4754H72.3742L74.7195 55.841H72.4007ZM68.6509 52.5549L67.6968 51.5479H70.3999C71.0624 51.5479 71.5571 51.4065 71.8839 51.1239C72.2108 50.8324 72.3742 50.4349 72.3742 49.9313C72.3742 49.419 72.2108 49.0215 71.8839 48.7388C71.5571 48.4561 71.0624 48.3148 70.3999 48.3148H67.6968L68.6509 47.2945V52.5549Z" fill="#1F50FE"/>
<path d="M88.7033 56C87.9701 56 87.29 55.8808 86.6628 55.6423C86.0444 55.4037 85.5056 55.0681 85.0462 54.6352C84.5957 54.2024 84.2424 53.6944 83.9862 53.1114C83.7389 52.5284 83.6152 51.8924 83.6152 51.2034C83.6152 50.5144 83.7389 49.8783 83.9862 49.2953C84.2424 48.7123 84.6001 48.2044 85.0595 47.7715C85.5188 47.3387 86.0577 47.003 86.676 46.7645C87.2944 46.526 87.9657 46.4067 88.6901 46.4067C89.4233 46.4067 90.0946 46.526 90.7041 46.7645C91.3225 47.003 91.8569 47.3387 92.3074 47.7715C92.7668 48.2044 93.1245 48.7123 93.3807 49.2953C93.6369 49.8695 93.765 50.5055 93.765 51.2034C93.765 51.8924 93.6369 52.5328 93.3807 53.1247C93.1245 53.7077 92.7668 54.2156 92.3074 54.6485C91.8569 55.0725 91.3225 55.4037 90.7041 55.6423C90.0946 55.8808 89.4277 56 88.7033 56ZM88.6901 54.1715C89.1053 54.1715 89.4851 54.1008 89.8296 53.9595C90.183 53.8181 90.4921 53.6149 90.7571 53.3499C91.0222 53.0849 91.2253 52.7713 91.3667 52.4092C91.5168 52.047 91.5919 51.6451 91.5919 51.2034C91.5919 50.7617 91.5168 50.3598 91.3667 49.9976C91.2253 49.6354 91.0222 49.3218 90.7571 49.0568C90.501 48.7918 90.1962 48.5886 89.8429 48.4473C89.4895 48.306 89.1053 48.2353 88.6901 48.2353C88.2749 48.2353 87.8906 48.306 87.5373 48.4473C87.1928 48.5886 86.888 48.7918 86.623 49.0568C86.358 49.3218 86.1504 49.6354 86.0003 49.9976C85.8589 50.3598 85.7883 50.7617 85.7883 51.2034C85.7883 51.6362 85.8589 52.0381 86.0003 52.4092C86.1504 52.7713 86.3536 53.0849 86.6098 53.3499C86.8748 53.6149 87.184 53.8181 87.5373 53.9595C87.8906 54.1008 88.2749 54.1715 88.6901 54.1715Z" fill="#1F50FE"/>
<path d="M107.449 56C106.133 56 105.104 55.6334 104.362 54.9002C103.62 54.167 103.249 53.1203 103.249 51.7599V46.5657H105.395V51.6804C105.395 52.5637 105.577 53.1998 105.939 53.5884C106.301 53.9771 106.809 54.1715 107.463 54.1715C108.116 54.1715 108.624 53.9771 108.986 53.5884C109.349 53.1998 109.53 52.5637 109.53 51.6804V46.5657H111.65V51.7599C111.65 53.1203 111.279 54.167 110.537 54.9002C109.795 55.6334 108.766 56 107.449 56Z" fill="#1F50FE"/>
<path d="M121.721 55.841V46.5657H125.736C126.566 46.5657 127.282 46.7027 127.883 46.9765C128.483 47.2415 128.947 47.6258 129.274 48.1293C129.601 48.6328 129.764 49.2335 129.764 49.9313C129.764 50.6204 129.601 51.2166 129.274 51.7201C128.947 52.2237 128.483 52.6123 127.883 52.8862C127.282 53.1512 126.566 53.2837 125.736 53.2837H122.914L123.868 52.3164V55.841H121.721ZM123.868 52.5549L122.914 51.5346H125.617C126.279 51.5346 126.774 51.3933 127.101 51.1106C127.428 50.8279 127.591 50.4349 127.591 49.9313C127.591 49.419 127.428 49.0215 127.101 48.7388C126.774 48.4561 126.279 48.3148 125.617 48.3148H122.914L123.868 47.2945V52.5549Z" fill="#1F50FE"/>
<path d="M52.8102 56C52.0771 56 51.4013 55.8852 50.7829 55.6555C50.1734 55.417 49.639 55.0813 49.1796 54.6485C48.7291 54.2156 48.3758 53.7077 48.1196 53.1247C47.8723 52.5417 47.7486 51.9012 47.7486 51.2034C47.7486 50.5055 47.8723 49.8651 48.1196 49.2821C48.3758 48.6991 48.7335 48.1911 49.1929 47.7583C49.6522 47.3254 50.1911 46.9942 50.8094 46.7645C51.4278 46.526 52.108 46.4067 52.85 46.4067C53.6715 46.4067 54.4091 46.5437 55.0628 46.8175C55.7253 47.0913 56.2818 47.4889 56.7324 48.01L55.3543 49.2821C55.0186 48.9287 54.652 48.6681 54.2545 48.5003C53.857 48.3236 53.4242 48.2353 52.956 48.2353C52.5055 48.2353 52.0947 48.306 51.7237 48.4473C51.3527 48.5886 51.0303 48.7918 50.7564 49.0568C50.4914 49.3218 50.2838 49.6354 50.1337 49.9976C49.9923 50.3598 49.9217 50.7617 49.9217 51.2034C49.9217 51.6362 49.9923 52.0337 50.1337 52.3959C50.2838 52.7581 50.4914 53.0761 50.7564 53.3499C51.0303 53.6149 51.3483 53.8181 51.7105 53.9595C52.0815 54.1008 52.4878 54.1715 52.9295 54.1715C53.3535 54.1715 53.7643 54.1052 54.1618 53.9727C54.5681 53.8314 54.9612 53.5973 55.3411 53.2704L56.5601 54.8207C56.0566 55.2006 55.4691 55.4921 54.7978 55.6953C54.1353 55.8984 53.4728 56 52.8102 56ZM54.599 54.5425V51.0576H56.5601V54.8207L54.599 54.5425Z" stroke="black" stroke-width="2" mask="url(#path-3-outside-2_2_2450)"/>
<path d="M66.5043 55.841V46.5657H70.5192C71.3495 46.5657 72.065 46.7027 72.6657 46.9765C73.2664 47.2415 73.7302 47.6258 74.057 48.1293C74.3839 48.6328 74.5473 49.2335 74.5473 49.9313C74.5473 50.6204 74.3839 51.2166 74.057 51.7201C73.7302 52.2148 73.2664 52.5947 72.6657 52.8597C72.065 53.1247 71.3495 53.2572 70.5192 53.2572H67.6968L68.6509 52.3164V55.841H66.5043ZM72.4007 55.841L70.0819 52.4754H72.3742L74.7195 55.841H72.4007ZM68.6509 52.5549L67.6968 51.5479H70.3999C71.0624 51.5479 71.5571 51.4065 71.8839 51.1239C72.2108 50.8324 72.3742 50.4349 72.3742 49.9313C72.3742 49.419 72.2108 49.0215 71.8839 48.7388C71.5571 48.4561 71.0624 48.3148 70.3999 48.3148H67.6968L68.6509 47.2945V52.5549Z" stroke="black" stroke-width="2" mask="url(#path-3-outside-2_2_2450)"/>
<path d="M88.7033 56C87.9701 56 87.29 55.8808 86.6628 55.6423C86.0444 55.4037 85.5056 55.0681 85.0462 54.6352C84.5957 54.2024 84.2424 53.6944 83.9862 53.1114C83.7389 52.5284 83.6152 51.8924 83.6152 51.2034C83.6152 50.5144 83.7389 49.8783 83.9862 49.2953C84.2424 48.7123 84.6001 48.2044 85.0595 47.7715C85.5188 47.3387 86.0577 47.003 86.676 46.7645C87.2944 46.526 87.9657 46.4067 88.6901 46.4067C89.4233 46.4067 90.0946 46.526 90.7041 46.7645C91.3225 47.003 91.8569 47.3387 92.3074 47.7715C92.7668 48.2044 93.1245 48.7123 93.3807 49.2953C93.6369 49.8695 93.765 50.5055 93.765 51.2034C93.765 51.8924 93.6369 52.5328 93.3807 53.1247C93.1245 53.7077 92.7668 54.2156 92.3074 54.6485C91.8569 55.0725 91.3225 55.4037 90.7041 55.6423C90.0946 55.8808 89.4277 56 88.7033 56ZM88.6901 54.1715C89.1053 54.1715 89.4851 54.1008 89.8296 53.9595C90.183 53.8181 90.4921 53.6149 90.7571 53.3499C91.0222 53.0849 91.2253 52.7713 91.3667 52.4092C91.5168 52.047 91.5919 51.6451 91.5919 51.2034C91.5919 50.7617 91.5168 50.3598 91.3667 49.9976C91.2253 49.6354 91.0222 49.3218 90.7571 49.0568C90.501 48.7918 90.1962 48.5886 89.8429 48.4473C89.4895 48.306 89.1053 48.2353 88.6901 48.2353C88.2749 48.2353 87.8906 48.306 87.5373 48.4473C87.1928 48.5886 86.888 48.7918 86.623 49.0568C86.358 49.3218 86.1504 49.6354 86.0003 49.9976C85.8589 50.3598 85.7883 50.7617 85.7883 51.2034C85.7883 51.6362 85.8589 52.0381 86.0003 52.4092C86.1504 52.7713 86.3536 53.0849 86.6098 53.3499C86.8748 53.6149 87.184 53.8181 87.5373 53.9595C87.8906 54.1008 88.2749 54.1715 88.6901 54.1715Z" stroke="black" stroke-width="2" mask="url(#path-3-outside-2_2_2450)"/>
<path d="M107.449 56C106.133 56 105.104 55.6334 104.362 54.9002C103.62 54.167 103.249 53.1203 103.249 51.7599V46.5657H105.395V51.6804C105.395 52.5637 105.577 53.1998 105.939 53.5884C106.301 53.9771 106.809 54.1715 107.463 54.1715C108.116 54.1715 108.624 53.9771 108.986 53.5884C109.349 53.1998 109.53 52.5637 109.53 51.6804V46.5657H111.65V51.7599C111.65 53.1203 111.279 54.167 110.537 54.9002C109.795 55.6334 108.766 56 107.449 56Z" stroke="black" stroke-width="2" mask="url(#path-3-outside-2_2_2450)"/>
<path d="M121.721 55.841V46.5657H125.736C126.566 46.5657 127.282 46.7027 127.883 46.9765C128.483 47.2415 128.947 47.6258 129.274 48.1293C129.601 48.6328 129.764 49.2335 129.764 49.9313C129.764 50.6204 129.601 51.2166 129.274 51.7201C128.947 52.2237 128.483 52.6123 127.883 52.8862C127.282 53.1512 126.566 53.2837 125.736 53.2837H122.914L123.868 52.3164V55.841H121.721ZM123.868 52.5549L122.914 51.5346H125.617C126.279 51.5346 126.774 51.3933 127.101 51.1106C127.428 50.8279 127.591 50.4349 127.591 49.9313C127.591 49.419 127.428 49.0215 127.101 48.7388C126.774 48.4561 126.279 48.3148 125.617 48.3148H122.914L123.868 47.2945V52.5549Z" stroke="black" stroke-width="2" mask="url(#path-3-outside-2_2_2450)"/>
</svg>
