<svg width="35" height="31" viewBox="0 0 35 31" fill="none" xmlns="http://www.w3.org/2000/svg">
<g filter="url(#filter0_b_2_2544)">
<path d="M25.5822 0.279964C23.0865 0.950277 21.1272 2.9509 20.4569 5.48778C20.2403 6.30246 20.2403 8.07621 20.4569 8.8909C21.1375 11.469 23.035 13.3872 25.5822 14.0987C27.0775 14.5112 29.274 14.3153 30.5837 13.6553C31.2953 13.284 32.275 12.5312 32.7184 11.995L33.0897 11.5412L32.2234 10.8606C31.7387 10.4893 31.3365 10.18 31.3159 10.18C31.2953 10.18 31.0375 10.3965 30.7487 10.675C28.3769 12.9025 24.6953 12.294 23.3444 9.43746C22.3544 7.34403 22.7772 4.97215 24.4169 3.4459C25.0047 2.89934 25.5409 2.60028 26.3556 2.39403C27.4384 2.11559 28.9337 2.27028 29.8928 2.75496L30.3053 2.96121V4.14715V5.33309H31.4912H32.6772V3.64184V1.94028L32.2956 1.62059C31.8006 1.20809 30.4394 0.54809 29.635 0.331527C29.274 0.228402 28.4594 0.145902 27.6756 0.114964C26.5619 0.0840273 26.2009 0.104652 25.5822 0.279964Z" fill="white" fill-opacity="0.4"/>
<path d="M4.52405 1.51758V2.65195L4.8128 2.66227C4.96749 2.66227 5.44186 2.66227 5.86467 2.66227C6.28749 2.65195 6.69999 2.6932 6.78249 2.74477C6.86499 2.79633 7.84467 5.38477 8.95842 8.49914L10.99 14.1504H12.1037H13.2278L15.3625 8.42695L17.4972 2.70352L18.6419 2.67258L19.7969 2.64164L19.7659 1.5382L19.735 0.434767L17.724 0.403829L15.7131 0.383204L14.0115 5.34352C13.0834 8.06602 12.2894 10.3141 12.2584 10.3348C12.2172 10.3554 11.4231 8.1382 10.4847 5.40539L8.78311 0.434767L6.64842 0.403829L4.52405 0.383204V1.51758Z" fill="white" fill-opacity="0.4"/>
<path d="M5.47283 18.141L5.50377 19.2032L6.61752 19.2342L7.72096 19.2651V23.8438V28.4329H6.58658H5.44189L5.47283 29.5363L5.50377 30.6501L10.7425 30.681L15.971 30.7017V29.5673V28.4329H13.0319H10.0928V25.7207C10.0928 22.7198 10.1547 22.2763 10.7322 21.1935C11.0725 20.5542 11.7531 19.8735 12.3616 19.5642C12.6813 19.3992 13.63 19.1517 13.9291 19.1517C14.0013 19.1517 14.0219 19.4817 13.991 20.1829L13.9394 21.2142H15.115H16.2803V19.1517V17.0892H14.9706C13.4856 17.0892 12.8978 17.2129 11.9697 17.7079C11.3819 18.0173 10.4538 18.8732 10.0825 19.461C9.91752 19.7188 9.90721 19.7085 9.84533 18.9454C9.81439 18.5226 9.77314 17.9348 9.75252 17.6563L9.73189 17.1407L7.58689 17.1098L5.44189 17.0892L5.47283 18.141Z" fill="white" fill-opacity="0.4"/>
<path d="M18.8584 18.2752V19.4612H19.8896H20.9209V23.1015C20.9209 27.0099 20.9518 27.3502 21.4881 28.5155C21.7975 29.1859 22.6225 30.0624 23.2618 30.413C24.1281 30.8874 24.8603 31.0421 26.0153 30.9905C26.8815 30.9596 27.16 30.908 27.6653 30.6709C28.4696 30.2996 29.0471 29.8149 29.5421 29.093L29.9443 28.5052L30.1196 29.5777C30.2125 30.1655 30.295 30.6605 30.295 30.6812C30.3053 30.6915 31.1303 30.6915 32.1409 30.6812L33.9662 30.6502L33.9971 29.5365L34.0281 28.433H33.1103H32.1925L32.1306 26.3396C32.0893 25.1949 32.0584 22.6477 32.0584 20.6677V17.0893H29.6865H27.3146V18.2752V19.4612H28.5006H29.6865V22.2868C29.6865 25.3084 29.6246 25.9168 29.2121 26.7521C28.3975 28.433 26.4071 29.289 24.9118 28.6084C24.2518 28.3093 23.7981 27.7627 23.53 26.948C23.3753 26.4943 23.3546 25.793 23.3134 21.7505L23.2825 17.0893H21.0653H18.8584V18.2752Z" fill="white" fill-opacity="0.4"/>
<path d="M0.78062 28.402C0.749683 28.4432 0.718745 28.9795 0.718745 29.5879L0.69812 30.7017H1.94593H3.19375L3.16281 29.5363L3.13187 28.3813L1.97687 28.3504C1.34781 28.3401 0.801245 28.3607 0.78062 28.402Z" fill="white" fill-opacity="0.4"/>
</g>
<defs>
<filter id="filter0_b_2_2544" x="-7.30188" y="-7.89697" width="49.33" height="46.897" filterUnits="userSpaceOnUse" color-interpolation-filters="sRGB">
<feFlood flood-opacity="0" result="BackgroundImageFix"/>
<feGaussianBlur in="BackgroundImageFix" stdDeviation="4"/>
<feComposite in2="SourceAlpha" operator="in" result="effect1_backgroundBlur_2_2544"/>
<feBlend mode="normal" in="SourceGraphic" in2="effect1_backgroundBlur_2_2544" result="shape"/>
</filter>
</defs>
</svg>
