<svg width="35" height="19" viewBox="0 0 35 19" fill="none" xmlns="http://www.w3.org/2000/svg">
<g filter="url(#filter0_b_2_2507)">
<path fill-rule="evenodd" clip-rule="evenodd" d="M32.7056 14.6645C32.5551 14.5206 32.4155 14.3871 32.2964 14.2656C32.0309 13.9951 31.6985 13.7094 31.3524 13.4119C30.4016 12.5947 29.3476 11.6887 29.2926 10.7643C29.2207 9.54563 30.5962 8.00273 31.5671 6.91353C31.8651 6.57925 32.125 6.2877 32.2933 6.06139C33.523 4.41553 34.6964 0.704526 34.6964 0.704526L27.193 0.65759C27.193 0.65759 24.5208 7.52263 21.3918 9.16223C20.2048 8.37202 20.4319 6.55856 20.6571 4.76016C20.8546 3.18315 21.0506 1.61772 20.2904 0.763977C19.1702 -0.493883 12.2395 -0.155951 11.9829 1.46487C12.7432 1.68703 13.4786 1.91545 13.7852 2.56941C14.5549 4.18398 14.3297 9.00265 13.0874 9.16223C12.4258 9.24629 11.8135 8.36451 11.3748 7.7327C11.3073 7.63546 11.2438 7.54414 11.185 7.46318C11.0775 7.31351 10.9707 7.16724 10.8649 7.02223C10.4528 6.45786 10.0546 5.91258 9.6862 5.26036C9.14176 4.29663 7.086 0.557463 7.086 0.557463L0.677795 0.579366C0.677795 0.579366 2.92442 6.23035 4.47954 8.86185C7.6899 14.2938 11.3289 19.8916 20.3905 18.4648C20.5805 17.9564 20.6532 17.3701 20.7228 16.8089C20.8652 15.6606 20.9945 14.6175 22.0896 14.5629C22.836 14.5294 23.4194 15.237 23.8972 15.8165C24.0003 15.9415 24.0985 16.0606 24.1923 16.1649C24.3928 16.3892 24.5666 16.6052 24.733 16.8122C25.0498 17.206 25.3401 17.567 25.738 17.889C27.0272 18.9247 28.2975 18.8778 30.4409 18.7871C30.8935 18.769 31.3493 18.7827 31.7847 18.7958C33.1553 18.837 34.3229 18.8722 34.5462 17.889C34.8184 16.6853 33.5788 15.4997 32.7056 14.6645Z" fill="white" fill-opacity="0.4"/>
</g>
<defs>
<filter id="filter0_b_2_2507" x="-7.3222" y="-8" width="50.0186" height="34.8308" filterUnits="userSpaceOnUse" color-interpolation-filters="sRGB">
<feFlood flood-opacity="0" result="BackgroundImageFix"/>
<feGaussianBlur in="BackgroundImageFix" stdDeviation="4"/>
<feComposite in2="SourceAlpha" operator="in" result="effect1_backgroundBlur_2_2507"/>
<feBlend mode="normal" in="SourceGraphic" in2="effect1_backgroundBlur_2_2507" result="shape"/>
</filter>
</defs>
</svg>
