<svg width="40" height="38" viewBox="0 0 40 38" fill="none" xmlns="http://www.w3.org/2000/svg">
<path d="M35 0.666656H5C2.25 0.666656 0 2.91666 0 5.66666V32.3333C0 35.0833 2.25 37.3333 5 37.3333H35C37.75 37.3333 40 35.0833 40 32.3333V5.66666C40 2.91666 37.75 0.666656 35 0.666656ZM36.6667 32.3333C36.6667 33.25 35.9167 34 35 34H5C4.08333 34 3.33333 33.25 3.33333 32.3333V8.99999H36.6667V32.3333Z" fill="#1A233B"/>
<path d="M26.963 26.4161C26.5881 26.4161 26.2132 26.2882 25.9055 26.0238C25.2251 25.4387 25.1449 24.4137 25.73 23.7311L28.0725 20.9985L25.7278 18.2638C25.1427 17.5833 25.2229 16.5561 25.9034 15.9711C26.586 15.386 27.611 15.4661 28.1961 16.1466L31.4466 19.9389C31.9688 20.5478 31.9688 21.4449 31.4466 22.056L28.1961 25.8483C27.8753 26.2232 27.4203 26.4161 26.963 26.4161Z" fill="#1A233B"/>
<path d="M12.8774 26.4164C12.4202 26.4164 11.9651 26.2236 11.6422 25.8487L8.39169 22.0564C7.86944 21.4475 7.86944 20.5503 8.39169 19.9392L11.6422 16.1469C12.2251 15.4643 13.2523 15.3863 13.9349 15.9736C14.6154 16.5587 14.6955 17.5837 14.1104 18.2663L11.7679 20.9989L14.1126 23.7337C14.6977 24.4141 14.6175 25.4413 13.9371 26.0264C13.6294 26.2864 13.2523 26.4164 12.8774 26.4164Z" fill="#1A233B"/>
<path d="M17.9309 29.6256C17.0554 29.4241 16.5115 28.5508 16.7108 27.6775L19.9614 13.5919C20.1629 12.7164 21.034 12.1811 21.9095 12.3718C22.785 12.5734 23.3289 13.4467 23.1295 14.32L19.879 28.4056C19.6818 29.2659 18.8258 29.8271 17.9309 29.6256Z" fill="#1A233B"/>
</svg>
