<svg width="40" height="40" viewBox="0 0 40 40" fill="none" xmlns="http://www.w3.org/2000/svg">
<g clip-path="url(#clip0_2_2156)">
<path d="M35 1.66666H5C2.24333 1.66666 0 3.90999 0 6.66666V33.3333C0 36.09 2.24333 38.3333 5 38.3333H35C37.7567 38.3333 40 36.09 40 33.3333V6.66666C40 3.90999 37.7567 1.66666 35 1.66666ZM35 35H5C4.08167 35 3.33333 34.2533 3.33333 33.3333V9.99999H36.6667V33.3333C36.6667 34.2533 35.9183 35 35 35Z" fill="#1A233B"/>
<path d="M32.0833 25H29.5833C27.975 25 26.6667 26.3083 26.6667 27.9167H21.25V18.75H26.88C27.415 20.435 28.975 21.6667 30.8333 21.6667C33.13 21.6667 35 19.7967 35 17.5C35 15.2033 33.13 13.3333 30.8333 13.3333C28.975 13.3333 27.415 14.565 26.88 16.25H13.12C12.585 14.565 11.025 13.3333 9.16667 13.3333C6.87 13.3333 5 15.2033 5 17.5C5 19.7967 6.87 21.6667 9.16667 21.6667C11.025 21.6667 12.585 20.435 13.12 18.75H18.75V27.9167H13.3333C13.3333 26.3083 12.025 25 10.4167 25H7.91667C6.30833 25 5 26.3083 5 27.9167V30.4167C5 32.025 6.30833 33.3333 7.91667 33.3333H10.4167C12.025 33.3333 13.3333 32.025 13.3333 30.4167H26.6667C26.6667 32.025 27.975 33.3333 29.5833 33.3333H32.0833C33.6917 33.3333 35 32.025 35 30.4167V27.9167C35 26.3083 33.6917 25 32.0833 25Z" fill="#1A233B"/>
</g>
<defs>
<clipPath id="clip0_2_2156">
<rect width="40" height="40" fill="white"/>
</clipPath>
</defs>
</svg>
