<svg width="40" height="40" viewBox="0 0 40 40" fill="none" xmlns="http://www.w3.org/2000/svg">
<g clip-path="url(#clip0_2_2165)">
<path d="M35 1.66666H5C2.24333 1.66666 0 3.90999 0 6.66666V33.3333C0 36.09 2.24333 38.3333 5 38.3333H35C37.7567 38.3333 40 36.09 40 33.3333V6.66666C40 3.90999 37.7567 1.66666 35 1.66666ZM35 35H5C4.08167 35 3.33333 34.2533 3.33333 33.3333V9.99999H36.6667V33.3333C36.6667 34.2533 35.9183 35 35 35Z" fill="#1A233B"/>
<path d="M28.3333 23.2833C28.3333 27.8833 24.6 31.6167 20 31.6167C18.15 31.6167 16.4333 31.0167 15.0667 29.9833L20.8833 24.1667C21.1167 23.9333 21.25 23.6167 21.25 23.2833V15.05C25.2667 15.65 28.3333 19.1167 28.3333 23.2833Z" fill="#1A233B"/>
<path d="M18.75 15.05V22.7667L13.3 28.2167C12.2666 26.85 11.6666 25.1333 11.6666 23.2833C11.6666 19.1167 14.7333 15.65 18.75 15.05Z" fill="#1A233B"/>
</g>
<defs>
<clipPath id="clip0_2_2165">
<rect width="40" height="40" fill="white"/>
</clipPath>
</defs>
</svg>
