<svg width="83" height="40" viewBox="0 0 83 40" fill="none" xmlns="http://www.w3.org/2000/svg">
<path d="M42.5583 34.6786C40.9732 34.5729 39.1455 34.295 37.7039 33.8776C37.4339 33.7993 36.3158 33.3883 36.0314 33.2579C31.0127 30.9331 27.5164 25.8583 27.5164 19.9706C27.5164 11.8952 34.0863 5.3175 42.1669 5.3175C50.1758 5.3175 56.7014 11.783 56.8135 19.7671H62.1063C61.9941 8.86599 53.0955 0.031311 42.1669 0.031311C31.1732 0.031311 22.225 8.97427 22.225 19.9706C22.225 27.5516 26.4884 34.145 32.7308 37.5135C33.858 38.1097 35.4757 38.7241 36.0249 38.8924C37.8044 39.4221 39.9883 39.7743 41.9321 39.9217C42.5922 39.9713 44.8974 39.9974 45.5693 40H82.0169V34.7282H45.6306C45.1466 34.7282 43.0319 34.7099 42.5583 34.6786ZM45.6306 26.401C45.2458 26.401 43.2328 26.3879 42.861 26.3566C42.2308 26.3031 41.3176 26.2092 40.7306 26.0748C40.0678 25.8974 39.4456 25.6626 39.1651 25.5086C37.1991 24.4454 35.8592 22.3659 35.8592 19.9706C35.8592 16.4861 38.6811 13.6604 42.1669 13.6604C45.5797 13.6604 48.3546 16.3752 48.4655 19.7671H53.5508C53.4438 13.5703 48.3924 8.57637 42.1669 8.57637C35.8723 8.57637 30.77 13.6773 30.77 19.9706C30.77 24.4089 33.314 28.2417 37.019 30.119C37.5891 30.453 38.6615 30.8026 38.9668 30.8822C40.0131 31.1575 41.4181 31.3454 42.5583 31.4289C42.9797 31.4641 45.0435 31.4797 45.4793 31.4823V31.4902H82.0156V26.401H45.6306ZM18.9635 39.9804H13.6356V5.32925H5.84978V0H18.9635V39.9804ZM0 7.99191V13.1163H5.84978V39.9804H10.969V7.99191H0Z" fill="white"/>
</svg>
