<svg width="78" height="38" viewBox="0 0 78 38" fill="none" xmlns="http://www.w3.org/2000/svg">
<path d="M40.4372 32.8532C38.9411 32.7531 37.2161 32.4898 35.8555 32.0943C35.6006 32.0202 34.5454 31.6309 34.277 31.5073C29.5402 29.3048 26.2403 24.4971 26.2403 18.9193C26.2403 11.269 32.4411 5.03742 40.0678 5.03742C47.6267 5.03742 53.7857 11.1627 53.8915 18.7265H58.8869C58.781 8.39914 50.3823 0.0294456 40.0678 0.0294456C29.6916 0.0294456 21.2462 8.50172 21.2462 18.9193C21.2462 26.1013 25.27 32.3477 31.1618 35.5389C32.2256 36.1037 33.7524 36.6858 34.2708 36.8452C35.9503 37.347 38.0115 37.6807 39.8461 37.8204C40.4692 37.8673 42.6449 37.8921 43.279 37.8945H77.679V32.9002H43.3369C42.8801 32.9002 40.8841 32.8828 40.4372 32.8532ZM43.3369 25.0112C42.9736 25.0112 41.0737 24.9989 40.7228 24.9692C40.1281 24.9185 39.2662 24.8296 38.7121 24.7023C38.0866 24.5342 37.4993 24.3117 37.2346 24.1659C35.379 23.1586 34.1144 21.1885 34.1144 18.9193C34.1144 15.6182 36.7777 12.9412 40.0678 12.9412C43.2888 12.9412 45.9078 15.5131 46.0125 18.7265H50.8121C50.7111 12.8559 45.9435 8.12477 40.0678 8.12477C34.1268 8.12477 29.3112 12.9572 29.3112 18.9193C29.3112 23.124 31.7122 26.7551 35.2091 28.5336C35.7471 28.85 36.7593 29.1812 37.0474 29.2566C38.0349 29.5174 39.361 29.6954 40.4372 29.7745C40.8349 29.8079 42.7828 29.8227 43.194 29.8252V29.8326H77.6777V25.0112H43.3369ZM18.1679 37.876H13.1393V5.04855H5.79091V-0.000217438H18.1679V37.876ZM0.269775 7.57107V12.4258H5.79091V37.876H10.6225V7.57107H0.269775Z" fill="#D01C28"/>
</svg>
