<svg width="88" height="88" viewBox="0 0 88 88" fill="none" xmlns="http://www.w3.org/2000/svg">
<g clip-path="url(#clip0_2_1912)">
<g opacity="0.9">
<path d="M43.9987 68.8675C57.7318 68.8675 68.8675 57.733 68.8675 43.9987C68.8675 30.2657 57.7318 19.1299 43.9987 19.1299C30.2645 19.1299 19.1299 30.2657 19.1299 43.9987C19.1299 57.733 30.2645 68.8675 43.9987 68.8675ZM43.9987 20.0627C57.2189 20.0627 67.9347 30.7786 67.9347 43.9987C67.9347 57.2201 57.2189 67.9359 43.9987 67.9359C30.7774 67.9359 20.0627 57.2201 20.0627 43.9999C20.0627 30.7786 30.7774 20.0627 43.9987 20.0627Z" fill="#1A233B"/>
<path d="M44 0C19.6994 0 0 19.6994 0 44C0 68.3006 19.6994 88 44 88C68.3006 88 88 68.3006 88 44C88 19.6994 68.3006 0 44 0ZM44 86.3506C20.6109 86.3506 1.64937 67.3891 1.64937 44C1.64937 20.6109 20.6109 1.64937 44 1.64937C67.3891 1.64937 86.3506 20.6109 86.3506 44C86.3506 67.3891 67.3891 86.3506 44 86.3506Z" fill="#1A233B"/>
<path d="M45.3854 74.1199C45.1289 74.1273 44.8741 74.1644 44.6261 74.2305L44.7468 76.6556C44.9517 76.6807 45.1629 76.6807 45.3678 76.6556C46.3484 76.6065 46.9267 76.0798 46.8852 75.2451C46.8475 74.487 46.3031 74.0747 45.3854 74.1199ZM52.008 73.1029H51.9854C52.0017 73.602 52.0545 74.2293 52.0571 74.7208V76.5185L53.7894 76.0232L52.8239 74.4958C52.5637 74.0809 52.2569 73.5404 52.008 73.1029ZM64.2237 21.2696C65.4494 22.4061 66.8737 22.4614 68.19 21.0195C69.344 19.7761 69.2296 18.4461 68.0416 17.375C67.8382 17.1821 67.6149 17.0114 67.3753 16.8659L63.7724 20.812C63.9085 20.978 64.0596 21.1312 64.2237 21.2696ZM32.3903 12.623C33.2565 12.315 33.616 11.7015 33.3809 11.0264C33.1459 10.3501 32.5261 10.1326 31.7215 10.3916C31.4554 10.4844 31.1979 10.6005 30.9521 10.7385L31.7039 12.8656L32.3903 12.623Z" fill="#1A233B"/>
<path d="M44 3.18677C21.4594 3.18677 3.18683 21.4593 3.18683 43.9999C3.18683 66.5405 21.4594 84.8105 44 84.8105C66.5405 84.8105 84.8118 66.538 84.8118 43.9974C84.8118 21.4593 66.5405 3.18677 44 3.18677ZM68.8512 16.1957C69.9977 17.2353 70.5521 18.1254 70.7318 19.0959C70.9368 20.1356 70.6527 21.2331 69.6922 22.2966C68.6538 23.4544 67.4922 23.8668 66.4613 23.8253C65.345 23.7725 64.1495 23.1326 62.9677 22.0653C62.4459 21.598 61.9566 21.0957 61.5032 20.5617L66.9076 14.6406C67.5928 15.1083 68.244 15.6275 68.8512 16.1957ZM64.5718 12.9523L63.8415 14.2773L61.0519 12.7348L60.2309 14.2044L62.8609 15.6589L62.133 16.9751L59.5031 15.5206L58.5501 17.2291L61.4881 18.8533L60.7539 20.1808L56.2093 17.6691L60.1656 10.5209L64.5718 12.9523ZM57.7783 9.55797L55.0063 17.2316L53.2739 16.6017L56.0459 8.92437L57.7783 9.55797ZM48.9028 7.21591L53.8007 8.16883L53.5128 9.65477L50.4328 9.05511L50.0871 10.888L52.9559 11.4324L52.6604 12.9221L49.7816 12.3639L49.1618 15.5897L47.3427 15.244L48.9028 7.21591ZM44.5028 6.96951L46.3521 7.03865L46.0479 15.1975L44.1973 15.1321L44.5016 6.96951H44.5028ZM70.7796 43.9999C70.7796 58.7902 58.789 70.7821 43.9987 70.7821C29.2084 70.7821 17.2191 58.7902 17.2191 43.9999C17.2191 29.2096 29.2097 17.2165 44 17.2165C58.7903 17.2165 70.7809 29.2096 70.7809 43.9999H70.7796ZM42.5379 6.87648L42.724 8.419L40.5114 8.68677L41.3034 15.2692L39.4642 15.4904L38.6722 8.92562L36.4923 9.18962L36.3088 7.62197L42.5379 6.87774V6.87648ZM31.0728 9.1846C32.213 8.7798 33.0716 8.66917 33.7756 8.9118C34.3916 9.13682 34.8631 9.6422 35.0504 10.2695C35.1923 10.6888 35.202 11.1416 35.0781 11.5666C34.9542 11.9915 34.7027 12.3682 34.3577 12.6455V12.6807C34.9712 12.7084 35.4489 13.1169 35.8914 13.7581C36.4395 14.5413 37.0354 15.4628 37.278 15.7054L35.4979 16.3365C35.0552 15.8419 34.6627 15.3046 34.3263 14.7324C33.7832 13.8448 33.357 13.6927 32.6467 13.9379L32.1187 14.1227L33.1873 17.1499L31.4549 17.7596L28.8074 10.1627C29.5368 9.7801 30.2941 9.45315 31.0728 9.1846ZM26.2818 11.2639L27.0826 12.5487L24.3735 14.2333L25.266 15.674L27.8205 14.1013L28.6125 15.376L26.0605 16.9764L27.0989 18.6232L29.9338 16.8381L30.7333 18.1267L26.3057 20.8748L22 13.9454L26.2818 11.2639ZM18.4762 16.6822C18.9546 16.1875 19.5321 15.7994 20.1708 15.5432L20.9226 16.8557C20.4298 17.0531 19.9797 17.3472 19.5988 17.7181C18.5592 18.7577 18.348 20.1683 19.5988 21.4707C20.7391 22.6448 22.1521 22.7077 23.3325 21.5612C23.7109 21.1928 24.0189 20.7667 24.2515 20.2965L25.4709 21.135C25.1732 21.7924 24.7441 22.3819 24.21 22.8673C22.186 24.8348 19.9207 24.5984 18.2989 22.9176C16.3592 20.9024 16.7024 18.4045 18.4762 16.6822ZM19.7962 69.8769C20.1633 70.2541 20.5895 70.5671 21.0571 70.8022L20.2123 72.0015C19.5613 71.7029 18.9796 71.2722 18.5039 70.7368C16.5465 68.7065 16.7992 66.4374 18.4762 64.822C20.4826 62.8897 22.9805 63.243 24.7116 65.0231C25.2082 65.5008 25.5916 66.0791 25.8456 66.7203L24.5293 67.4695C24.334 66.9741 24.0416 66.5228 23.6695 66.142C22.6549 65.1036 21.2432 64.8811 19.9169 66.142C18.7088 67.2784 18.6535 68.6927 19.7962 69.8769ZM24.8436 75.695C22.7819 74.4228 22.533 72.1222 23.7524 70.151C25.0347 68.0717 27.324 67.3275 29.3794 68.5921C31.5128 69.9046 31.6963 72.2228 30.5159 74.1361C29.1016 76.4116 26.8777 76.9446 24.8436 75.695ZM39.8728 81.0379L38.1103 80.6142L38.7225 77.5468C38.9173 76.5851 39.1562 75.4209 39.4164 74.2669H39.3812C38.8767 75.2423 38.3358 76.1984 37.7595 77.1332L36.0523 79.9969L34.6657 79.6512L34.5551 76.3739C34.517 75.2824 34.5254 74.1898 34.5802 73.099H34.5551C34.2508 74.16 33.9215 75.3757 33.6273 76.3525L32.7674 79.3395L31.108 78.9409L33.5343 71.1177L35.9228 71.6923L36.0661 74.5309C36.0938 75.5115 36.1039 76.5574 36.0661 77.5304H36.1001C36.5476 76.6643 37.0706 75.6812 37.542 74.859L39.0217 72.434L41.3663 72.9959L39.8728 81.0379ZM48.0568 77.0804C47.4571 77.7039 46.5394 78.0195 45.4507 78.0735C45.241 78.0874 45.0306 78.0874 44.8209 78.0735L44.9667 80.9913L43.1401 81.0819L42.7353 73.0361C43.5524 72.8715 44.3847 72.7709 45.2194 72.7432C46.3559 72.6841 47.1768 72.8639 47.745 73.2687C48.3308 73.7062 48.6879 74.3813 48.7117 75.1129C48.7746 75.8295 48.5357 76.5436 48.0568 77.0804ZM55.616 79.1308L54.4343 77.2878L52.1865 77.9289V80.1038L50.346 80.6318L50.5057 72.0908L52.8377 71.4295L57.5117 78.5877L55.616 79.1308ZM64.2299 74.8766L61.0908 73.104C60.1563 72.5792 59.2495 72.0065 58.3741 71.388L58.349 71.4157C58.9562 72.3095 59.5797 73.2763 60.2762 74.4127L61.5648 76.5084L60.1191 77.3959L55.841 70.4389L57.6815 69.3087L60.6923 70.9719C61.5962 71.4748 62.4649 72.0392 63.2946 72.659L63.3248 72.6389C62.6342 71.7366 61.9946 70.7965 61.4089 69.8229L60.158 67.7888L61.6037 66.8975L65.878 73.8583L64.2299 74.8766ZM69.5162 70.542L67.0899 68.2213L61.825 66.7353L63.2871 65.218L65.2821 65.976C65.8856 66.2048 66.3218 66.3846 66.8448 66.6071V66.5895C66.5978 66.0865 66.3668 65.5759 66.1521 65.0583L65.3073 63.1047L66.748 61.6112L68.342 66.8661L70.7934 69.2295L69.5162 70.542Z" fill="#1A233B"/>
<path d="M28.5686 69.8041C27.505 69.1503 26.2642 69.7789 25.4509 71.1304C24.6362 72.4818 24.6601 73.847 25.7149 74.4945C26.7671 75.1432 28.0079 74.4945 28.8326 73.1619C29.5906 71.911 29.6535 70.4691 28.5686 69.8041ZM26.5094 43.5097C26.2366 43.6575 25.9251 43.7181 25.6168 43.6832H24.9618V45.4155H32.819V43.6832H32.1741C31.8622 43.7204 31.5465 43.6603 31.2702 43.5109C31.1382 43.3965 31.069 43.1011 31.069 42.6334V35.9442C31.069 35.479 31.1357 35.1886 31.2664 35.0742C31.543 34.9221 31.8598 34.8593 32.1741 34.8982H32.819V33.1634H24.9618V34.8957H25.6156C25.9273 34.858 26.2391 34.9209 26.5132 35.0717C26.6452 35.1874 26.7105 35.4778 26.7105 35.9429V42.6322C26.7105 43.0998 26.6452 43.3953 26.5094 43.5097ZM35.4829 39.6716C35.8261 39.8891 36.1969 40.0626 36.5816 40.187C37.087 40.3706 37.8086 40.5969 38.7464 40.8558C39.0356 40.9388 39.4404 41.0444 39.9382 41.1676C41.497 41.5661 42.2765 42.0614 42.2765 42.651C42.2783 42.8392 42.229 43.0243 42.1338 43.1866C42.0386 43.3489 41.901 43.4823 41.7359 43.5725C41.3024 43.826 40.8041 43.9466 40.3027 43.9195C39.382 43.9398 38.4797 43.66 37.7319 43.1225C36.9874 42.5685 36.4387 41.7917 36.1655 40.9049H34.2634V45.4708H36.0725L36.5602 44.7781C37.9391 45.4376 39.4494 45.7763 40.9778 45.7688C42.6901 45.7688 44.0515 45.4017 45.0598 44.6675C45.5403 44.3417 45.9311 43.9002 46.1963 43.3837C46.4615 42.8672 46.5924 42.2923 46.5772 41.7119C46.5971 41.206 46.4956 40.7026 46.281 40.2439C46.0665 39.7852 45.7451 39.3847 45.3439 39.0757C44.5217 38.4308 43.0911 37.8902 41.0545 37.4578C40.8572 37.4163 40.5768 37.3572 40.216 37.2881C38.754 37.0065 38.0223 36.5916 38.0223 36.0473C38.029 35.8567 38.0858 35.6712 38.1868 35.5095C38.2879 35.3477 38.4297 35.2154 38.5981 35.1258C39.0343 34.8618 39.5409 34.731 40.0526 34.7511C40.9078 34.7071 41.7557 34.9298 42.4789 35.3885C43.1125 35.8637 43.5525 36.5526 43.7109 37.3296H45.9322V33.0955H44.0377L43.6908 33.7115C43.027 33.4007 42.3291 33.1687 41.6114 33.0201C40.8555 32.8667 40.0859 32.7909 39.3146 32.7938C37.6967 32.7938 36.3981 33.1709 35.4137 33.9277C34.9442 34.2673 34.5642 34.7159 34.3064 35.2349C34.0487 35.7539 33.9209 36.3278 33.9341 36.9071C33.9177 37.4477 34.0422 37.9808 34.2986 38.4547C34.5966 38.9437 35.0026 39.3598 35.4829 39.6716ZM49.1958 44.0603C50.551 45.2143 52.4178 45.7926 54.7989 45.7926C57.1786 45.7926 59.0631 45.2143 60.4459 44.0603C61.8037 42.9075 62.4825 41.3172 62.4863 39.297C62.4901 37.2768 61.8112 35.6865 60.4497 34.5261C59.0945 33.3721 57.2239 32.7938 54.8366 32.7938C52.4493 32.7938 50.5711 33.3721 49.1996 34.5261C47.8418 35.6802 47.163 37.2705 47.163 39.297C47.163 41.3235 47.8418 42.9087 49.1958 44.0603ZM52.8893 35.7456C53.0757 35.3965 53.3581 35.108 53.7032 34.9142C54.0482 34.7204 54.4415 34.6294 54.8366 34.6518C55.2315 34.6291 55.6246 34.7217 55.9679 34.9184C56.3111 35.115 56.5899 35.4072 56.7701 35.7594C57.1749 36.4973 57.3798 37.679 57.376 39.307C57.376 40.925 57.1749 42.1004 56.7701 42.8245C56.5676 43.1583 56.2825 43.4343 55.9423 43.6259C55.6021 43.8174 55.2182 43.9181 54.8278 43.9181C54.4373 43.9181 54.0535 43.8174 53.7133 43.6259C53.3731 43.4343 53.088 43.1583 52.8855 42.8245C52.4807 42.0929 52.2795 40.9086 52.2795 39.2668C52.2795 37.6237 52.4845 36.4558 52.8956 35.7594L52.8893 35.7456ZM27.6584 47.9134C27.4272 47.905 27.1967 47.9423 26.9799 48.023C26.7632 48.1038 26.5645 48.2265 26.3952 48.3841C26.2259 48.5418 26.0893 48.7312 25.9933 48.9417C25.8973 49.1521 25.8437 49.3794 25.8356 49.6106V49.6458C25.8206 50.0313 25.9593 50.407 26.2212 50.6904C26.4831 50.9737 26.8467 51.1415 27.2322 51.1569H27.3466C27.7037 51.1845 28.0544 51.0563 28.3146 50.8099H28.3373C28.2536 51.1802 28.0319 51.5048 27.7175 51.7175C27.4296 51.8973 27.1015 52.0017 26.7621 52.0155C26.5986 52.0331 26.4352 52.0331 26.2718 52.0155V52.903C26.4428 52.9131 26.6162 52.9131 26.786 52.903C27.461 52.903 28.116 52.6642 28.6327 52.2267C29.221 51.6409 29.529 50.8313 29.4813 49.999C29.4913 48.8663 28.903 47.9134 27.6584 47.9134ZM28.2794 50.0443C28.2107 50.1467 28.1167 50.2297 28.0067 50.2854C27.8966 50.3411 27.7741 50.3676 27.6509 50.3624C27.56 50.3628 27.4699 50.3454 27.3857 50.311C27.3015 50.2767 27.225 50.226 27.1604 50.1621C27.0958 50.0981 27.0445 50.022 27.0094 49.9381C26.9742 49.8543 26.956 49.7643 26.9557 49.6734C26.9557 49.6458 26.9557 49.6181 26.9594 49.5905C26.9594 49.0838 27.236 48.7419 27.6245 48.7419C28.1374 48.7419 28.3159 49.2473 28.3159 49.7602C28.3278 49.8566 28.3148 49.9544 28.2782 50.0443H28.2794ZM30.1639 50.424C30.1639 51.8106 30.7221 52.9181 31.9729 52.9181C33.2238 52.9181 33.8121 51.8797 33.8121 50.3963C33.8121 49.07 33.3068 47.916 32.0106 47.916C30.7158 47.916 30.1639 49.0247 30.1639 50.424ZM32.6832 50.424C32.6832 51.5265 32.4444 52.0771 31.9893 52.0771C31.5367 52.0771 31.2978 51.5491 31.2978 50.4378C31.2978 49.3265 31.5744 48.7859 31.9893 48.7859C32.4054 48.7859 32.6832 49.339 32.6832 50.4101V50.424ZM36.3302 47.916C35.0793 47.916 34.4822 49.0247 34.4822 50.424C34.4822 51.8244 35.0404 52.9181 36.295 52.9181C37.5496 52.9181 38.1304 51.8797 38.1304 50.3963C38.1304 49.07 37.625 47.916 36.3302 47.916ZM36.3302 52.0733C35.8902 52.0733 35.6362 51.5466 35.6362 50.4353C35.6362 49.3227 35.9128 48.7821 36.3302 48.7821C36.745 48.7821 37.0216 49.3503 37.0216 50.4202C37.0216 51.4913 36.7626 52.0633 36.3226 52.0633L36.3302 52.0733ZM39.1977 48.5935L39.3813 49.4421L40.3065 49.0021H40.3191V52.8364H41.4141V47.9964H40.4762L39.1977 48.5935ZM45.0522 50.5044H43.1012V51.2562H45.0522V50.5044ZM47.3842 51.8923L47.8305 51.5177C48.5245 50.8941 49.1204 50.2467 49.1204 49.4396C49.1204 48.5596 48.5169 47.9185 47.4232 47.9185C46.8545 47.9126 46.2986 48.0874 45.8354 48.4175L46.1548 49.2271C46.4489 48.9845 46.8122 48.8462 47.1932 48.8249C47.7513 48.8249 47.9902 49.1404 47.9902 49.5364C47.9902 50.1009 47.4609 50.6439 46.4037 51.5906L45.7801 52.1563V52.8477H49.1958V51.9162H47.3704L47.3842 51.8923ZM51.8647 47.916C50.6138 47.916 50.018 49.0247 50.018 50.424C50.018 51.8244 50.5799 52.9181 51.8295 52.9181C53.0804 52.9181 53.67 51.8797 53.67 50.3963C53.67 49.07 53.1608 47.916 51.8647 47.916ZM51.8647 52.0733C51.4285 52.0733 51.172 51.5466 51.172 50.4353C51.172 49.3227 51.4486 48.7821 51.8647 48.7821C52.2796 48.7821 52.5574 49.3503 52.5574 50.4202C52.5574 51.4913 52.3148 52.0633 51.8584 52.0633L51.8647 52.0733ZM54.7322 48.5935L54.9158 49.4421L55.841 49.0021H55.8549V52.8364H56.9486V47.9964H56.0108L54.7322 48.5935ZM61.5648 50.0091C61.1877 49.7652 60.7439 49.6445 60.2938 49.6621C60.1888 49.6552 60.0834 49.6552 59.9783 49.6621L60.0814 48.9166H61.9595V47.9889H59.2944L58.9738 50.5283C59.1913 50.4969 59.4101 50.4793 59.6275 50.483C60.5981 50.483 60.9928 50.7873 60.9928 51.2876C60.9928 51.7854 60.4937 52.0243 60.0235 52.0243C59.6461 52.0199 59.2736 51.9386 58.9286 51.7854L58.7274 52.634C59.1498 52.8251 59.6112 52.9181 60.0751 52.9081C61.3775 52.9081 62.1544 52.111 62.1544 51.2109C62.1783 50.7357 61.9533 50.2819 61.5635 50.0078L61.5648 50.0091Z" fill="#1A233B"/>
</g>
</g>
<defs>
<clipPath id="clip0_2_1912">
<rect width="88" height="88" fill="white"/>
</clipPath>
</defs>
</svg>
