<svg width="58" height="58" viewBox="0 0 58 58" fill="none" xmlns="http://www.w3.org/2000/svg">
<path d="M57.3144 32.8384H48.8874C48.8874 19.6646 38.2479 8.98502 25.1234 8.98502V0.526367C42.9019 0.526367 57.3144 14.993 57.3144 32.8384ZM25.1234 8.98502V17.4437C16.2807 17.4437 9.11215 24.6391 9.11215 33.5151H0.685181C0.685181 19.9675 11.6266 8.98502 25.1234 8.98502ZM24.4492 57.3685V48.9099C33.292 48.9099 40.4605 41.7145 40.4605 32.8384H48.8874C48.8874 46.3861 37.9461 57.3685 24.4492 57.3685ZM9.11215 33.5151H17.5391C17.5391 37.719 20.26 40.4495 24.4492 40.4495V48.9082C15.6063 48.9082 9.11215 42.391 9.11215 33.5151Z" fill="#1F50FE"/>
</svg>
