<svg width="89" height="88" viewBox="0 0 89 88" fill="none" xmlns="http://www.w3.org/2000/svg">
<g clip-path="url(#clip0_2_1919)">
<g opacity="0.9">
<path d="M44.1988 68.8675C57.9318 68.8675 69.0676 57.733 69.0676 43.9987C69.0676 30.2657 57.9318 19.1299 44.1988 19.1299C30.4645 19.1299 19.33 30.2657 19.33 43.9987C19.33 57.733 30.4645 68.8675 44.1988 68.8675ZM44.1988 20.0627C57.4189 20.0627 68.1348 30.7786 68.1348 43.9987C68.1348 57.2201 57.4189 67.9359 44.1988 67.9359C30.9774 67.9359 20.2628 57.2201 20.2628 43.9999C20.2628 30.7786 30.9774 20.0627 44.1988 20.0627Z" fill="#1A233B"/>
<path d="M44.2 0C19.8994 0 0.200012 19.6994 0.200012 44C0.200012 68.3006 19.8994 88 44.2 88C68.5006 88 88.2 68.3006 88.2 44C88.2 19.6994 68.5006 0 44.2 0ZM44.2 86.3506C20.8109 86.3506 1.84938 67.3891 1.84938 44C1.84938 20.6109 20.8109 1.64937 44.2 1.64937C67.5892 1.64937 86.5507 20.6109 86.5507 44C86.5507 67.3891 67.5892 86.3506 44.2 86.3506Z" fill="#1A233B"/>
<path d="M45.5854 74.1199C45.3288 74.1273 45.074 74.1644 44.826 74.2305L44.9467 76.6556C45.1516 76.6807 45.3628 76.6807 45.5678 76.6556C46.5483 76.6065 47.1266 76.0798 47.0851 75.2451C47.0474 74.487 46.5031 74.0747 45.5854 74.1199ZM52.208 73.1029H52.1854C52.2017 73.602 52.2545 74.2293 52.257 74.7208V76.5185L53.9894 76.0232L53.0239 74.4958C52.7636 74.0809 52.4569 73.5404 52.208 73.1029ZM64.4236 21.2696C65.6494 22.4061 67.0737 22.4614 68.3899 21.0195C69.544 19.7761 69.4296 18.4461 68.2416 17.375C68.0382 17.1821 67.8148 17.0114 67.5753 16.8659L63.9723 20.812C64.1085 20.978 64.2596 21.1312 64.4236 21.2696ZM32.5903 12.623C33.4564 12.315 33.816 11.7015 33.5809 11.0264C33.3458 10.3501 32.726 10.1326 31.9215 10.3916C31.6553 10.4844 31.3979 10.6005 31.1521 10.7385L31.9039 12.8656L32.5903 12.623Z" fill="#1A233B"/>
<path d="M44.2 3.18677C21.6594 3.18677 3.38684 21.4593 3.38684 43.9999C3.38684 66.5405 21.6594 84.8105 44.2 84.8105C66.7406 84.8105 85.0119 66.538 85.0119 43.9974C85.0119 21.4593 66.7406 3.18677 44.2 3.18677ZM70.9796 43.9999C70.9796 58.7902 58.989 70.7821 44.1987 70.7821C29.4084 70.7821 17.4191 58.7902 17.4191 43.9999C17.4191 29.2096 29.4097 17.2165 44.2 17.2165C58.9903 17.2165 70.9809 29.2096 70.9809 43.9999H70.9796Z" fill="#1A233B"/>
</g>
<path d="M47.3487 43.1265C47.3411 43.1189 47.1586 42.9288 46.8431 42.9288C46.6758 42.9288 46.5047 42.9821 46.3336 43.0809C46.3032 43.0961 46.2842 43.1303 46.2918 43.1646C46.2918 43.1722 46.4172 44.0238 46.3222 44.3888C46.25 44.6625 46.018 44.9857 45.596 44.9857C45.5048 44.9857 45.4135 44.9705 45.3147 44.9439H45.3109L45.6302 44.7272C45.653 44.712 45.6683 44.6853 45.6683 44.6549C45.6683 44.6245 45.653 44.6017 45.6302 44.5827L44.9953 44.1455C45.1968 43.9934 45.3223 43.8869 45.3375 43.8717C45.3565 43.8565 45.3679 43.8337 45.3679 43.8109C45.3679 43.7881 45.3603 43.7653 45.3413 43.7463L45.2272 43.6322C45.212 43.617 45.1892 43.6056 45.1664 43.6056C45.1474 43.6056 45.1284 43.6132 45.1132 43.6246C45.1056 43.6284 44.9383 43.7577 44.6835 43.9326L44.4288 43.7577L45.4249 43.0733L45.501 43.271C45.5124 43.3014 45.5428 43.3242 45.577 43.3242C45.577 43.3242 45.577 43.3242 45.5808 43.3242C45.6112 43.3242 45.6416 43.3052 45.6568 43.2786L46.1321 42.4042C46.1473 42.3738 46.1435 42.3395 46.1283 42.3129C46.1131 42.2901 46.0865 42.2749 46.0561 42.2749C46.0523 42.2749 46.0484 42.2749 46.0446 42.2749L45.0637 42.4232C45.0295 42.427 45.0029 42.4498 44.9915 42.484C44.9839 42.5144 44.9915 42.5486 45.0181 42.5715L45.1778 42.7121L44.0448 43.4915L42.9156 42.7121L43.0753 42.5715C43.0981 42.5486 43.1095 42.5144 43.0981 42.484C43.0905 42.4498 43.0639 42.427 43.0297 42.4232L42.0488 42.2749C42.045 42.2749 42.0412 42.2749 42.0374 42.2749C42.007 42.2749 41.9804 42.2863 41.9651 42.3129C41.9461 42.3395 41.9461 42.3738 41.9613 42.4042L42.4328 43.2786C42.448 43.3052 42.4784 43.3242 42.5088 43.3242C42.5126 43.3242 42.5126 43.3242 42.5126 43.3242C42.5468 43.3242 42.5735 43.3014 42.5887 43.271L42.6685 43.0733L43.6646 43.7577L43.4099 43.9326C43.1552 43.7577 42.9879 43.6284 42.9841 43.6246C42.9689 43.6132 42.9498 43.6056 42.9308 43.6056C42.908 43.6056 42.8852 43.6132 42.87 43.6322L42.7559 43.7463C42.7407 43.7615 42.7293 43.7843 42.7293 43.8109C42.7293 43.8337 42.7407 43.8565 42.7598 43.8717C42.7788 43.8869 42.9042 43.9934 43.1057 44.1455L42.4708 44.5827C42.448 44.5979 42.4328 44.6245 42.4328 44.6549C42.4328 44.6853 42.448 44.7082 42.4708 44.7272L42.7902 44.9439C42.7902 44.9439 42.7902 44.9439 42.7864 44.9439C42.6875 44.9705 42.5963 44.9857 42.505 44.9857C42.083 44.9857 41.8473 44.6625 41.775 44.3888C41.68 44.0238 41.8055 43.1722 41.8055 43.1646C41.8093 43.1303 41.7941 43.0961 41.7636 43.0809C41.5887 42.9821 41.4177 42.9288 41.2542 42.9288C40.9348 42.9288 40.7523 43.1151 40.7447 43.1265C40.7295 43.1379 40.7219 43.1608 40.7219 43.176C40.7181 43.2292 40.6192 44.4572 41.1895 45.0808C41.3987 45.3089 41.6762 45.4267 42.007 45.4267C42.064 45.4267 42.1286 45.4267 42.1895 45.4153C42.5126 45.3773 42.8282 45.2899 43.1361 45.1834L43.6646 45.5408L42.4974 46.3316C42.4746 46.3506 42.4594 46.3734 42.4594 46.4038C42.4594 46.4304 42.4708 46.4571 42.4974 46.4761L43.6684 47.2859L42.6685 47.9778L42.5925 47.7839C42.5811 47.7535 42.5506 47.7345 42.5164 47.7307C42.5164 47.7307 42.5164 47.7307 42.5126 47.7307C42.4822 47.7307 42.4518 47.7497 42.4366 47.7763L41.9651 48.6508C41.9499 48.6774 41.9537 48.7154 41.9689 48.7382C41.9842 48.761 42.0108 48.7763 42.0412 48.7763C42.045 48.7763 42.0488 48.7763 42.0526 48.7763L43.0335 48.6318C43.0677 48.628 43.0943 48.6014 43.1019 48.571C43.1133 48.5367 43.1019 48.5025 43.0791 48.4797L42.9156 48.3352L44.0486 47.552L45.1816 48.3352L45.0181 48.4797C44.9915 48.5025 44.9839 48.5367 44.9915 48.571C44.9991 48.6014 45.0295 48.6242 45.0637 48.6318L46.0446 48.7763C46.0484 48.7763 46.0523 48.7763 46.0561 48.7763C46.0827 48.7763 46.1093 48.7649 46.1283 48.7382C46.1473 48.7116 46.1473 48.6774 46.1321 48.6508L45.6568 47.7763C45.6416 47.7497 45.615 47.7307 45.5808 47.7307H45.577C45.539 47.7307 45.5124 47.7535 45.501 47.7839L45.4249 47.9778L44.425 47.2859L45.596 46.4761C45.6188 46.4609 45.634 46.4342 45.634 46.4038C45.634 46.3734 45.6188 46.3506 45.596 46.3316L44.4288 45.5408L44.9573 45.1834C45.2614 45.2937 45.577 45.3773 45.9002 45.4153C45.9648 45.4229 46.0256 45.4267 46.0827 45.4267C46.4172 45.4267 46.691 45.3089 46.9001 45.0808C47.4704 44.4572 47.3715 43.2292 47.3677 43.176C47.3677 43.1608 47.3601 43.1418 47.3487 43.1265ZM44.041 44.0314L44.2919 44.2025C44.2121 44.2519 44.1285 44.3051 44.041 44.3584C43.9536 44.3051 43.8699 44.2557 43.7901 44.2025L44.041 44.0314ZM43.1285 44.6587L43.4745 44.4192C43.543 44.461 43.6114 44.5067 43.6874 44.5561C43.5506 44.6283 43.4137 44.6968 43.2768 44.7614L43.1285 44.6587ZM44.9345 46.4038L44.041 47.0198L43.1514 46.4038L44.041 45.7993L44.9345 46.4038ZM44.041 45.2785L43.6114 44.9857C43.7635 44.9135 43.9041 44.8412 44.041 44.7652C44.1779 44.8412 44.3224 44.9135 44.4744 44.9857L44.041 45.2785ZM44.809 44.7614C44.6721 44.7006 44.5315 44.6321 44.3946 44.5561C44.4706 44.5067 44.5391 44.4648 44.6075 44.4192L44.9573 44.6587L44.809 44.7614Z" fill="#6D6E71"/>
<path d="M47.6491 43.8489C47.6833 43.7805 47.6985 43.6512 47.6985 43.6512L47.6491 43.636V43.8489Z" fill="#6D6E71"/>
<path d="M58.8839 40.8036C58.5189 40.5831 57.9144 40.5071 57.2985 40.5641C58.2604 40.2295 58.9181 39.5147 58.9523 38.876C58.4505 38.7315 57.9296 38.8076 57.4772 38.9102C57.9448 38.5605 58.7128 37.9217 58.6178 36.9826C58.1653 36.8724 57.3365 37.1879 56.9905 37.3438C58.1007 36.7203 58.4999 35.2451 57.9106 34.4087C57.5608 34.614 55.9754 36.2337 55.7169 36.4199C56.5381 35.4809 56.9221 34.8079 57.1426 34.1768C57.4049 33.4886 57.4239 32.2872 56.5723 31.8842C56.1693 32.8043 54.7626 35.1653 53.9794 36.1462C53.8919 36.0702 53.8235 35.9675 53.7132 35.9485C53.5269 36.5454 52.9718 37.34 52.4662 37.7202C52.4396 37.6708 52.3901 37.5339 52.3027 37.3856C51.7666 38.1879 50.3751 39.2866 49.9265 39.9634C49.5767 40.4652 49.5767 40.9177 50.0633 41.3853C50.261 41.583 50.6336 41.929 50.3105 42.4156C49.8694 43.0582 48.9836 43.1342 48.5045 42.754C48.5045 42.64 48.5007 42.5297 48.4969 42.427C49.0634 42.2065 49.1965 41.4347 48.7783 40.9557C48.687 41.1306 48.5349 41.2598 48.3525 41.3245C48.303 41.123 48.2612 41.0279 48.2574 41.0165L48.2346 40.9709H48.1852C48.1814 40.9709 47.9951 40.9595 47.7175 40.9291C48.0331 40.8264 48.2346 40.5337 48.189 40.1421C47.7023 40.5603 47.2157 40.1611 47.1054 40.0508C46.8013 39.6934 46.7138 39.2904 46.8355 38.6745C46.9381 38.1384 47.4932 37.2868 47.8582 37.0131C47.9114 37.0625 47.9951 37.1651 48.1738 37.1499C48.2764 37.1157 48.4475 37.0283 48.5768 36.9788C48.9456 36.8686 49.3029 36.9522 49.5311 37.1005C49.9493 37.3552 49.9113 37.6366 49.8999 37.8419C50.5348 37.4845 50.3143 36.8876 49.4816 36.6671C50.0519 36.6671 50.5196 37.1879 50.6412 37.2526C50.9568 37.4845 51.4092 37.4313 51.6716 37.3058C52.1772 37.0663 52.2799 36.4694 52.143 36.3477C52.0936 36.5606 51.9301 36.7507 51.6373 36.7849C51.2039 36.8344 50.7857 36.6481 50.4549 36.4998C50.1736 36.3819 49.7212 36.2945 49.4132 36.3135C49.9835 35.9979 50.8694 36.0321 51.1849 36.5188C51.375 36.3667 51.4929 36.2298 51.5461 35.9143C51.7096 35.0626 51.0442 34.6254 50.3333 34.6254C50.3523 34.4201 50.2078 34.3175 50.0177 34.3859C50.0177 34.2985 49.9949 34.23 49.9455 34.1958C49.9607 34.1958 49.9835 34.1882 49.9987 34.1882C50.7135 34.1388 51.3902 33.9183 51.7552 33.5343C52.3939 32.8499 51.375 31.9831 51.74 31.3101C52.0898 31.4622 52.3483 31.6599 52.8312 31.7283C52.8806 31.831 52.9262 32.0363 52.9414 32.1465C53.0973 32.9069 52.3483 33.0324 52.5422 33.8422C52.6259 34.211 52.9034 34.3365 52.9946 34.7737C52.9946 34.7737 53.0289 35.0779 52.7627 35.344C53.3786 35.3592 53.7018 34.8383 53.5117 34.3555C53.4281 34.1578 53.2152 33.9715 53.2152 33.7396C53.5307 34.1578 53.8121 34.1426 54.2987 33.9867C54.5192 33.9183 54.5382 34.2262 54.4014 34.4733C54.7359 34.2756 54.8196 33.9525 54.8196 33.808C54.8196 33.4658 54.5535 33.3061 54.2987 33.3746C54.1542 33.3898 53.8653 33.5875 53.8463 33.3061C53.7855 32.8195 54.5535 32.8385 54.3976 32.0553C54.3139 31.6637 53.8767 31.447 53.1962 31.3633C53.1277 31.2949 52.9566 31.1314 52.8654 30.9945C52.4928 30.3748 52.105 30.2113 51.8731 30.3368C51.5993 30.4737 51.4587 30.5915 51.2343 30.7132C51.0556 30.8082 50.8656 30.8577 50.7477 30.9945C50.4511 31.3633 50.7325 31.9336 50.8846 32.2834C50.9872 32.4887 51.2343 32.9564 51.1241 33.3061C51.0024 33.7244 50.3143 33.9867 49.8961 34.0741C49.8694 34.0741 49.8504 34.0817 49.8238 34.0817V33.9183C49.9455 33.7053 50.0481 33.4506 50.1318 33.2187C50.4131 32.4659 49.9949 32.1617 49.3752 32.0173C49.2953 31.9678 49.2117 31.9488 49.109 31.9831H49.09L49.0748 32.1085L48.9912 32.0819L49.0102 31.9298H48.9722C49.0444 31.8804 49.0748 31.793 49.0748 31.7093C49.0748 31.6181 49.0406 31.5458 49.0064 31.4964H49.09L49.0558 31.4622C49.0406 31.428 49.0064 31.3938 48.9532 31.3405C48.938 31.3253 48.9189 31.2911 48.9189 31.2721C48.9342 31.2873 48.9532 31.3063 48.9874 31.3215C49.0216 31.3557 49.071 31.3899 49.09 31.4242L49.1395 31.4584V30.7702L49.09 30.8121C49.0748 30.8273 49.0216 30.8615 48.9874 30.8995C48.9532 30.9337 48.938 30.9337 48.9189 30.9489C48.9189 30.9337 48.9342 30.9147 48.9532 30.8805C49.0064 30.8463 49.0406 30.7968 49.0558 30.7702L49.09 30.717H48.3905L48.4247 30.7702C48.4589 30.793 48.5007 30.8463 48.5349 30.8805C48.5502 30.9147 48.5692 30.9337 48.5844 30.9489C48.5654 30.9337 48.5349 30.9337 48.5159 30.8995C48.4551 30.8653 48.4247 30.8311 48.3905 30.8121L48.3639 30.7702V31.4698L48.3981 31.4356C48.4323 31.4014 48.4665 31.3671 48.5235 31.3329C48.5426 31.3177 48.573 31.2987 48.592 31.2835C48.573 31.2987 48.5578 31.3329 48.5426 31.3519C48.5083 31.4052 48.4627 31.4356 48.4323 31.4736L48.3981 31.5078H48.5083C48.4475 31.5572 48.4323 31.6295 48.4323 31.7207C48.4323 31.8044 48.4665 31.8918 48.5235 31.9412H48.5083L48.5235 32.0933L48.4323 32.1199L48.4133 31.9945H48.3981C48.2954 31.9602 48.2118 31.9793 48.1433 32.0287C47.5122 32.1732 47.094 32.4811 47.3753 33.2301C47.4628 33.462 47.5654 33.7168 47.6909 33.9297V34.0399C47.0598 33.8346 45.923 33.1427 45.6188 32.7244C45.5846 32.6826 45.558 32.6484 45.5428 32.6218H45.539L45.5504 32.1694C45.7709 31.8006 45.9686 31.3481 46.1207 30.9337C46.5199 29.8502 45.9306 29.3977 44.9953 29.2114C44.9003 29.143 44.7824 29.1088 44.6265 29.162L44.5923 29.3331L44.3946 29.3179L44.4098 29.0974C44.3832 29.105 44.349 29.105 44.3148 29.105C44.4478 29.0365 44.5429 28.8731 44.5429 28.7058C44.5429 28.5841 44.4821 28.4396 44.3794 28.3712H44.5429C44.4478 28.2875 44.2958 28.1089 44.2653 27.9872C44.3832 28.0214 44.5619 28.1811 44.6455 28.2685V27.3827C44.5619 27.4511 44.3832 27.6222 44.2653 27.6374C44.2958 27.5386 44.4478 27.3675 44.5429 27.28H43.657C43.7255 27.3675 43.8966 27.5386 43.9118 27.6374C43.8091 27.6222 43.638 27.4511 43.543 27.3827V28.2685C43.638 28.1811 43.8053 28.0214 43.9118 27.9872C43.8966 28.1051 43.7255 28.2837 43.657 28.3712H43.8091C43.7065 28.4396 43.657 28.5841 43.657 28.7058C43.657 28.8731 43.7407 29.0403 43.8775 29.105C43.8433 29.105 43.8091 29.105 43.7559 29.0898L43.7749 29.3103L43.5772 29.3255L43.5582 29.1544C43.4061 29.105 43.2882 29.1392 43.1856 29.2038C42.2579 29.3939 41.6686 29.8426 42.0678 30.9261C42.2047 31.3405 42.4024 31.7968 42.6381 32.1617V32.6294C42.6229 32.6446 42.6039 32.6788 42.5697 32.713C42.2731 33.1312 41.1287 33.8232 40.4976 34.0285V33.9183C40.6231 33.7053 40.7295 33.4506 40.8132 33.2187C41.0945 32.4659 40.6763 32.1617 40.0452 32.0173C39.9729 31.9678 39.8931 31.9488 39.7904 31.9831H39.7752L39.7562 32.1085L39.6726 32.0819L39.6878 31.9298H39.6726C39.722 31.8804 39.7562 31.793 39.7562 31.7093C39.7562 31.6181 39.741 31.5458 39.6878 31.4964H39.7904L39.7562 31.4622C39.722 31.428 39.6878 31.3938 39.6536 31.3405C39.6384 31.3253 39.6117 31.2911 39.5927 31.2721C39.6117 31.2873 39.6536 31.3063 39.6688 31.3215C39.7182 31.3557 39.7524 31.3899 39.7904 31.4242L39.8247 31.4584V30.7702L39.7904 30.8121C39.7562 30.8273 39.722 30.8615 39.6688 30.8995C39.6536 30.9337 39.6117 30.9337 39.5927 30.9489C39.6117 30.9337 39.6346 30.9147 39.6536 30.8805C39.6878 30.8463 39.722 30.7968 39.7562 30.7702L39.7904 30.717H39.0909L39.1251 30.7702C39.1403 30.793 39.1859 30.8463 39.2201 30.8805C39.2544 30.9147 39.2696 30.9337 39.2696 30.9489C39.2582 30.9299 39.2392 30.9299 39.2087 30.8957C39.1669 30.8615 39.1137 30.8273 39.0985 30.8082L39.0453 30.7664V31.466L39.0985 31.4318C39.1137 31.3976 39.1669 31.3633 39.2087 31.3291C39.243 31.3139 39.2582 31.2949 39.2734 31.2797C39.2734 31.2949 39.2582 31.3291 39.2239 31.3481C39.1897 31.4014 39.1441 31.4318 39.1289 31.4698L39.0947 31.504H39.1859C39.1441 31.5534 39.1061 31.6257 39.1061 31.7169C39.1061 31.8006 39.1403 31.888 39.2201 31.9374H39.1859L39.2049 32.0895L39.1099 32.1161L39.0947 31.9907H39.0757C38.973 31.9564 38.8894 31.9755 38.8209 32.0249C38.1898 32.1694 37.7716 32.4773 38.0529 33.2263C38.1404 33.4582 38.243 33.7129 38.3685 33.9259V34.0893C38.3419 34.0893 38.3191 34.0817 38.3001 34.0817C37.8819 33.9943 37.1823 33.732 37.0644 33.3137C36.9542 32.964 37.2013 32.4963 37.304 32.291C37.4674 31.9412 37.7412 31.3709 37.4522 31.0021C37.323 30.8653 37.1367 30.8159 36.9542 30.7208C36.7337 30.6029 36.5968 30.4813 36.3154 30.3444C36.0911 30.2189 35.7109 30.3786 35.3231 31.0021C35.2395 31.139 35.0608 31.2987 34.9886 31.3709C34.3156 31.4546 33.8822 31.6675 33.7871 32.0629C33.6313 32.8461 34.3993 32.8309 34.3498 33.3137C34.3308 33.5951 34.0343 33.3974 33.8974 33.3822C33.6313 33.3137 33.3689 33.4734 33.3689 33.8156C33.3689 33.9601 33.464 34.2832 33.7871 34.4809C33.6503 34.2338 33.6655 33.9259 33.8974 33.9943C34.384 34.1502 34.654 34.1654 34.9733 33.7472C34.9733 33.9753 34.768 34.1654 34.6768 34.3631C34.4867 34.8497 34.8023 35.3668 35.4258 35.3516C35.1444 35.0855 35.2015 34.7813 35.2015 34.7813C35.2889 34.3441 35.5627 34.2186 35.6539 33.8498C35.844 33.04 35.0912 32.9145 35.2547 32.1541C35.2699 32.0439 35.3041 31.8386 35.3573 31.7359C35.844 31.6675 36.1101 31.4736 36.4485 31.3177C36.7983 31.9907 35.7908 32.8575 36.4333 33.5419C36.8021 33.9259 37.4826 34.1464 38.1898 34.1958C38.205 34.1958 38.2278 34.2034 38.2468 34.2072C38.1974 34.2414 38.1708 34.3061 38.1708 34.3935C37.9845 34.3251 37.84 34.4277 37.8666 34.633C37.1329 34.633 36.4865 35.0702 36.6462 35.9219C36.6956 36.2375 36.8173 36.3743 37.015 36.5264C37.323 36.0397 38.2088 36.0055 38.7867 36.3211C38.4712 36.3021 38.0187 36.3895 37.7412 36.5074C37.4142 36.6519 36.9998 36.842 36.5664 36.7925C36.266 36.7583 36.1139 36.572 36.0531 36.3553C35.9162 36.477 36.0189 37.0701 36.5284 37.3134C36.7831 37.4389 37.2355 37.4921 37.5511 37.2602C37.6727 37.1917 38.1404 36.6747 38.7145 36.6747C37.8857 36.8952 37.6537 37.4921 38.3039 37.8495C38.2773 37.6442 38.2468 37.3628 38.6613 37.1081C38.8932 36.9636 39.2582 36.8762 39.6193 36.9864C39.7448 37.0359 39.9159 37.1233 40.0186 37.1575C40.1972 37.1727 40.2809 37.0701 40.3341 37.0207C40.7029 37.2944 41.239 38.146 41.3568 38.6821C41.4861 39.298 41.3911 39.6972 41.0831 40.0584C40.9804 40.1687 40.4862 40.5679 40.0033 40.1497C39.9577 40.5413 40.1592 40.8302 40.4748 40.9367C40.1934 40.9671 40.0033 40.9785 39.9995 40.9785H39.9501L39.9311 41.0241C39.9273 41.0317 39.8855 41.1306 39.8323 41.3283C39.6574 41.2598 39.5053 41.1344 39.414 40.9595C38.9958 41.4385 39.1251 42.2065 39.6878 42.427C39.684 42.5335 39.6802 42.6438 39.6802 42.7616C39.1973 43.1342 38.3229 43.0544 37.8895 42.4156C37.5549 41.929 37.9389 41.5792 38.129 41.3853C38.6156 40.9177 38.6156 40.4652 38.262 39.9634C37.8096 39.2904 36.4219 38.1879 35.8858 37.3856C35.7984 37.5301 35.7489 37.667 35.7299 37.7202C35.2281 37.34 34.6654 36.5454 34.4791 35.9485C34.3764 35.9637 34.3004 36.0702 34.213 36.1462C33.4374 35.1653 32.023 32.8043 31.6238 31.8842C30.7798 32.2872 30.795 33.4886 31.0535 34.1768C31.2816 34.8079 31.6656 35.4809 32.4755 36.4199C32.2207 36.2298 30.6353 34.614 30.2855 34.4087C29.7 35.2451 30.0992 36.7203 31.2056 37.3438C30.8672 37.1879 30.0308 36.8724 29.5784 36.9826C29.4947 37.9217 30.2513 38.5605 30.719 38.9102C30.2627 38.8076 29.7418 38.7315 29.24 38.876C29.2742 39.5147 29.9396 40.2333 30.8748 40.5641C30.2779 40.5033 29.6734 40.5831 29.3046 40.8036C29.3731 41.469 30.1258 42.043 31.0269 42.1799C30.4224 42.2484 29.8863 42.5145 29.605 42.8795C29.9357 43.3129 30.4224 43.6475 31.1638 43.6323C30.9927 43.6931 30.795 43.811 30.6277 43.9706C30.6087 43.9554 30.5745 43.9364 30.5441 43.9364C30.506 43.9516 30.4946 44.0049 30.506 44.0391C30.506 44.0391 30.506 44.0391 30.506 44.0657C30.4338 44.1151 30.3958 44.1759 30.3882 44.2368C30.3197 44.3356 30.2475 44.4497 30.2095 44.5523C30.2285 44.5599 30.2437 44.579 30.2589 44.5866C30.2551 44.6398 30.2703 44.7044 30.3121 44.7691C30.2779 44.8033 30.2627 44.8527 30.2437 44.9059L29.8103 44.731C29.7875 45.1264 29.8749 45.4496 30.0726 45.6511C30.2285 45.8298 30.4072 45.8032 30.354 45.864L30.8254 46.153C30.9091 46.3317 31.0801 46.3317 31.198 46.2822C31.198 46.2822 31.198 46.2974 31.198 46.3165C31.198 46.5027 31.3273 46.6548 31.4946 46.7157C31.4603 46.8715 31.5288 46.9704 31.7417 47.0426L33.5134 51.3388C33.445 51.5441 33.5134 51.7228 33.6693 51.7913C33.6313 51.8407 33.6008 51.8939 33.6008 51.9966C33.6693 51.9472 33.7719 51.9281 33.8214 52.0726C33.8556 52.1753 33.6693 52.506 33.9506 52.7304C33.9126 52.9281 34.0191 53.1296 34.2206 53.217C34.2206 53.3197 34.3156 53.6504 34.3308 53.7683C34.2054 53.947 33.9126 54.2207 33.9506 54.5211C33.9848 54.734 34.0685 54.8024 34.2396 54.8557C34.1711 55.2397 34.384 55.4107 34.7072 55.4298C34.7072 55.7111 34.9695 55.8099 35.1406 55.829C35.3041 55.9506 35.3726 56 35.5589 56.0951C35.3878 56.2966 35.5094 56.5627 35.8212 56.6502C35.8554 56.768 35.9428 56.8707 36.1177 56.9125C36.2204 57.0836 36.4067 57.0836 36.5169 57.0342C36.5854 57 36.707 56.8023 36.6006 56.6312C36.669 56.5475 36.6348 56.384 36.5854 56.2814C36.688 56.0951 36.6006 55.8632 36.4599 55.7947C36.4789 55.6921 36.4257 55.5286 36.3915 55.4298C36.6386 55.2739 36.9466 55.08 37.0568 55.0115C37.6613 54.5781 38.3457 54.1903 39.1213 54.1409C39.319 54.1219 39.684 54.1067 39.8893 54.1219C40.2048 54.1561 40.6383 54.2511 40.893 54.0534C40.9728 54.004 41.0223 53.9166 41.0071 53.8329C40.9728 53.6352 40.7599 53.4641 40.6915 53.2893C40.6725 53.236 40.6421 53.1562 40.6079 53.0839C40.8284 53.122 41.0337 53.0915 41.1591 53.0307C41.296 52.9813 41.6268 52.7342 41.6116 52.3654C41.3454 52.4908 40.7067 52.6619 40.6383 52.0156C40.5698 51.4453 41.0717 50.9586 41.8587 51.1716C42.3948 51.3084 43.178 52.449 42.4632 52.9471C42.1134 53.1866 41.5774 53.4147 41.6458 54.0382C41.8739 53.7569 42.1819 53.62 42.5811 53.6542C41.9956 54.0877 41.5431 54.1409 40.9272 54.4717C40.3911 54.7872 39.9919 55.3081 39.5699 55.3233C39.2468 55.3385 39.0681 54.9545 39.3836 54.658C39.0681 54.5895 38.6498 54.8366 38.532 55.1674C38.3799 55.6199 38.4978 55.943 38.7791 56.1255C38.3989 56.3308 38.1138 56.73 38.2506 57.3003C38.3799 57.768 38.8475 57.768 38.6689 58.3649C38.9312 58.2964 39.1023 58.1177 39.1783 57.863C39.2125 57.6843 39.2468 57.498 39.3342 57.4106C39.2962 57.768 39.5015 58.2964 39.9919 58.536C40.3227 58.6994 40.8436 58.7641 41.2428 58.3497C41.4063 58.8173 41.9576 59.2203 42.5316 59.2013C42.794 59.2013 43.0525 59.0872 43.2464 58.9732C43.3833 59.3192 43.7331 59.6727 44.079 59.84C44.4364 59.6727 44.7862 59.3192 44.9307 58.9732C45.1208 59.091 45.3831 59.2013 45.6379 59.2013C46.1891 59.2165 46.7708 58.8173 46.9267 58.3497C47.3259 58.7641 47.8468 58.6994 48.1776 58.536C48.6642 58.2964 48.8695 57.768 48.8353 57.4106C48.9265 57.498 48.9608 57.6843 48.9988 57.863C49.0672 58.1177 49.2345 58.2964 49.5006 58.3649C49.322 57.768 49.801 57.768 49.9189 57.3003C50.0557 56.73 49.7744 56.327 49.398 56.1255C49.6717 55.9468 49.801 55.6237 49.6375 55.1674C49.5197 54.8366 49.1014 54.5895 48.7859 54.658C49.1014 54.9545 48.9304 55.3385 48.5996 55.3233C48.1814 55.3081 47.7822 54.7834 47.2423 54.4717C46.6302 54.1371 46.1777 54.0877 45.5884 53.6542C45.9876 53.62 46.3032 53.7569 46.5237 54.0382C46.5921 53.4147 46.0561 53.1866 45.7063 52.9471C44.9991 52.449 45.7747 51.3084 46.3222 51.1716C47.0978 50.9586 47.6111 51.4453 47.5312 52.0156C47.4476 52.6657 46.8241 52.4946 46.5427 52.3654C46.5427 52.7304 46.8735 52.9775 47.0104 53.0307C47.17 53.1068 47.4666 53.1486 47.7289 53.0345C47.7213 53.0992 47.7099 53.1676 47.7099 53.1866C47.6567 53.7417 47.3601 53.7911 47.4628 54.0192C47.6073 54.1903 48.5616 54.1561 48.8201 54.2093C49.2725 54.2702 49.6565 54.4374 50.09 54.5249C50.5766 54.6275 51.0937 54.6275 51.5309 54.8062C51.8122 54.9279 52.1278 55.156 52.4015 55.2929C52.8198 55.3613 52.7513 55.5324 53.0175 55.5324C53.257 55.5324 53.3482 55.3271 53.6562 55.2435C53.8691 55.194 54.1086 55.2777 54.3215 55.2092C54.4774 55.175 54.5459 55.0153 54.6903 54.9279C54.8614 54.8252 55.1009 54.8252 55.2606 54.677C55.3443 54.6009 55.3633 54.4565 55.3481 54.3538L55.3519 54.3766C55.6788 54.1485 55.926 53.8139 56.0628 53.4299C56.1465 53.4147 56.2149 53.3387 56.2149 53.2512C56.2149 53.236 56.2149 53.217 56.2149 53.217C56.2986 53.1486 56.3518 53.0459 56.3518 52.9433C56.3518 52.814 56.3024 52.7114 56.2149 52.6277C56.2149 52.6277 56.2149 52.6087 56.2149 52.5935C56.2149 52.5251 56.1807 52.4756 56.1465 52.43C56.0096 51.6886 55.4469 51.0917 54.7207 50.9054C54.7207 50.8864 54.7207 50.8864 54.7207 50.8712H54.7055C54.7055 50.837 54.6903 50.818 54.6637 50.818C54.5611 50.7153 54.4394 50.5556 54.4242 50.453C54.542 50.4872 54.7397 50.6735 54.8424 50.7495V49.7686C54.7397 49.8447 54.5458 50.031 54.4242 50.0652C54.4394 49.9435 54.6257 49.7306 54.7207 49.647H53.7246C53.8159 49.7306 54.006 49.9435 54.0212 50.0652C53.9033 50.031 53.7056 49.8447 53.6068 49.7686V50.7495C53.7094 50.6735 53.9033 50.4872 54.0212 50.453C54.006 50.5746 53.8159 50.7876 53.7246 50.8712L53.7588 50.8864C53.0175 51.0575 52.4206 51.6734 52.2837 52.43C52.2343 52.4718 52.2 52.5251 52.2 52.5935C52.2 52.6087 52.2 52.6277 52.2 52.6277C52.1126 52.7114 52.0632 52.814 52.0632 52.9433C52.0632 53.0421 52.1126 53.1486 52.2 53.217C52.2 53.217 52.2 53.2322 52.2 53.2512C52.2 53.3615 52.2685 53.4147 52.3521 53.4299C52.3863 53.525 52.4282 53.62 52.4738 53.7037C52.4738 53.6961 52.4738 53.6961 52.4852 53.6847C52.4244 53.966 52.0822 54.1371 52.0061 54.1371C51.3978 54.2245 50.7249 53.966 50.1128 53.7379C49.8428 53.6352 49.474 53.5174 49.2953 53.2512C49.1851 53.0573 49.1357 52.9357 49.1927 52.7646C49.2611 52.8482 49.3714 52.9433 49.5273 53.0269C49.5425 52.9433 49.5425 52.8482 49.5767 52.7798C49.7326 53.0117 49.9797 53.1296 50.2762 53.1144C50.0976 52.9623 50.0139 52.5593 50.0976 52.2095C50.3447 52.6277 51.2838 52.7114 51.4549 51.9624C51.1051 52.1258 50.8808 51.9472 50.8161 51.7571C50.7135 51.4567 51.0556 50.7305 50.7477 50.1716C50.5006 49.7534 50.2192 49.4987 49.5653 49.396C49.6147 49.3162 49.6337 49.2478 49.6489 49.1299C49.0444 49.3504 48.5235 49.1793 48.2764 48.6965C48.3981 48.7459 48.573 48.7649 48.7441 48.7649C48.208 48.3277 48.2422 47.0921 48.6262 46.4533C48.6756 46.4191 48.6946 46.3849 48.7441 46.3697C48.8619 46.6092 49.2117 46.6092 49.3904 46.8031C49.4588 46.7347 49.493 46.7157 49.5615 46.6586C49.5615 46.6586 49.5767 47.6738 49.6451 48.092C49.7136 48.5596 50.166 48.5102 50.3979 48.7155C50.6717 48.4151 51.1659 48.4303 51.0899 47.9133C51.0214 47.3962 50.9188 46.9248 50.9036 46.575C51.0556 46.8905 51.356 48.0768 51.4739 48.4151C51.6678 48.917 52.1544 48.7649 52.4282 48.9626C52.6068 48.6128 53.0593 48.5102 52.8806 47.9817C52.8312 47.8448 52.0898 46.286 51.9795 45.9857C52.2419 46.3697 52.9604 47.7422 53.1809 48.1262C53.4281 48.5254 53.8805 48.3315 54.2037 48.4303C54.2645 48.1414 54.7017 47.8068 54.3824 47.305C53.9832 46.6396 53.0441 45.48 52.9946 45.3165C53.1809 45.4952 54.6371 47.305 54.7512 47.4038C55.0895 47.7004 55.5838 47.4722 55.8765 47.4722C55.8765 47.1415 56.1389 46.7651 55.7587 46.3811C55.4089 46.0465 54.6067 45.4762 54.4356 45.2823C54.9717 45.6511 55.6028 46.2366 55.9792 46.3317C56.6445 46.5027 56.8841 46.2366 57.1312 46.134C56.9259 45.5294 57.1996 45.2481 55.7929 44.6588C57.0095 45.0922 57.5494 44.8793 57.9828 44.5371C57.8117 44.1037 57.3783 43.7387 57.0247 43.6171C57.7699 43.6323 58.2642 43.3015 58.5873 42.8643C58.3136 42.4993 57.7699 42.2331 57.1464 42.1647C58.0665 42.0392 58.8002 41.469 58.8839 40.8036ZM30.6619 45.2709C30.6467 45.2709 30.6467 45.2861 30.6277 45.3051C30.5251 45.2899 30.5251 45.1683 30.5441 45.0656C30.5935 45.0656 30.6277 45.0504 30.6619 45.0162L30.6771 45.0352L30.6277 45.0694C30.6467 45.134 30.6467 45.2025 30.6619 45.2709ZM30.9965 45.9857L30.8292 45.8868C30.8976 45.807 30.9623 45.807 31.0307 45.8526C31.0307 45.902 31.0307 45.9515 30.9965 45.9857ZM31.4984 44.9211C31.4755 44.9211 31.4527 44.9211 31.4299 44.9211C31.4261 44.9173 31.4223 44.9097 31.4185 44.9059C31.4489 44.8983 31.4831 44.8983 31.5098 44.8907C31.5098 44.8983 31.5022 44.9097 31.4984 44.9211ZM41.1667 57.3764C40.7485 57.3764 40.452 57.114 40.6649 56.7452C40.7751 56.9125 40.9957 56.9886 41.1858 57.0076C41.1667 57.1825 41.1667 57.2319 41.1667 57.3764ZM47.5274 56.7452C47.7403 57.114 47.4438 57.3764 47.0256 57.3764C47.0256 57.2319 47.0256 57.1825 46.9914 57.0076C47.1853 56.9924 47.4134 56.9201 47.5274 56.7452ZM41.1515 34.1768C42.1058 33.9715 43.0791 33.4354 43.5164 32.983C43.8775 33.0058 44.3452 33.0096 44.6988 32.9868C45.1284 33.443 46.0865 33.9677 47.0446 34.173C46.4895 34.173 45.52 34.1236 45.3983 33.9867C45.4325 34.3365 46.1739 34.7319 46.6606 34.8383C46.2576 34.8878 45.885 34.8383 45.5694 34.6939C45.7405 34.941 45.9382 35.1273 46.2614 35.2375C45.923 35.6558 45.2234 35.9257 44.5315 35.8611C44.7026 36.0664 45.0181 36.1956 45.2919 36.1576C44.6684 37.1499 44.2083 38.1688 44.0981 39.3475H44.0943V39.3513C43.9916 38.1688 43.5316 37.1499 42.9118 36.1576C43.1932 36.1918 43.5012 36.0664 43.6608 35.8611C42.9613 35.9295 42.2883 35.6558 41.9385 35.2375C42.2655 35.1273 42.4594 34.941 42.6305 34.6939C42.3225 34.8383 41.9385 34.8878 41.5393 34.8383C42.026 34.7281 42.775 34.3365 42.8092 33.9867C42.6761 34.1274 41.7066 34.1768 41.1515 34.1768ZM32.4032 44.6664C32.3158 44.7044 32.2093 44.75 32.1295 44.7843C32.1295 44.7767 32.1295 44.7691 32.1295 44.7614C32.2131 44.7272 32.3196 44.6968 32.4032 44.6664ZM38.5396 49.1337C38.5586 49.2516 38.5738 49.32 38.6232 49.3998C37.9655 49.5025 37.688 49.7572 37.4484 50.1754C37.1139 50.7381 37.4636 51.4643 37.3686 51.7609C37.3001 51.9472 37.0834 52.1297 36.7337 51.9662C36.9047 52.719 37.84 52.6315 38.0872 52.2133C38.1708 52.5631 38.0872 52.9661 37.9161 53.1182C38.2088 53.1334 38.4559 53.0155 38.608 52.7836C38.6422 52.852 38.6422 52.9471 38.6575 53.0307C38.8209 52.9471 38.9236 52.852 38.992 52.7684C39.0186 52.852 39.0491 53.0497 39.011 53.2094C38.8856 53.2931 38.7449 53.3729 38.5244 53.487C38.1746 53.658 37.5359 53.9052 37.1709 53.9546C36.8705 54.004 36.3497 53.8329 36.2166 53.4147C36.0949 53.0155 35.7642 52.8862 35.5018 53.1334C35.4334 53.0839 35.2471 53.0459 35.1672 53.1714C35.1672 53.1714 35.0836 52.9813 34.981 52.89C35.0494 52.6847 34.9962 52.4376 34.8099 52.354C34.7947 51.951 34.5475 51.951 34.4601 51.8141C34.4107 51.7304 34.4107 51.624 34.5285 51.6088C34.4791 51.5327 34.3726 51.5175 34.3574 51.5175C34.3916 51.3464 34.3384 51.1335 34.1103 51.0651L32.0877 46.8905C32.2169 46.7537 32.1485 46.556 32.004 46.4875C32.004 46.4875 32.004 46.4723 32.004 46.4533C32.0154 46.4191 32.0192 46.3963 32.023 46.3697C32.0763 46.3621 32.1447 46.3469 32.2017 46.3317C32.6009 46.2366 33.2244 45.6511 33.7643 45.2823C33.5742 45.48 32.791 46.0503 32.4412 46.3811C32.1143 46.7043 32.2511 47.0274 32.3044 47.3202L32.3804 47.4837C32.677 47.5027 33.1218 47.6814 33.4526 47.4076C33.5552 47.305 35.0152 45.4952 35.2091 45.3203C35.133 45.4838 34.213 46.6434 33.7947 47.3088C33.4868 47.8106 33.9392 48.1414 33.9924 48.4341C34.3232 48.3315 34.7756 48.5292 35.0152 48.13C35.2471 47.746 35.9543 46.3735 36.2166 45.9895C36.1139 46.2898 35.365 47.8486 35.3117 47.9855C35.133 48.514 35.5855 48.6166 35.7642 48.9664C36.0379 48.7687 36.5284 48.9246 36.7184 48.4189C36.8363 48.0806 37.1367 46.8944 37.2925 46.5788C37.2735 46.9286 37.1709 47.4 37.1024 47.9171C37.034 48.4379 37.5207 48.4189 37.7754 48.7193C38.0225 48.514 38.475 48.5634 38.5434 48.0958C38.6118 47.6776 38.627 46.6624 38.627 46.6624C38.6955 46.7233 38.7297 46.7385 38.8057 46.8069C38.973 46.6092 39.3266 46.6092 39.4445 46.3735C39.4977 46.3887 39.5129 46.4229 39.5661 46.4571C39.9501 47.0959 39.9805 48.3315 39.4445 48.7687C39.6003 48.7687 39.7942 48.7497 39.9121 48.7003C39.6764 49.1831 39.1479 49.3542 38.5396 49.1337ZM42.3187 54.9735C42.0032 55.4069 41.7561 55.7225 41.5507 56.2624C41.182 56.2282 41.2542 55.7757 41.3721 55.5476C41.6192 55.0952 42.6229 54.5059 43.1286 53.9166C42.9042 54.293 42.5925 54.6351 42.3187 54.9735ZM43.4099 55.7757C43.2046 56.5741 43.0601 57.7528 43.1286 58.2812C42.4214 57.9124 42.8206 56.4905 43.0943 55.8784C43.4745 55.0267 43.7407 53.985 43.8281 53.3197C44.0486 53.8253 43.5582 55.2359 43.4099 55.7757ZM45.0638 58.2812C45.1322 57.7528 44.9953 56.5741 44.7824 55.7757C44.6341 55.2359 44.1475 53.8253 44.3642 53.3197C44.4478 53.985 44.714 55.0229 45.098 55.8784C45.3717 56.4905 45.7709 57.9124 45.0638 58.2812ZM46.8203 55.5438C46.9419 55.7757 47.0104 56.2244 46.6416 56.2586C46.4363 55.7187 46.1891 55.4069 45.885 54.9697C45.5998 54.6351 45.2881 54.2892 45.0638 53.9128C45.5656 54.5059 46.5731 55.0914 46.8203 55.5438ZM46.7328 49.4417C45.8089 51.2362 44.1171 52.6961 44.0981 52.6771C44.079 52.6999 42.3872 51.2362 41.4633 49.4417C40.5394 47.6509 39.9463 44.8337 39.9159 43.4878C39.8817 42.1419 40.1478 41.5678 40.1478 41.5678C40.1478 41.5678 41.3036 41.5032 42.2275 41.1838C43.0107 40.9139 43.8623 40.2257 44.1019 40.0242C44.3414 40.2257 45.193 40.9101 45.98 41.1838C46.9001 41.507 48.0559 41.5678 48.0559 41.5678C48.0559 41.5678 48.3182 42.1457 48.284 43.4878C48.246 44.8337 47.6529 47.6509 46.7328 49.4417Z" fill="#6D6E71"/>
<path d="M15.6181 60.4467L16.2579 61.4805C16.6741 62.1532 16.5679 62.7702 15.9658 63.1427C15.3721 63.5102 14.7616 63.331 14.3479 62.6625L13.7081 61.6286L15.6181 60.4467ZM17.0842 60.728L16.5523 59.8685L18.7155 58.5298L17.9447 57.2842L11.9532 60.992L13.4744 63.45C14.2992 64.7828 15.6014 65.1426 16.7556 64.4283C17.5985 63.9067 17.91 62.9904 17.6729 62.0691L20.9869 62.2003L20.1287 60.8135L17.0842 60.728Z" fill="white"/>
<path d="M22.6301 63.9683L21.584 62.9359L16.6346 67.9506L17.6459 68.9488L23.2732 67.8001L23.3149 67.8413L19.9638 71.2366L21.0098 72.269L25.9593 67.2543L24.948 66.2561L19.3241 67.4013L19.2824 67.3601L22.6301 63.9683Z" fill="white"/>
<path d="M26.8649 67.9634L23.2766 74.0271L24.5456 74.7781L26.0028 72.3156L28.7342 73.932L27.277 76.3944L28.5461 77.1454L32.1344 71.0817L30.8653 70.3307L29.3534 72.8856L26.622 71.2693L28.1339 68.7143L26.8649 67.9634Z" fill="white"/>
<path d="M34.622 71.9975L33.1215 71.5447L33.4328 78.9983L35.0924 79.499L39.4697 73.4601L38.0205 73.0229L37.0126 74.5038L34.6426 73.7887L34.622 71.9975ZM34.6916 77.9704L34.6589 77.9605L34.6277 74.9369L36.39 75.4686L34.6916 77.9704Z" fill="white"/>
<path d="M40.2404 73.5508L39.876 80.5873L45.9178 80.9001L46.2821 73.8636L44.8046 73.7871L44.5034 79.6045L41.4069 79.4442L41.7081 73.6268L40.2404 73.5508Z" fill="white"/>
<path d="M47.7818 73.8292L49.3034 80.7088L50.972 80.3398L51.8481 75.0302L51.8862 75.0218L54.9196 79.4667L56.5883 79.0977L55.0667 72.218L53.7842 72.5016L54.8113 77.1453L54.7731 77.1537L51.892 72.9902L50.9861 73.1905L50.1295 78.1808L50.0913 78.1892L49.0643 73.5455L47.7818 73.8292Z" fill="white"/>
<path d="M62.0883 76.6871C63.9351 75.709 64.4357 73.8582 63.3844 71.8733C62.3355 69.8927 60.5232 69.2667 58.6764 70.2448C56.8339 71.2207 56.329 73.0738 57.378 75.0544C58.4292 77.0393 60.2458 77.663 62.0883 76.6871ZM61.5124 75.5998C60.4941 76.1391 59.4037 75.6557 58.7113 74.3482C58.0211 73.0451 58.2362 71.8759 59.2545 71.3365C60.2772 70.7949 61.3653 71.274 62.0554 72.5771C62.7479 73.8846 62.5308 75.0604 61.5124 75.5998Z" fill="white"/>
<path d="M67.4009 68.8243L67.4418 73.2567L68.6843 72.1484L68.6406 68.1896L68.6698 68.1636L70.6557 70.39L71.7561 69.4084L67.066 64.1503L65.9656 65.1319L68.0262 67.4421L67.9971 67.4681L63.9542 66.9261L62.5804 68.1514L67.4009 68.8243Z" fill="white"/>
<path d="M70.3119 59.6645L75.3231 62.6441L74.2799 64.3984L75.325 65.0198L78.1623 60.2478L77.1173 59.6265L76.0767 61.3766L71.0655 58.397L70.3119 59.6645Z" fill="white"/>
<path d="M72.6055 55.201L79.1516 57.8074L79.6971 56.4374L73.151 53.831L72.6055 55.201Z" fill="white"/>
<path d="M78.5435 43.5339L78.4941 42.3191C78.462 41.5287 78.8576 41.0435 79.5651 41.0148C80.2627 40.9864 80.7064 41.4424 80.7383 42.2279L80.7877 43.4427L78.5435 43.5339ZM77.4047 42.5686L77.4457 43.5785L74.9039 43.6818L74.9634 45.1454L82.0035 44.8593L81.8861 41.9711C81.8224 40.405 80.865 39.4519 79.5087 39.507C78.5183 39.5473 77.7968 40.1923 77.5507 41.1113L74.7286 39.369L74.7948 40.9985L77.4047 42.5686Z" fill="white"/>
<path d="M74.196 37.1461L74.6219 38.6545L80.7366 34.3809L80.2656 32.7128L72.82 32.2732L73.2314 33.7299L75.022 33.7824L75.6947 36.1648L74.196 37.1461ZM79.1929 33.8731L79.2021 33.906L76.6705 35.5595L76.1702 33.788L79.1929 33.8731Z" fill="white"/>
<path d="M72.518 31.6385L78.6447 28.1589L77.9165 26.8766L75.4284 28.2897L73.861 25.5299L76.3491 24.1168L75.6208 22.8346L69.4941 26.3142L70.2223 27.5964L72.8038 26.1303L74.3712 28.8901L71.7897 30.3562L72.518 31.6385Z" fill="white"/>
<path d="M68.8272 25.3793L73.9449 20.5363L72.9314 19.4653L70.8531 21.432L68.6716 19.1267L70.7499 17.16L69.7363 16.0889L64.6186 20.9319L65.6322 22.0029L67.7885 19.9624L69.97 22.2676L67.8137 24.3082L68.8272 25.3793Z" fill="white"/>
<path d="M62.4788 19.3673L63.797 20.2153L65.5476 12.9636L64.0898 12.0257L58.2204 16.6278L59.4934 17.4468L60.8697 16.3001L62.9517 17.6395L62.4788 19.3673ZM64.0547 13.6056L64.0834 13.6241L63.2818 16.5397L61.7337 15.5438L64.0547 13.6056Z" fill="white"/>
<path d="M55.2554 15.5627C56.6735 16.0637 57.8114 15.6424 58.2246 14.473C58.5353 13.5936 58.1049 12.7011 57.2269 12.3132L57.24 12.2763C57.9818 12.4193 58.7397 12.0036 58.9967 11.2761C59.3562 10.2587 58.7997 9.3422 57.552 8.90139L54.6607 7.87988L52.3135 14.5233L55.2554 15.5627ZM55.6851 9.407L56.8269 9.8104C57.4761 10.0397 57.7416 10.4754 57.5529 11.0094C57.3545 11.5711 56.8154 11.7483 56.0742 11.4864L55.0752 11.1335L55.6851 9.407ZM54.0699 13.9787L54.7515 12.0496L55.9163 12.4612C56.7357 12.7507 57.0652 13.24 56.8456 13.8615C56.6211 14.4968 56.068 14.6846 55.2669 14.4016L54.0699 13.9787Z" fill="white"/>
<path d="M49.0527 6.77709C46.9749 6.55272 45.5234 7.80549 45.2823 10.0386C45.0417 12.2669 46.1922 13.8006 48.27 14.025C50.3429 14.2488 51.7993 12.9966 52.0399 10.7683C52.281 8.53522 51.1256 7.00094 49.0527 6.77709ZM48.9206 8.00045C50.0663 8.12417 50.6987 9.13541 50.5398 10.6063C50.3815 12.0724 49.5483 12.9205 48.4026 12.7968C47.2521 12.6725 46.6192 11.6662 46.7775 10.2001C46.9363 8.72913 47.7749 7.87673 48.9206 8.00045Z" fill="white"/>
<path d="M42.147 13.8225L41.4776 8.03097L43.5051 7.79664L43.3655 6.58886L37.8505 7.22627L37.9901 8.43405L40.0127 8.20028L40.6821 13.9918L42.147 13.8225Z" fill="white"/>
<path d="M36.3356 14.8998L37.7208 14.4085L35.3651 7.76802L34.0259 8.24308L32.6067 13.8084L32.5515 13.8279L30.9565 9.33196L29.5714 9.82334L31.9271 16.4638L33.2662 15.9887L34.6871 10.428L34.7423 10.4085L36.3356 14.8998Z" fill="white"/>
<path d="M26.2179 16.5202L24.7985 14.0065L26.6588 12.792L29.1812 16.6558L26.773 18.2279L26.7516 18.1952C26.8131 17.7177 26.6027 17.2078 26.2179 16.5202ZM26.8229 19.6532L30.703 17.1201L31.4637 18.2854L32.58 17.5567L31.1519 15.3692L30.416 15.8497L27.2316 10.9719L23.0489 13.7025L25.0199 17.1682C25.494 18.0016 25.677 18.541 25.4482 19.0928L25.0353 19.3623L26.4633 21.5498L27.5836 20.8184L26.8229 19.6532Z" fill="white"/>
<path d="M24.1566 20.2256L21.9179 22.5029L20.6504 21.2569L22.7624 19.1085L21.9546 18.3143L19.8426 20.4628L18.6308 19.2715L20.8695 16.9943L20.0025 16.1419L16.7301 19.4708L21.7547 24.4102L25.0271 21.0813L24.1566 20.2256Z" fill="white"/>
<path d="M12.7166 25.1467L18.6024 29.02L19.413 27.7882L17.5571 26.5669L18.2819 25.4656C19.0979 24.2256 18.8566 22.8335 17.6493 22.039C16.4379 21.2418 15.0868 21.5451 14.2922 22.7524L12.7166 25.1467ZM14.5021 24.5564L15.0523 23.7202C15.5167 23.0146 16.1604 22.8537 16.8293 23.2939C17.5023 23.7368 17.6065 24.3957 17.1421 25.1013L16.5945 25.9334L14.5021 24.5564Z" fill="white"/>
<path d="M13.352 31.6856L11.2929 27.7603L10.6931 29.3135L12.5385 32.8161L12.5244 32.8525L9.74138 31.7777L9.21012 33.1533L15.7829 35.6917L16.3141 34.3161L13.4263 33.2008L13.4404 33.1644L17.2852 31.8018L17.9484 30.0846L13.352 31.6856Z" fill="white"/>
<path d="M11.3868 39.5642L8.44935 36.2446L8.23805 37.8962L10.867 40.8563L10.8621 40.8951L7.90281 40.5165L7.71567 41.9792L14.7046 42.8733L14.8917 41.4106L11.8211 41.0178L11.826 40.979L15.2338 38.7371L15.4674 36.9112L11.3868 39.5642Z" fill="white"/>
<path d="M14.8486 45.5203L14.6702 43.9631L7.94909 47.2002L8.14637 48.9223L15.4249 50.5509L15.2526 49.047L13.4936 48.7079L13.2119 46.2484L14.8486 45.5203ZM9.39135 47.9491L9.38746 47.9152L12.1516 46.6893L12.3611 48.5182L9.39135 47.9491Z" fill="white"/>
</g>
<defs>
<clipPath id="clip0_2_1919">
<rect width="88" height="88" fill="white" transform="translate(0.200012)"/>
</clipPath>
</defs>
</svg>
