<svg width="79" height="38" viewBox="0 0 79 38" fill="none" xmlns="http://www.w3.org/2000/svg">
<path d="M41.0329 32.8532C39.5368 32.7531 37.8118 32.4898 36.4512 32.0943C36.1963 32.0202 35.1411 31.6309 34.8727 31.5073C30.1359 29.3048 26.836 24.4971 26.836 18.9193C26.836 11.269 33.0368 5.03742 40.6635 5.03742C48.2224 5.03742 54.3814 11.1627 54.4872 18.7265H59.4826C59.3767 8.39914 50.978 0.0294456 40.6635 0.0294456C30.2873 0.0294456 21.8419 8.50172 21.8419 18.9193C21.8419 26.1013 25.8657 32.3477 31.7575 35.5389C32.8213 36.1037 34.3481 36.6858 34.8665 36.8452C36.546 37.347 38.6072 37.6807 40.4418 37.8204C41.0649 37.8673 43.2406 37.8921 43.8747 37.8945H78.2747V32.9002H43.9326C43.4758 32.9002 41.4798 32.8828 41.0329 32.8532ZM43.9326 25.0112C43.5693 25.0112 41.6694 24.9989 41.3185 24.9692C40.7238 24.9185 39.8619 24.8296 39.3078 24.7023C38.6823 24.5342 38.095 24.3117 37.8303 24.1659C35.9747 23.1586 34.7101 21.1885 34.7101 18.9193C34.7101 15.6182 37.3734 12.9412 40.6635 12.9412C43.8845 12.9412 46.5035 15.5131 46.6082 18.7265H51.4078C51.3068 12.8559 46.5392 8.12477 40.6635 8.12477C34.7225 8.12477 29.9069 12.9572 29.9069 18.9193C29.9069 23.124 32.3079 26.7551 35.8048 28.5336C36.3428 28.85 37.355 29.1812 37.6431 29.2566C38.6306 29.5174 39.9567 29.6954 41.0329 29.7745C41.4306 29.8079 43.3785 29.8227 43.7897 29.8252V29.8326H78.2734V25.0112H43.9326ZM18.7636 37.876H13.735V5.04855H6.38662V-0.000217438H18.7636V37.876ZM0.865479 7.57107V12.4258H6.38662V37.876H11.2182V7.57107H0.865479Z" fill="#D01C28"/>
</svg>
