<svg width="57" height="58" viewBox="0 0 57 58" fill="none" xmlns="http://www.w3.org/2000/svg">
<path d="M56.9103 32.7332H48.4834C48.4834 19.5594 37.8438 8.87979 24.7193 8.87979V0.421143C42.4979 0.421143 56.9103 14.8878 56.9103 32.7332ZM24.7193 8.87979V17.3384C15.8766 17.3384 8.70809 24.5339 8.70809 33.4099H0.281128C0.281128 19.8623 11.2225 8.87979 24.7193 8.87979ZM24.0452 57.2633V48.8046C32.888 48.8046 40.0564 41.6093 40.0564 32.7332H48.4834C48.4834 46.2809 37.542 57.2633 24.0452 57.2633ZM8.70809 33.4099H17.1351C17.1351 37.6138 19.8559 40.3443 24.0452 40.3443V48.8029C15.2023 48.8029 8.70809 42.2858 8.70809 33.4099Z" fill="#1F50FE"/>
</svg>
