<svg width="78" height="39" viewBox="0 0 78 39" fill="none" xmlns="http://www.w3.org/2000/svg">
<path d="M40.628 33.7482C39.1319 33.6481 37.4069 33.3848 36.0463 32.9893C35.7914 32.9152 34.7362 32.5259 34.4678 32.4023C29.731 30.1999 26.4311 25.3921 26.4311 19.8144C26.4311 12.164 32.6319 5.93244 40.2586 5.93244C47.8175 5.93244 53.9764 12.0577 54.0823 19.6216H59.0777C58.9718 9.29416 50.5731 0.924465 40.2586 0.924465C29.8824 0.924465 21.437 9.39674 21.437 19.8144C21.437 26.9963 25.4608 33.2427 31.3526 36.4339C32.4164 36.9987 33.9432 37.5808 34.4616 37.7402C36.1411 38.242 38.2023 38.5757 40.0369 38.7154C40.66 38.7624 42.8357 38.7871 43.4698 38.7896H77.8698V33.7952H43.5277C43.0708 33.7952 41.0749 33.7779 40.628 33.7482ZM43.5277 25.9063C43.1644 25.9063 41.2645 25.8939 40.9136 25.8642C40.3189 25.8136 39.457 25.7246 38.9029 25.5973C38.2774 25.4292 37.6901 25.2067 37.4254 25.0609C35.5698 24.0536 34.3052 22.0835 34.3052 19.8144C34.3052 16.5132 36.9685 13.8362 40.2586 13.8362C43.4796 13.8362 46.0986 16.4082 46.2033 19.6216H51.0029C50.9019 13.7509 46.1343 9.01979 40.2586 9.01979C34.3176 9.01979 29.502 13.8523 29.502 19.8144C29.502 24.019 31.903 27.6501 35.3999 29.4286C35.9379 29.745 36.9501 30.0763 37.2382 30.1517C38.2257 30.4124 39.5518 30.5904 40.628 30.6695C41.0257 30.7029 42.9736 30.7177 43.3848 30.7202V30.7276H77.8685V25.9063H43.5277ZM18.3587 38.771H13.3301V5.94357H5.98171V0.894802H18.3587V38.771ZM0.460571 8.46609V13.3208H5.98171V38.771H10.8133V8.46609H0.460571Z" fill="#D01C28"/>
</svg>
