<svg width="58" height="58" viewBox="0 0 58 58" fill="none" xmlns="http://www.w3.org/2000/svg">
<path d="M57.5062 32.7332H49.0792C49.0792 19.5594 38.4396 8.87979 25.3152 8.87979V0.421143C43.0937 0.421143 57.5062 14.8878 57.5062 32.7332ZM25.3152 8.87979V17.3384C16.4724 17.3384 9.30392 24.5339 9.30392 33.4099H0.876953C0.876953 19.8623 11.8183 8.87979 25.3152 8.87979ZM24.641 57.2633V48.8046C33.4838 48.8046 40.6522 41.6093 40.6522 32.7332H49.0792C49.0792 46.2809 38.1379 57.2633 24.641 57.2633ZM9.30392 33.4099H17.7309C17.7309 37.6138 20.4518 40.3443 24.641 40.3443V48.8029C15.7981 48.8029 9.30392 42.2858 9.30392 33.4099Z" fill="#1F50FE"/>
</svg>
