<svg width="143" height="40" viewBox="0 0 143 40" fill="none" xmlns="http://www.w3.org/2000/svg">
<path fill-rule="evenodd" clip-rule="evenodd" d="M7.70753 20.6559C6.25686 20.6559 4.94177 20.3429 3.76225 19.7169C2.59629 19.0774 1.67437 18.1997 0.996488 17.0839C0.332163 15.9545 0 14.6822 0 13.267C0 11.8518 0.332163 10.5863 0.996488 9.47054C1.67437 8.34112 2.59629 7.46344 3.76225 6.8375C4.94177 6.19795 6.26364 5.87817 7.72787 5.87817C8.96162 5.87817 10.0733 6.09589 11.0631 6.53133C12.0663 6.96677 12.9069 7.59271 13.5848 8.40916L11.4698 10.3686C10.5072 9.25282 9.31411 8.69492 7.89056 8.69492C7.00931 8.69492 6.22297 8.89222 5.53153 9.28684C4.84009 9.66785 4.29778 10.2053 3.90461 10.8993C3.52499 11.5933 3.33519 12.3825 3.33519 13.267C3.33519 14.1515 3.52499 14.9407 3.90461 15.6347C4.29778 16.3287 4.84009 16.873 5.53153 17.2676C6.22297 17.6486 7.00931 17.8391 7.89056 17.8391C9.31411 17.8391 10.5072 17.2744 11.4698 16.145L13.5848 18.1045C12.9069 18.9345 12.0663 19.5673 11.0631 20.0027C10.0598 20.4381 8.94128 20.6559 7.70753 20.6559ZM27.6454 17.7575V20.4109H16.623V6.12311H27.381V8.77656H19.8972V11.8791H26.5066V14.4509H19.8972V17.7575H27.6454ZM41.4315 20.4109H44.1362V6.12311H40.8824V14.7979L33.8053 6.12311H31.0802V20.4109H34.334V11.7362L41.4315 20.4109ZM51.2666 8.81738H46.7112V6.12311H59.1165V8.81738H54.5611V16.1585H51.2666V8.81738ZM64.997 6.12311H61.7025V20.4109H64.997V6.12311ZM76.0016 20.6559C74.5509 20.6559 73.2359 20.3429 72.0563 19.7169C70.8904 19.0774 69.9685 18.1997 69.2906 17.0839C68.6262 15.9545 68.2941 14.6822 68.2941 13.267C68.2941 11.8518 68.6262 10.5863 69.2906 9.47054C69.9685 8.34112 70.8904 7.46344 72.0563 6.8375C73.2359 6.19795 74.5577 5.87817 76.0219 5.87817C77.2557 5.87817 78.3674 6.09589 79.3571 6.53133C80.3604 6.96677 81.201 7.59271 81.8789 8.40916L79.7639 10.3686C78.8013 9.25282 77.6082 8.69492 76.1846 8.69492C75.3034 8.69492 74.5171 8.89222 73.8256 9.28684C73.1342 9.66785 72.5919 10.2053 72.1987 10.8993C71.8191 11.5933 71.6293 12.3825 71.6293 13.267C71.6293 14.1515 71.8191 14.9407 72.1987 15.6347C72.5919 16.3287 73.1342 16.873 73.8256 17.2676C74.5171 17.6486 75.3034 17.8391 76.1846 17.8391C77.6082 17.8391 78.8013 17.2744 79.7639 16.145L81.8789 18.1045C81.201 18.9345 80.3604 19.5673 79.3571 20.0027C78.3539 20.4381 77.2354 20.6559 76.0016 20.6559ZM125.28 20.4113L122.534 16.4311H122.372H119.504V20.4113H116.21V6.12344H122.372C123.633 6.12344 124.724 6.33436 125.646 6.75619C126.581 7.17802 127.3 7.77675 127.801 8.55237C128.303 9.32799 128.554 10.2465 128.554 11.3079C128.554 12.3693 128.296 13.2878 127.781 14.0634C127.28 14.8254 126.561 15.4105 125.625 15.8187L128.818 20.4113H125.28ZM125.219 11.3079C125.219 10.505 124.961 9.8927 124.446 9.47087C123.931 9.03544 123.178 8.81772 122.189 8.81772H119.504V13.798H122.189C123.178 13.798 123.931 13.5803 124.446 13.1449C124.961 12.7094 125.219 12.0971 125.219 11.3079ZM143 17.7578V20.4113H131.978V6.12344H142.736V8.77689H135.252V11.8794H141.861V14.4512H135.252V17.7578H143ZM54.6543 17.0083H51.2649V20.4102H54.6543V17.0083Z" fill="#191919"/>
<path d="M110.887 14.5035H107.104C107.104 8.59032 102.328 3.79672 96.4364 3.79672V0C104.417 0 110.887 6.49345 110.887 14.5035ZM96.4364 3.79672V7.59344C92.4669 7.59344 89.249 10.8232 89.249 14.8072H85.4662C85.4662 8.7263 90.3777 3.79672 96.4364 3.79672ZM96.1338 25.514V21.7172C100.103 21.7172 103.321 18.4876 103.321 14.5035H107.104C107.104 20.5844 102.192 25.514 96.1338 25.514ZM89.249 14.8072H93.0318C93.0318 16.6941 94.2532 17.9198 96.1338 17.9198V21.7165C92.1642 21.7165 89.249 18.7912 89.249 14.8072Z" fill="#1F50FE"/>
<path d="M36.4668 40C35.8503 40 35.282 39.9033 34.762 39.7098C34.2494 39.5089 33.8 39.2261 33.4137 38.8615C33.0348 38.4968 32.7377 38.069 32.5223 37.5778C32.3143 37.0867 32.2103 36.5471 32.2103 35.9593C32.2103 35.3714 32.3143 34.8318 32.5223 34.3407C32.7377 33.8496 33.0386 33.4217 33.4248 33.057C33.8111 32.6924 34.2643 32.4133 34.7843 32.2198C35.3043 32.0189 35.8763 31.9185 36.5003 31.9185C37.1911 31.9185 37.8114 32.0338 38.3611 32.2645C38.9183 32.4952 39.3863 32.8301 39.7651 33.2691L38.6063 34.3407C38.324 34.043 38.0157 33.8235 37.6814 33.6821C37.3471 33.5333 36.9831 33.4589 36.5894 33.4589C36.2106 33.4589 35.8651 33.5184 35.5531 33.6375C35.2411 33.7565 34.97 33.9277 34.7397 34.1509C34.5168 34.3742 34.3423 34.6384 34.216 34.9435C34.0971 35.2486 34.0377 35.5872 34.0377 35.9593C34.0377 36.3239 34.0971 36.6588 34.216 36.9639C34.3423 37.269 34.5168 37.5369 34.7397 37.7676C34.97 37.9908 35.2374 38.162 35.542 38.281C35.854 38.4001 36.1957 38.4596 36.5671 38.4596C36.9237 38.4596 37.2691 38.4038 37.6034 38.2922C37.9451 38.1731 38.2757 37.9759 38.5951 37.7006L39.6203 39.0066C39.1968 39.3266 38.7028 39.5722 38.1383 39.7433C37.5811 39.9145 37.024 40 36.4668 40ZM37.9711 38.7722V35.8365H39.6203V39.0066L37.9711 38.7722Z" fill="#1F50FE"/>
<path d="M47.9828 39.8661V32.0524H51.3591C52.0574 32.0524 52.6591 32.1678 53.1642 32.3984C53.6694 32.6217 54.0594 32.9454 54.3342 33.3696C54.6091 33.7937 54.7465 34.2998 54.7465 34.8877C54.7465 35.4681 54.6091 35.9704 54.3342 36.3946C54.0594 36.8113 53.6694 37.1313 53.1642 37.3546C52.6591 37.5778 52.0574 37.6894 51.3591 37.6894H48.9857L49.788 36.8969V39.8661H47.9828ZM52.9414 39.8661L50.9914 37.0308H52.9191L54.8914 39.8661H52.9414ZM49.788 37.0978L48.9857 36.2495H51.2588C51.816 36.2495 52.232 36.1304 52.5068 35.8923C52.7817 35.6467 52.9191 35.3118 52.9191 34.8877C52.9191 34.456 52.7817 34.1212 52.5068 33.883C52.232 33.6449 51.816 33.5258 51.2588 33.5258H48.9857L49.788 32.6663V37.0978Z" fill="#1F50FE"/>
<path d="M66.651 40C66.0344 40 65.4624 39.8996 64.935 39.6987C64.415 39.4977 63.9619 39.215 63.5756 38.8503C63.1967 38.4857 62.8996 38.0578 62.6842 37.5666C62.4762 37.0755 62.3722 36.5397 62.3722 35.9593C62.3722 35.3788 62.4762 34.843 62.6842 34.3519C62.8996 33.8607 63.2004 33.4328 63.5867 33.0682C63.973 32.7035 64.4262 32.4208 64.9462 32.2198C65.4662 32.0189 66.0307 31.9185 66.6399 31.9185C67.2564 31.9185 67.821 32.0189 68.3336 32.2198C68.8536 32.4208 69.303 32.7035 69.6819 33.0682C70.0682 33.4328 70.369 33.8607 70.5844 34.3519C70.7999 34.8356 70.9076 35.3714 70.9076 35.9593C70.9076 36.5397 70.7999 37.0792 70.5844 37.5778C70.369 38.069 70.0682 38.4968 69.6819 38.8615C69.303 39.2187 68.8536 39.4977 68.3336 39.6987C67.821 39.8996 67.2602 40 66.651 40ZM66.6399 38.4596C66.989 38.4596 67.3084 38.4001 67.5982 38.281C67.8953 38.162 68.1553 37.9908 68.3782 37.7676C68.601 37.5443 68.7719 37.2801 68.8907 36.975C69.017 36.6699 69.0802 36.3313 69.0802 35.9593C69.0802 35.5872 69.017 35.2486 68.8907 34.9435C68.7719 34.6384 68.601 34.3742 68.3782 34.1509C68.1627 33.9277 67.9064 33.7565 67.6093 33.6375C67.3122 33.5184 66.989 33.4589 66.6399 33.4589C66.2907 33.4589 65.9676 33.5184 65.6704 33.6375C65.3807 33.7565 65.1244 33.9277 64.9016 34.1509C64.6787 34.3742 64.5042 34.6384 64.3779 34.9435C64.259 35.2486 64.1996 35.5872 64.1996 35.9593C64.1996 36.3239 64.259 36.6625 64.3779 36.975C64.5042 37.2801 64.675 37.5443 64.8904 37.7676C65.1133 37.9908 65.3733 38.162 65.6704 38.281C65.9676 38.4001 66.2907 38.4596 66.6399 38.4596Z" fill="#1F50FE"/>
<path d="M82.4154 40C81.3085 40 80.4431 39.6912 79.8191 39.0736C79.1951 38.4559 78.8831 37.5741 78.8831 36.4281V32.0524H80.6882V36.3611C80.6882 37.1053 80.8405 37.6411 81.1451 37.9685C81.4497 38.2959 81.8768 38.4596 82.4265 38.4596C82.9762 38.4596 83.4034 38.2959 83.7079 37.9685C84.0125 37.6411 84.1648 37.1053 84.1648 36.3611V32.0524H85.9477V36.4281C85.9477 37.5741 85.6357 38.4559 85.0117 39.0736C84.3877 39.6912 83.5222 40 82.4154 40Z" fill="#1F50FE"/>
<path d="M94.4172 39.8661V32.0524H97.7935C98.4918 32.0524 99.0935 32.1678 99.5986 32.3984C100.104 32.6217 100.494 32.9454 100.769 33.3696C101.043 33.7937 101.181 34.2998 101.181 34.8877C101.181 35.4681 101.043 35.9704 100.769 36.3946C100.494 36.8188 100.104 37.1462 99.5986 37.3769C99.0935 37.6001 98.4918 37.7118 97.7935 37.7118H95.42L96.2223 36.8969V39.8661H94.4172ZM96.2223 37.0978L95.42 36.2383H97.6932C98.2503 36.2383 98.6663 36.1192 98.9412 35.8811C99.216 35.643 99.3535 35.3118 99.3535 34.8877C99.3535 34.456 99.216 34.1212 98.9412 33.883C98.6663 33.6449 98.2503 33.5258 97.6932 33.5258H95.42L96.2223 32.6663V37.0978Z" fill="#1F50FE"/>
</svg>
