<svg width="24" height="24" viewBox="0 0 24 24" fill="none" xmlns="http://www.w3.org/2000/svg">
<path d="M4.725 21.6251C4.075 21.6251 3.52083 21.3959 3.0625 20.9376C2.60417 20.4793 2.375 19.9251 2.375 19.2751V4.7251C2.375 4.0751 2.60417 3.51676 3.0625 3.0501C3.52083 2.58343 4.075 2.3501 4.725 2.3501H11.475V4.7251H4.725V19.2751H19.275V12.5251H21.65V19.2751C21.65 19.9251 21.4167 20.4793 20.95 20.9376C20.4833 21.3959 19.925 21.6251 19.275 21.6251H4.725ZM10.125 15.5251L8.5 13.8751L17.65 4.7251H12.975V2.3501H21.65V11.0251H19.275V6.3751L10.125 15.5251Z" fill="#1F50FE"/>
</svg>
