<svg width="40" height="32" viewBox="0 0 40 32" fill="none" xmlns="http://www.w3.org/2000/svg">
<path d="M20 15.5932C24.3059 15.5932 27.7966 12.1026 27.7966 7.79661C27.7966 3.49066 24.3059 0 20 0C15.694 0 12.2034 3.49066 12.2034 7.79661C12.2034 12.1026 15.694 15.5932 20 15.5932Z" fill="#1F50FE"/>
<path d="M6.44076 16.949C9.24899 16.949 11.5255 14.6725 11.5255 11.8643C11.5255 9.05606 9.24899 6.77954 6.44076 6.77954C3.63254 6.77954 1.35602 9.05606 1.35602 11.8643C1.35602 14.6725 3.63254 16.949 6.44076 16.949Z" fill="#1F50FE"/>
<path d="M33.5593 16.949C36.3675 16.949 38.644 14.6725 38.644 11.8643C38.644 9.05606 36.3675 6.77954 33.5593 6.77954C30.7511 6.77954 28.4745 9.05606 28.4745 11.8643C28.4745 14.6725 30.7511 16.949 33.5593 16.949Z" fill="#1F50FE"/>
<path d="M32.0679 25.4781C30.9343 25.1206 29.7383 25.005 28.5572 25.1388C27.3761 25.2725 26.2363 25.6527 25.2113 26.2546C24.1864 26.8565 23.2991 27.6669 22.607 28.6332C21.9149 29.5995 21.4333 30.7004 21.1933 31.8645H10.0475C9.59649 31.8595 9.15202 31.7557 8.74545 31.5603C8.33887 31.3649 7.98009 31.0828 7.69438 30.7337C7.40867 30.3847 7.20298 29.9772 7.09181 29.54C6.98063 29.1029 6.96668 28.6466 7.05093 28.2035C7.60909 25.459 9.02517 22.9629 11.0947 21.0758C13.1641 19.1887 15.7799 18.0082 18.5641 17.7049C21.3483 17.4016 24.1569 17.9911 26.5842 19.3883C29.0115 20.7855 30.9318 22.9181 32.0679 25.4781Z" fill="#1F50FE"/>
<path d="M9.5322 19.7696C7.59641 21.5954 6.17086 23.895 5.39661 26.4408H1.01695C0.747841 26.4389 0.490308 26.3311 0.300015 26.1408C0.109721 25.9505 0.00195207 25.693 0 25.4239C0.00100442 24.3061 0.292612 23.2079 0.846203 22.2368C1.39979 21.2658 2.19635 20.4554 3.15768 19.8852C4.11902 19.315 5.2121 19.0045 6.32966 18.9842C7.44721 18.964 8.55083 19.2346 9.5322 19.7696Z" fill="#1F50FE"/>
<path d="M39.9999 25.4239C39.998 25.693 39.8902 25.9505 39.6999 26.1408C39.5096 26.3311 39.2521 26.4389 38.983 26.4408H34.7253L33.9253 24.651C33.109 22.8101 31.9335 21.1506 30.4677 19.7696C31.4491 19.2346 32.5527 18.964 33.6703 18.9842C34.7878 19.0045 35.8809 19.315 36.8422 19.8852C37.8036 20.4554 38.6001 21.2658 39.1537 22.2368C39.7073 23.2079 39.9989 24.3061 39.9999 25.4239Z" fill="#1F50FE"/>
</svg>
