<svg width="40" height="40" viewBox="0 0 40 40" fill="none" xmlns="http://www.w3.org/2000/svg">
<g clip-path="url(#clip0_2_2000)">
<path d="M23.75 20H16.25C14.6417 20 13.3334 18.6917 13.3334 17.0833V2.91667C13.3334 1.30833 14.6417 0 16.25 0H23.75C25.3584 0 26.6667 1.30833 26.6667 2.91667V17.0833C26.6667 18.6917 25.3584 20 23.75 20Z" fill="#1F50FE"/>
<path d="M9.16838 14.9999C8.66172 14.9999 8.16005 14.7699 7.83338 14.3332L5.33338 10.9999C4.88838 10.4082 4.88838 9.59156 5.33338 8.9999L7.83338 5.66656C8.38672 4.93156 9.43005 4.7799 10.1667 5.33323C10.9034 5.8849 11.0517 6.9299 10.5001 7.66656L8.75005 9.9999L10.5001 12.3332C11.0534 13.0699 10.9034 14.1149 10.1667 14.6666C9.86672 14.8916 9.51505 14.9999 9.16838 14.9999Z" fill="#1F50FE"/>
<path d="M30.8316 14.9999C30.485 14.9999 30.1333 14.8916 29.8333 14.6666C29.0966 14.1149 28.9483 13.0699 29.5 12.3332L31.25 9.9999L29.5 7.66656C28.9466 6.9299 29.0966 5.8849 29.8333 5.33323C30.5716 4.7799 31.615 4.93156 32.1666 5.66656L34.6666 8.9999C35.1116 9.59156 35.1116 10.4082 34.6666 10.9999L32.1666 14.3332C31.84 14.7699 31.3383 14.9999 30.8316 14.9999Z" fill="#1F50FE"/>
<path d="M37.0833 6.66675L37.3333 7.00008C38.6667 8.76675 38.6667 11.2334 37.3333 13.0001L36.6667 13.8834V30.0001H3.33333V13.8834L2.66667 13.0001C1.33333 11.2334 1.33333 8.76675 2.66667 7.00008L2.91667 6.66675C1.31667 6.66675 0 7.98341 0 9.58341V30.4167C0 32.0167 1.31667 33.3334 2.91667 33.3334H16.6667V36.6667H13.3333C12.4133 36.6667 11.6667 37.4134 11.6667 38.3334C11.6667 39.2534 12.4133 40.0001 13.3333 40.0001H26.6667C27.5883 40.0001 28.3333 39.2534 28.3333 38.3334C28.3333 37.4134 27.5883 36.6667 26.6667 36.6667H23.3333V33.3334H37.0833C38.6833 33.3334 40 32.0167 40 30.4167V9.58341C40 7.98341 38.6833 6.66675 37.0833 6.66675Z" fill="#1F50FE"/>
</g>
<defs>
<clipPath id="clip0_2_2000">
<rect width="40" height="40" fill="white"/>
</clipPath>
</defs>
</svg>
