<svg width="40" height="40" viewBox="0 0 40 40" fill="none" xmlns="http://www.w3.org/2000/svg">
<g clip-path="url(#clip0_2_2007)">
<path d="M38.75 1.66675H27.9167C27.2267 1.66675 26.6667 2.22675 26.6667 2.91675V12.9167H1.25C0.56 12.9167 0 13.4767 0 14.1667V37.0834C0 37.7734 0.56 38.3334 1.25 38.3334H32.0833V15.8334C32.0833 15.1434 32.6433 14.5834 33.3333 14.5834C34.0233 14.5834 34.5833 15.1434 34.5833 15.8334V38.3334H38.75C39.44 38.3334 40 37.7734 40 37.0834V2.91675C40 2.22675 39.44 1.66675 38.75 1.66675ZM8.33333 30.4167C8.33333 31.1067 7.77333 31.6667 7.08333 31.6667H6.25C5.56 31.6667 5 31.1067 5 30.4167V29.5834C5 28.8934 5.56 28.3334 6.25 28.3334H7.08333C7.77333 28.3334 8.33333 28.8934 8.33333 29.5834V30.4167ZM8.33333 22.0834C8.33333 22.7734 7.77333 23.3334 7.08333 23.3334H6.25C5.56 23.3334 5 22.7734 5 22.0834V21.2501C5 20.5601 5.56 20.0001 6.25 20.0001H7.08333C7.77333 20.0001 8.33333 20.5601 8.33333 21.2501V22.0834ZM15 30.4167C15 31.1067 14.44 31.6667 13.75 31.6667H12.9167C12.2267 31.6667 11.6667 31.1067 11.6667 30.4167V29.5834C11.6667 28.8934 12.2267 28.3334 12.9167 28.3334H13.75C14.44 28.3334 15 28.8934 15 29.5834V30.4167ZM15 22.0834C15 22.7734 14.44 23.3334 13.75 23.3334H12.9167C12.2267 23.3334 11.6667 22.7734 11.6667 22.0834V21.2501C11.6667 20.5601 12.2267 20.0001 12.9167 20.0001H13.75C14.44 20.0001 15 20.5601 15 21.2501V22.0834ZM21.6667 30.4167C21.6667 31.1067 21.1067 31.6667 20.4167 31.6667H19.5833C18.8933 31.6667 18.3333 31.1067 18.3333 30.4167V29.5834C18.3333 28.8934 18.8933 28.3334 19.5833 28.3334H20.4167C21.1067 28.3334 21.6667 28.8934 21.6667 29.5834V30.4167ZM21.6667 22.0834C21.6667 22.7734 21.1067 23.3334 20.4167 23.3334H19.5833C18.8933 23.3334 18.3333 22.7734 18.3333 22.0834V21.2501C18.3333 20.5601 18.8933 20.0001 19.5833 20.0001H20.4167C21.1067 20.0001 21.6667 20.5601 21.6667 21.2501V22.0834ZM28.3333 30.4167C28.3333 31.1067 27.7733 31.6667 27.0833 31.6667H26.25C25.56 31.6667 25 31.1067 25 30.4167V29.5834C25 28.8934 25.56 28.3334 26.25 28.3334H27.0833C27.7733 28.3334 28.3333 28.8934 28.3333 29.5834V30.4167ZM28.3333 22.0834C28.3333 22.7734 27.7733 23.3334 27.0833 23.3334H26.25C25.56 23.3334 25 22.7734 25 22.0834V21.2501C25 20.5601 25.56 20.0001 26.25 20.0001H27.0833C27.7733 20.0001 28.3333 20.5601 28.3333 21.2501V22.0834ZM35.4167 10.4167H31.25C30.56 10.4167 30 9.85675 30 9.16675C30 8.47675 30.56 7.91675 31.25 7.91675H35.4167C36.1067 7.91675 36.6667 8.47675 36.6667 9.16675C36.6667 9.85675 36.1067 10.4167 35.4167 10.4167Z" fill="#1F50FE"/>
</g>
<defs>
<clipPath id="clip0_2_2007">
<rect width="40" height="40" fill="white"/>
</clipPath>
</defs>
</svg>
